<svg xmlns="http://www.w3.org/2000/svg" version="1.1"><polyline points="179.0,79.5,161.5,87.5,153.5,95.0,146.5,102.5,143.0,110.5,142.0,118.0,124.5,126.0,112.0,134.0,101.5,141.5,91.0,149.5,80.0,157.5,69.5,166.0,59.0,174.5,55.0,182.5,60.0,174.0,68.0,168.0,76.0,162.0,84.0,155.0,92.5,149.5,100.5,144.5,108.5,138.5,116.5,133.5,124.5,128.0,132.0,123.5,139.5,119.5" stroke="black" stroke-width="2" fill="none" />
<polyline points="139.5,122.0,131.5,129.5,124.5,137.5,116.5,145.0,108.5,153.5,100.5,161.0" stroke="black" stroke-width="2" fill="none" />
<polyline points="91.0,152.5,99.5,152.0,107.5,151.0,115.5,151.0" stroke="black" stroke-width="2" fill="none" />
<polyline points="122.0,146.0,114.5,146.5,106.5,147.0" stroke="black" stroke-width="2" fill="none" />
<polyline points="108.0,138.5,100.0,146.5,91.5,154.0,83.0,162.0,75.0,170.0,67.0,177.5" stroke="black" stroke-width="2" fill="none" />
<polyline points="60.5,177.0,69.0,169.0,77.5,161.0,85.5,153.0" stroke="black" stroke-width="2" fill="none" />
<polyline points="83.5,150.0,91.5,149.5,100.0,149.0,108.0,149.0,115.5,148.5,123.5,148.5" stroke="black" stroke-width="2" fill="none" />
<polyline points="122.0,143.5,130.5,136.5,139.0,129.5,147.5,122.0,156.0,114.5,164.5,107.0,172.5,99.0,181.0,91.0,188.5,83.5" stroke="black" stroke-width="2" fill="none" />
<polyline points="195.5,83.5,188.0,91.0,179.5,98.0,171.0,105.5,163.0,113.0,155.5,121.0,147.0,128.0,139.0,135.0" stroke="black" stroke-width="2" fill="none" />
<polyline points="131.0,128.5,139.0,128.0,147.5,128.0" stroke="black" stroke-width="2" fill="none" />
<polyline points="148.5,121.5,156.5,121.0,165.0,120.5" stroke="black" stroke-width="2" fill="none" />
<polyline points="169.5,122.0,177.0,114.5,185.0,106.5,193.0,99.0" stroke="black" stroke-width="2" fill="none" />
<polyline points="189.5,98.0,197.5,96.0,207.5,95.0,215.5,95.0" stroke="black" stroke-width="2" fill="none" />
<polyline points="219.5,100.5,227.0,100.0,234.5,100.0,242.0,99.5" stroke="black" stroke-width="2" fill="none" />
<polyline points="241.5,100.0,234.0,108.0,225.5,115.5,217.5,123.0,210.0,130.5,202.5,138.0" stroke="black" stroke-width="2" fill="none" />
<polyline points="205.0,138.0,197.0,138.5" stroke="black" stroke-width="2" fill="none" />
<polyline points="196.5,132.0,204.5,131.0,212.0,130.0,219.5,129.0,227.5,128.0" stroke="black" stroke-width="2" fill="none" />
<polyline points="236.0,130.0,244.5,122.5,252.5,115.0" stroke="black" stroke-width="2" fill="none" />
<polyline points="252.5,122.0,244.0,129.5" stroke="black" stroke-width="2" fill="none" />
<polyline points="244.0,136.5,252.5,129.0" stroke="black" stroke-width="2" fill="none" />
<polyline points="251.5,127.0,259.5,119.0,267.5,111.0,275.0,108.0,283.0,107.0,285.5,108.5,290.0,116.0,289.5,124.0,283.5,132.0,274.0,140.0,279.0,135.5,287.0,127.5,295.5,123.5,303.5,123.0,311.0,125.0,324.5,124.5,318.5,132.5,318.0,140.5,314.0,149.0" stroke="black" stroke-width="2" fill="none" />
<polyline points="306.0,148.0,298.0,155.0" stroke="black" stroke-width="2" fill="none" />
<polyline points="298.5,153.0,307.0,153.0" stroke="black" stroke-width="2" fill="none" />
<polyline points="308.0,155.0,300.0,162.5" stroke="black" stroke-width="2" fill="none" />
<polyline points="301.0,157.0,308.5,156.5,315.5,155.5,323.0,155.0,331.5,154.5,339.5,154.0,347.0,153.5,354.5,153.5,362.5,153.5" stroke="black" stroke-width="2" fill="none" />
<polyline points="362.5,155.0,355.0,162.5" stroke="black" stroke-width="2" fill="none" />
<polyline points="354.0,160.0,349.0,168.0,350.0,176.0,343.0,184.0,329.0,191.5,320.0,200.0,311.0,208.0,302.0,216.5,294.0,224.5,285.0,232.5,277.5,240.5,271.0,248.5,269.5,252.0,277.5,241.0,285.5,232.0,294.0,225.5,301.5,217.0,309.0,210.0,317.0,202.5,324.5,196.0,332.5,189.0,340.5,185.0,348.5,181.0" stroke="black" stroke-width="2" fill="none" />
<polyline points="354.5,183.5,362.0,183.5" stroke="black" stroke-width="2" fill="none" />
<polyline points="364.0,186.5,362.0,194.5,356.0,202.5" stroke="black" stroke-width="2" fill="none" />
<polyline points="353.5,194.0,346.0,201.5,338.0,209.5" stroke="black" stroke-width="2" fill="none" />
<polyline points="338.5,196.0,346.5,195.5,354.0,194.5" stroke="black" stroke-width="2" fill="none" />
<polyline points="347.0,198.0,355.0,188.0,362.5,184.0,370.5,184.0,378.5,182.0,386.5,180.0,394.5,178.0,402.0,176.5,410.0,176.0" stroke="black" stroke-width="2" fill="none" />
<polyline points="413.0,179.0,421.5,172.0" stroke="black" stroke-width="2" fill="none" />
<polyline points="419.0,168.0,427.5,158.0,435.5,155.0,443.5,153.0,451.5,153.0" stroke="black" stroke-width="2" fill="none" />
<polyline points="454.5,153.0,460.0,161.0,459.0,169.5,455.0,177.5,446.0,186.0,435.0,193.0,442.5,188.0,450.5,182.0,458.5,168.5" stroke="black" stroke-width="2" fill="none" />
<polyline points="459.5,165.0,451.5,172.5,444.0,180.0,436.0,187.0,428.5,194.0,420.5,201.5" stroke="black" stroke-width="2" fill="none" />
<polyline points="420.0,203.5,407.0,211.5,403.5,219.5,398.5,229.5,391.0,237.5,383.0,243.0,372.0,250.5,360.0,258.5,347.5,266.0,335.0,274.0,336.0,270.0" stroke="black" stroke-width="2" fill="none" />
<polyline points="339.0,269.5,331.0,270.5" stroke="black" stroke-width="2" fill="none" />
<polyline points="327.0,273.0,335.0,275.0,342.5,271.0,350.5,264.5,358.5,259.0,366.5,253.5,374.5,248.5,382.5,243.0,392.0,237.0,400.0,228.0,406.0,213.5,414.5,205.5,422.5,203.0,430.0,202.5,437.5,200.5,445.5,197.0" stroke="black" stroke-width="2" fill="none" />
<polyline points="443.0,195.5,450.5,188.0" stroke="black" stroke-width="2" fill="none" />
<polyline points="451.5,185.5,450.5,193.0,453.5,198.0,461.5,194.0,470.0,191.0" stroke="black" stroke-width="2" fill="none" />
<polyline points="472.5,186.5,462.5,192.0" stroke="black" stroke-width="2" fill="none" />
<polyline points="457.0,173.0,449.0,180.5,441.5,188.0,434.0,195.5,426.0,203.0" stroke="black" stroke-width="2" fill="none" />
<polyline points="427.0,200.0,418.5,200.0,410.5,200.5" stroke="black" stroke-width="2" fill="none" />
<polyline points="411.0,195.5,419.0,195.0,427.0,194.0,435.0,193.0,443.5,192.5,451.5,191.5" stroke="black" stroke-width="2" fill="none" />
<polyline points="451.5,183.0,444.0,183.5,436.0,184.5" stroke="black" stroke-width="2" fill="none" />
<polyline points="437.0,177.5,445.0,176.5,453.0,175.5" stroke="black" stroke-width="2" fill="none" />
<polyline points="460.5,167.0,452.0,167.5,444.0,168.0" stroke="black" stroke-width="2" fill="none" />
<polyline points="442.5,161.0,450.5,160.5,458.5,160.0" stroke="black" stroke-width="2" fill="none" />
<polyline points="459.0,157.0,451.5,164.5,444.5,172.0,437.0,179.5,429.0,187.0,421.5,194.0,413.5,201.5,405.5,208.5,397.5,216.0,389.0,223.5,381.0,231.5,372.5,239.0,364.5,246.5,356.5,254.0" stroke="black" stroke-width="2" fill="none" />
<polyline points="349.5,251.0,357.5,250.0,365.5,249.5,373.5,248.5" stroke="black" stroke-width="2" fill="none" />
<polyline points="377.5,240.5,369.5,240.0,361.5,240.5" stroke="black" stroke-width="2" fill="none" />
<polyline points="353.5,236.5,361.5,236.0,369.5,235.0,377.5,234.0,386.0,234.0" stroke="black" stroke-width="2" fill="none" />
<polyline points="388.0,234.5,395.5,227.0,403.0,219.5,411.0,211.5" stroke="black" stroke-width="2" fill="none" />
<polyline points="404.5,202.5,396.5,210.0,388.0,217.5,380.0,224.5,372.0,231.5,363.5,239.0,355.0,246.0,347.0,253.5,338.5,261.0" stroke="black" stroke-width="2" fill="none" />
<polyline points="339.0,265.5,347.5,265.0" stroke="black" stroke-width="2" fill="none" />
<polyline points="341.0,256.0,349.0,255.5,356.5,255.5" stroke="black" stroke-width="2" fill="none" />
<polyline points="349.5,246.0,357.5,246.0,365.5,245.0,373.5,244.5,381.5,244.0" stroke="black" stroke-width="2" fill="none" />
<polyline points="388.5,232.5,380.5,233.0,372.0,233.5" stroke="black" stroke-width="2" fill="none" />
<polyline points="372.0,222.5,380.0,221.5,387.5,221.0,395.5,220.0,403.0,219.0,410.5,218.5" stroke="black" stroke-width="2" fill="none" />
<polyline points="412.0,208.5,404.5,209.0,396.5,209.0" stroke="black" stroke-width="2" fill="none" />
<polyline points="387.5,205.0,395.0,204.5,403.0,204.0,411.0,203.0,419.0,202.5,427.0,202.5" stroke="black" stroke-width="2" fill="none" />
<polyline points="422.5,208.0,416.0,216.0,409.5,224.0,409.5,223.5,417.5,213.5" stroke="black" stroke-width="2" fill="none" />
<polyline points="412.5,194.0,420.5,187.0" stroke="black" stroke-width="2" fill="none" />
<polyline points="412.0,185.5,420.0,177.5" stroke="black" stroke-width="2" fill="none" />
<polyline points="415.0,174.0,412.0,175.0,406.0,182.5,405.0,190.0,406.5,198.0,391.5,206.0,380.5,214.0,373.0,222.0,364.0,230.0,356.0,238.5,347.5,246.5,339.5,254.5,332.5,262.5,326.5,270.0,327.0,268.0,335.0,259.5,343.0,250.5,351.0,242.0,359.0,235.0,367.0,227.5,375.0,220.5,383.0,213.5,391.0,207.5,398.5,203.5,406.5,199.0" stroke="black" stroke-width="2" fill="none" />
<polyline points="403.5,194.5,411.5,194.5,419.5,194.5,427.0,194.0,434.5,193.5,442.5,193.5,450.5,193.0" stroke="black" stroke-width="2" fill="none" />
<polyline points="437.0,172.5,445.0,171.5,452.5,170.5,460.5,170.0,468.5,169.0,476.5,169.0" stroke="black" stroke-width="2" fill="none" />
<polyline points="452.5,157.5,444.5,164.5,436.5,172.0" stroke="black" stroke-width="2" fill="none" />
<polyline points="432.5,176.0,433.5,168.0,438.0,159.5,432.5,165.5" stroke="black" stroke-width="2" fill="none" />
<polyline points="435.5,164.0,443.5,163.5,451.5,163.0,460.0,162.5" stroke="black" stroke-width="2" fill="none" />
<polyline points="452.5,148.0,444.5,148.5" stroke="black" stroke-width="2" fill="none" />
<polyline points="435.5,156.0,444.0,155.5,452.0,155.0,460.5,155.0" stroke="black" stroke-width="2" fill="none" />
<polyline points="466.0,186.0,458.5,186.0,450.5,186.0,442.5,186.0,435.0,186.5,427.0,187.0,419.0,187.0,411.0,187.5,403.0,187.5" stroke="black" stroke-width="2" fill="none" />
<polyline points="404.5,181.5,412.5,181.0,420.0,180.5,427.5,180.0,435.0,179.5,442.5,179.5,450.0,179.0,458.0,178.5,466.0,178.0,474.0,177.0" stroke="black" stroke-width="2" fill="none" />
<polyline points="429.5,176.5,422.0,183.0,417.0,180.0,419.5,172.5,424.0,164.5,432.0,157.0,434.0,159.0,425.5,164.0" stroke="black" stroke-width="2" fill="none" />
<polyline points="412.0,164.5,403.5,171.5" stroke="black" stroke-width="2" fill="none" />
<polyline points="404.5,179.0,412.5,171.5" stroke="black" stroke-width="2" fill="none" />
<polyline points="403.5,161.0,396.0,169.0,388.0,177.5" stroke="black" stroke-width="2" fill="none" />
<polyline points="380.0,177.5,388.0,170.5,396.0,163.5,404.0,156.5" stroke="black" stroke-width="2" fill="none" />
<polyline points="404.5,149.0,397.0,156.5,389.0,163.5,381.0,171.0,373.0,178.0,365.5,185.0" stroke="black" stroke-width="2" fill="none" />
<polyline points="363.5,190.0,355.5,190.5,347.5,191.0,339.5,191.0,331.5,191.5" stroke="black" stroke-width="2" fill="none" />
<polyline points="337.0,189.5,329.0,196.5,320.5,203.5,313.0,210.5,305.5,217.0,297.5,224.0,290.0,231.5,282.0,239.5,274.0,247.5" stroke="black" stroke-width="2" fill="none" />
<polyline points="273.5,247.0,282.0,247.0" stroke="black" stroke-width="2" fill="none" />
<polyline points="283.5,245.0,292.0,237.5,300.0,230.0,307.5,222.5,315.0,215.0,322.5,207.5,331.0,199.5,339.5,192.5,348.0,185.0,356.5,177.5,364.5,170.5" stroke="black" stroke-width="2" fill="none" />
<polyline points="364.5,169.5,356.5,170.0" stroke="black" stroke-width="2" fill="none" />
<polyline points="355.0,170.0,363.0,162.5" stroke="black" stroke-width="2" fill="none" />
<polyline points="365.5,162.0,358.0,163.0" stroke="black" stroke-width="2" fill="none" />
<polyline points="362.5,159.5,366.5,148.5,374.5,139.5,382.5,137.5,390.0,135.5,398.0,137.0" stroke="black" stroke-width="2" fill="none" />
<polyline points="395.5,136.5,402.5,145.0,401.5,153.0,397.5,161.0,388.0,169.0,385.0,170.5,393.0,164.5,401.5,151.5" stroke="black" stroke-width="2" fill="none" />
<polyline points="403.0,140.5,395.5,148.0,387.5,155.5,380.0,163.0,372.0,169.5,364.0,177.0,356.0,184.5,348.0,192.0,340.0,199.0,331.5,206.0,323.5,213.5,315.5,221.5" stroke="black" stroke-width="2" fill="none" />
<polyline points="308.5,216.5,316.5,216.0,325.0,216.0,333.5,216.0" stroke="black" stroke-width="2" fill="none" />
<polyline points="322.0,201.5,329.5,201.0,337.5,201.0,346.0,200.5" stroke="black" stroke-width="2" fill="none" />
<polyline points="338.0,182.5,346.0,181.5,354.5,181.5,363.0,181.0,371.5,180.0,379.5,179.5,388.0,178.5" stroke="black" stroke-width="2" fill="none" />
<polyline points="381.5,167.5,389.0,167.0,396.0,167.0" stroke="black" stroke-width="2" fill="none" />
<polyline points="403.0,152.5,395.0,152.5,387.0,153.0" stroke="black" stroke-width="2" fill="none" />
<polyline points="387.5,146.0,395.5,145.5" stroke="black" stroke-width="2" fill="none" />
<polyline points="394.0,139.5,386.0,147.0,378.0,154.5" stroke="black" stroke-width="2" fill="none" />
<polyline points="379.0,157.5,387.0,156.5,395.5,155.5,403.0,154.5,410.5,154.0,418.5,153.5" stroke="black" stroke-width="2" fill="none" />
<polyline points="418.0,185.0,410.0,185.5" stroke="black" stroke-width="2" fill="none" />
<polyline points="387.0,212.0,379.0,219.5,371.5,227.0,363.5,234.5,356.0,242.0,348.0,249.0,340.0,257.0,332.0,264.0" stroke="black" stroke-width="2" fill="none" />
<polyline points="331.5,262.0,339.5,261.0,347.0,260.5,355.0,260.0" stroke="black" stroke-width="2" fill="none" />
<polyline points="364.0,252.0,355.5,252.5,347.5,252.5,339.0,252.5" stroke="black" stroke-width="2" fill="none" />
<polyline points="361.5,227.5,369.5,227.0,378.5,226.5,387.0,226.0,395.0,226.0" stroke="black" stroke-width="2" fill="none" />
<polyline points="386.5,219.5,395.0,218.5,403.5,218.0" stroke="black" stroke-width="2" fill="none" />
<polyline points="395.5,224.5,388.0,225.0,380.0,225.5" stroke="black" stroke-width="2" fill="none" />
<polyline points="381.0,213.0,389.0,212.0,397.5,211.5,405.5,211.5,413.5,211.0,421.5,211.0" stroke="black" stroke-width="2" fill="none" />
<polyline points="394.0,159.0,386.5,159.0,378.5,159.5" stroke="black" stroke-width="2" fill="none" />
<polyline points="377.5,149.5,385.5,149.0,394.5,148.5,403.0,148.0" stroke="black" stroke-width="2" fill="none" />
<polyline points="394.0,132.5,386.5,133.0" stroke="black" stroke-width="2" fill="none" />
<polyline points="380.0,142.0,388.0,141.0,395.5,141.0,403.5,140.5" stroke="black" stroke-width="2" fill="none" />
<polyline points="419.5,159.5,411.0,160.0,402.5,160.5,394.5,161.0,386.5,161.5,378.0,163.0,370.0,164.0,362.5,164.5,354.5,165.0,346.5,165.5" stroke="black" stroke-width="2" fill="none" />
<polyline points="346.5,162.0,354.0,154.5,362.5,147.0" stroke="black" stroke-width="2" fill="none" />
<polyline points="356.0,147.5,348.0,155.0" stroke="black" stroke-width="2" fill="none" />
<polyline points="349.5,148.0,341.0,156.0,332.5,163.5" stroke="black" stroke-width="2" fill="none" />
<polyline points="324.5,163.0,333.0,156.0,340.5,149.0,348.5,141.5" stroke="black" stroke-width="2" fill="none" />
<polyline points="347.5,132.5,339.0,140.0,331.5,148.0,323.5,155.5,316.0,163.0,308.0,171.0" stroke="black" stroke-width="2" fill="none" />
<polyline points="309.0,171.0,300.0,179.5,299.0,183.5,287.0,191.5,275.5,199.0,265.0,207.0,253.0,215.0,242.0,223.0,230.0,230.5" stroke="black" stroke-width="2" fill="none" />
<polyline points="227.5,225.0,235.5,224.0" stroke="black" stroke-width="2" fill="none" />
<polyline points="236.5,215.5,244.5,215.0" stroke="black" stroke-width="2" fill="none" />
<polyline points="244.0,214.5,251.5,207.0,260.0,199.5,268.0,192.5,275.5,185.0,283.0,178.0,290.5,170.5" stroke="black" stroke-width="2" fill="none" />
<polyline points="291.5,167.0,299.5,166.5,308.0,166.0,316.0,165.5,325.0,165.0" stroke="black" stroke-width="2" fill="none" />
<polyline points="323.0,154.0,331.0,153.0,339.0,152.0" stroke="black" stroke-width="2" fill="none" />
<polyline points="339.5,143.5,332.0,144.5,324.0,145.0" stroke="black" stroke-width="2" fill="none" />
<polyline points="322.5,139.5,330.5,131.5,338.0,124.0" stroke="black" stroke-width="2" fill="none" />
<polyline points="332.5,122.0,324.5,129.5" stroke="black" stroke-width="2" fill="none" />
<polyline points="326.0,133.5,334.0,133.5,341.5,133.0,349.5,132.0" stroke="black" stroke-width="2" fill="none" />
<polyline points="347.0,124.5,339.5,132.5,331.5,140.0,324.0,147.5,315.5,154.5,307.0,161.5,299.5,169.0,291.0,176.0,283.0,183.0,275.0,190.0,267.0,197.5" stroke="black" stroke-width="2" fill="none" />
<polyline points="265.5,192.5,274.0,192.0,282.5,192.0" stroke="black" stroke-width="2" fill="none" />
<polyline points="276.0,186.0,283.5,185.0,291.0,184.5" stroke="black" stroke-width="2" fill="none" />
<polyline points="291.0,185.5,299.0,178.0" stroke="black" stroke-width="2" fill="none" />
<polyline points="301.0,169.0,309.0,169.0" stroke="black" stroke-width="2" fill="none" />
<polyline points="307.5,162.0,315.5,161.5,323.5,161.0,331.5,161.0" stroke="black" stroke-width="2" fill="none" />
<polyline points="348.0,173.5,356.0,173.0,364.5,172.5,372.5,172.0,381.0,171.0,389.5,170.0,397.0,169.5,404.5,168.5,412.0,168.0,419.5,167.5" stroke="black" stroke-width="2" fill="none" />
<polyline points="387.0,176.5,378.5,177.0,370.5,177.0,362.5,178.0,355.0,178.5" stroke="black" stroke-width="2" fill="none" />
<polyline points="367.0,175.5,375.0,175.5" stroke="black" stroke-width="2" fill="none" />
<polyline points="368.5,178.0,377.0,178.0,390.0,172.0" stroke="black" stroke-width="2" fill="none" />
<polyline points="374.5,161.0,378.5,153.0,379.5,145.0,379.0,146.0,373.0,165.0,370.0,165.0,368.0,166.0,364.0,158.0,366.5,151.5,371.0,143.5,382.0,140.5,374.0,144.5" stroke="black" stroke-width="2" fill="none" />
<polyline points="346.5,129.5,338.5,130.5,330.5,130.5" stroke="black" stroke-width="2" fill="none" />
<polyline points="325.0,137.5,333.0,137.0,341.0,136.5" stroke="black" stroke-width="2" fill="none" />
<polyline points="348.0,123.0,339.5,123.5,331.0,124.5,322.5,125.0" stroke="black" stroke-width="2" fill="none" />
<polyline points="322.0,117.0,330.0,116.5,338.0,115.5" stroke="black" stroke-width="2" fill="none" />
<polyline points="331.5,117.5,318.5,125.5,311.0,133.5,308.5,141.0,308.5,149.0,314.0,150.0,319.0,134.5" stroke="black" stroke-width="2" fill="none" />
<polyline points="317.5,141.5,325.5,141.0,333.0,140.0,340.5,139.5,348.0,138.5,355.5,137.5,363.5,137.5,372.0,137.5" stroke="black" stroke-width="2" fill="none" />
<polyline points="363.0,194.0,355.0,195.0,347.5,195.5,340.5,196.0,333.0,196.5,324.5,197.0,316.0,197.5" stroke="black" stroke-width="2" fill="none" />
<polyline points="316.0,208.5,323.5,208.0,331.0,207.5,338.5,207.5" stroke="black" stroke-width="2" fill="none" />
<polyline points="347.0,203.0,339.0,203.5,331.0,204.0,323.0,204.5,315.5,205.0,307.5,205.5" stroke="black" stroke-width="2" fill="none" />
<polyline points="301.5,216.0,309.5,215.0,317.0,214.5,324.5,213.5,332.5,212.0,340.0,211.0" stroke="black" stroke-width="2" fill="none" />
<polyline points="316.0,225.5,307.5,227.0,299.5,227.5" stroke="black" stroke-width="2" fill="none" />
<polyline points="307.0,232.5,299.0,232.5,291.5,233.0" stroke="black" stroke-width="2" fill="none" />
<polyline points="285.0,230.0,293.0,230.0,300.5,228.5,308.0,227.5,316.0,227.0" stroke="black" stroke-width="2" fill="none" />
<polyline points="333.0,220.5,325.0,220.5,316.5,220.5,308.0,220.5,299.0,220.5,291.0,221.5" stroke="black" stroke-width="2" fill="none" />
<polyline points="291.5,242.5,283.0,242.5" stroke="black" stroke-width="2" fill="none" />
<polyline points="275.0,236.5,283.0,236.0,291.0,235.0,299.0,235.0" stroke="black" stroke-width="2" fill="none" />
<polyline points="291.5,242.5,283.5,243.0,275.5,243.0,267.5,243.5" stroke="black" stroke-width="2" fill="none" />
<polyline points="271.0,254.0,279.0,254.5,286.5,250.5,294.5,244.0,302.5,238.0,310.5,233.0,319.0,228.0,327.0,222.0,335.0,216.5,343.0,211.5,351.0,206.5,358.5,198.5,363.0,185.5,350.5,193.0,346.5,201.0,335.0,215.0,323.5,222.5,312.5,230.5,299.5,238.5,290.0,246.5" stroke="black" stroke-width="2" fill="none" />
<polyline points="266.0,202.5,258.5,203.0,251.0,204.0" stroke="black" stroke-width="2" fill="none" />
<polyline points="258.0,209.0,250.0,209.0,242.0,209.5" stroke="black" stroke-width="2" fill="none" />
<polyline points="237.5,204.0,245.0,203.5,253.0,203.0,261.0,203.0,269.0,203.0" stroke="black" stroke-width="2" fill="none" />
<polyline points="266.0,181.5,274.0,180.5,281.5,180.0,289.5,179.5,297.5,179.0" stroke="black" stroke-width="2" fill="none" />
<polyline points="298.5,175.0,290.0,176.0,282.0,176.5" stroke="black" stroke-width="2" fill="none" />
<polyline points="275.0,175.0,283.0,174.5,291.0,173.5,299.0,172.0,307.0,171.0" stroke="black" stroke-width="2" fill="none" />
<polyline points="292.0,150.5,299.5,150.0,307.5,150.0,315.5,149.5,323.0,149.0,331.0,148.0,339.0,147.0,347.5,146.5,356.0,145.5,364.0,144.5" stroke="black" stroke-width="2" fill="none" />
<polyline points="315.5,121.5,307.0,122.0,299.0,122.0,290.5,122.5,282.5,122.5,274.5,122.5,267.0,122.5" stroke="black" stroke-width="2" fill="none" />
<polyline points="267.0,125.0,274.5,117.5,282.5,110.0" stroke="black" stroke-width="2" fill="none" />
<polyline points="275.5,107.0,267.5,114.0" stroke="black" stroke-width="2" fill="none" />
<polyline points="265.5,116.5,274.0,116.5,282.5,116.0,290.5,115.5" stroke="black" stroke-width="2" fill="none" />
<polyline points="291.5,113.0,283.0,121.0,275.5,129.0,268.0,137.0,260.0,144.5,252.0,152.0,243.5,160.0,235.0,168.0" stroke="black" stroke-width="2" fill="none" />
<polyline points="242.0,160.5,234.0,161.5,225.5,161.5" stroke="black" stroke-width="2" fill="none" />
<polyline points="226.0,156.0,218.0,163.5,211.0,171.5,203.0,179.0,195.0,186.0,187.0,193.0,179.5,201.0,171.5,208.5" stroke="black" stroke-width="2" fill="none" />
<polyline points="172.0,210.5,164.0,211.5" stroke="black" stroke-width="2" fill="none" />
<polyline points="161.0,210.0,169.5,202.0,177.5,194.0,185.5,186.5,193.5,178.5" stroke="black" stroke-width="2" fill="none" />
<polyline points="197.0,174.0,204.5,173.5,212.5,173.0,220.5,172.0,228.0,171.5,235.5,171.0" stroke="black" stroke-width="2" fill="none" />
<polyline points="243.5,152.5,251.5,152.5" stroke="black" stroke-width="2" fill="none" />
<polyline points="250.5,152.0,239.5,159.5,246.0,154.0" stroke="black" stroke-width="2" fill="none" />
<polyline points="253.0,157.0,245.0,157.0,237.0,157.0,228.5,157.5,220.0,157.5" stroke="black" stroke-width="2" fill="none" />
<polyline points="226.0,151.0,234.0,150.5,242.0,150.0,250.5,149.5,259.0,148.5,267.5,147.5,275.5,147.0" stroke="black" stroke-width="2" fill="none" />
<polyline points="282.5,145.0,290.0,137.5,298.0,130.5,306.5,123.5" stroke="black" stroke-width="2" fill="none" />
<polyline points="308.0,130.5,300.0,137.5,292.0,145.0" stroke="black" stroke-width="2" fill="none" />
<polyline points="298.5,146.0,306.5,139.0" stroke="black" stroke-width="2" fill="none" />
<polyline points="307.5,138.0,299.5,139.0,291.5,140.0,283.5,140.5,275.0,140.5,267.0,140.5,259.5,140.5,251.5,141.0,243.5,142.0" stroke="black" stroke-width="2" fill="none" />
<polyline points="242.5,144.5,251.0,144.0,259.5,144.0,268.0,143.5,276.5,143.5" stroke="black" stroke-width="2" fill="none" />
<polyline points="275.0,144.0,283.0,136.5,291.0,129.5,299.0,122.0" stroke="black" stroke-width="2" fill="none" />
<polyline points="291.5,122.5,283.5,130.0,275.5,137.5,267.5,145.0" stroke="black" stroke-width="2" fill="none" />
<polyline points="266.0,137.0,274.0,136.5,282.5,136.5,290.5,136.0,298.5,135.5" stroke="black" stroke-width="2" fill="none" />
<polyline points="310.0,133.5,317.5,128.0,325.0,120.5,333.0,117.5,341.0,118.0,344.0,121.0,347.0,129.0,345.0,137.0,340.5,145.5,332.5,153.5,330.5,155.5,338.5,148.5,346.5,134.0" stroke="black" stroke-width="2" fill="none" />
<polyline points="291.5,106.0,284.0,114.0,276.0,122.5,268.0,130.5,259.5,138.0,251.5,146.0,244.0,153.5,236.0,160.5,228.5,168.0,220.0,175.0,212.5,182.5" stroke="black" stroke-width="2" fill="none" />
<polyline points="203.5,177.0,211.0,177.0,218.5,176.0,226.5,175.5" stroke="black" stroke-width="2" fill="none" />
<polyline points="234.5,167.5,227.0,168.0,219.5,168.0,211.5,168.5" stroke="black" stroke-width="2" fill="none" />
<polyline points="205.0,165.0,213.5,164.5,221.5,164.0,229.0,163.5,236.5,162.5,244.5,161.5,252.0,160.5" stroke="black" stroke-width="2" fill="none" />
<polyline points="256.0,153.5,249.0,162.0,240.5,170.0,226.5,178.0,214.5,186.0,202.5,194.0,189.5,202.0,177.0,210.5" stroke="black" stroke-width="2" fill="none" />
<polyline points="174.0,199.0,182.0,198.5,189.5,198.5" stroke="black" stroke-width="2" fill="none" />
<polyline points="188.0,200.0,196.0,192.0,204.0,184.5,212.0,176.5,219.5,168.0,227.5,161.0,235.5,153.0,244.0,145.0,252.0,137.0,260.0,129.5" stroke="black" stroke-width="2" fill="none" />
<polyline points="266.0,127.0,274.5,127.0,282.5,127.0" stroke="black" stroke-width="2" fill="none" />
<polyline points="275.0,121.5,282.5,121.0,290.5,120.0" stroke="black" stroke-width="2" fill="none" />
<polyline points="283.0,112.0,275.0,112.5" stroke="black" stroke-width="2" fill="none" />
<polyline points="274.0,107.0,262.0,115.0,254.0,122.5,252.0,130.5,254.0,130.5,259.0,134.0" stroke="black" stroke-width="2" fill="none" />
<polyline points="250.5,137.5,242.5,138.0" stroke="black" stroke-width="2" fill="none" />
<polyline points="241.0,139.0,248.0,129.0,242.0,137.0,242.0,145.0,232.5,153.0,218.5,160.5,207.5,169.0,197.0,177.0,187.0,185.0,178.0,193.5,169.0,201.5,160.5,209.5,157.5,217.0,163.0,206.0,171.0,197.5,178.5,190.5,186.5,184.5,194.5,177.0,202.0,170.5,210.0,163.0,218.0,156.5,226.5,152.5,234.5,150.0" stroke="black" stroke-width="2" fill="none" />
<polyline points="236.0,133.0,244.0,133.0,252.0,133.0,260.0,132.5,268.0,132.5,275.5,132.0,284.0,131.0,292.5,130.5,300.5,129.5,308.5,128.5" stroke="black" stroke-width="2" fill="none" />
<polyline points="291.0,104.5,282.5,105.0,274.0,105.5,266.0,106.5,258.0,107.5,249.5,108.0,242.0,108.5,234.5,108.5,227.0,108.5,220.0,108.5,212.0,108.5" stroke="black" stroke-width="2" fill="none" />
<polyline points="219.0,105.5,227.0,99.0,235.0,91.5" stroke="black" stroke-width="2" fill="none" />
<polyline points="231.5,93.0,239.5,97.0,240.0,105.5,236.0,113.5,242.0,111.0,250.0,108.5" stroke="black" stroke-width="2" fill="none" />
<polyline points="251.0,107.5,243.0,115.0,235.0,122.0,227.0,129.0" stroke="black" stroke-width="2" fill="none" />
<polyline points="218.5,130.0,226.5,123.5,234.5,116.5,242.0,109.5" stroke="black" stroke-width="2" fill="none" />
<polyline points="235.5,100.0,227.5,107.5,219.0,114.5,211.0,121.5,203.0,129.0,194.5,136.5,186.5,144.0,178.5,150.5,170.5,158.0" stroke="black" stroke-width="2" fill="none" />
<polyline points="161.0,154.0,169.5,153.5,178.0,153.0,186.0,152.0" stroke="black" stroke-width="2" fill="none" />
<polyline points="188.0,153.5,180.0,153.5,172.5,154.0,164.0,155.0,156.5,156.0,148.5,157.0,141.0,157.5" stroke="black" stroke-width="2" fill="none" />
<polyline points="146.0,161.5,154.5,161.0,162.5,160.5,170.5,160.0" stroke="black" stroke-width="2" fill="none" />
<polyline points="164.5,147.5,156.5,155.0,148.0,162.0,139.0,169.5,130.5,177.0,122.0,184.0,114.5,192.0" stroke="black" stroke-width="2" fill="none" />
<polyline points="107.5,189.0,115.5,188.5,123.5,188.0,131.5,187.5" stroke="black" stroke-width="2" fill="none" />
<polyline points="131.0,184.0,139.0,177.0,147.0,169.5,155.5,161.5,164.0,154.0,171.5,146.5,179.5,139.0" stroke="black" stroke-width="2" fill="none" />
<polyline points="180.0,131.0,188.0,131.0,196.5,130.5,204.5,130.0,212.5,130.0,220.5,129.5,227.5,129.5" stroke="black" stroke-width="2" fill="none" />
<polyline points="218.5,113.5,226.5,113.0,234.5,112.5" stroke="black" stroke-width="2" fill="none" />
<polyline points="234.0,101.5,226.0,102.5,218.0,103.5" stroke="black" stroke-width="2" fill="none" />
<polyline points="210.5,100.0,203.0,101.0,195.5,101.5,188.0,102.5,180.0,103.0,172.5,104.0,164.5,104.0" stroke="black" stroke-width="2" fill="none" />
<polyline points="170.5,107.5,178.5,107.0,186.5,106.5,194.0,106.0,202.0,105.5" stroke="black" stroke-width="2" fill="none" />
<polyline points="203.5,106.0,212.0,99.0,214.0,98.5,203.5,106.5,200.5,114.5" stroke="black" stroke-width="2" fill="none" />
<polyline points="202.5,117.5,194.5,125.0" stroke="black" stroke-width="2" fill="none" />
<polyline points="197.0,123.5,205.0,122.5" stroke="black" stroke-width="2" fill="none" />
<polyline points="202.0,124.0,194.5,131.5,186.5,139.0,179.0,146.5,171.5,154.5,163.5,161.5,156.0,169.5,148.5,177.5" stroke="black" stroke-width="2" fill="none" />
<polyline points="141.0,168.0,148.5,167.5,156.5,166.5,164.5,166.0" stroke="black" stroke-width="2" fill="none" />
<polyline points="149.0,150.5,157.0,150.0,164.5,149.0,172.5,148.5,181.0,147.5,189.0,147.0,197.0,146.5" stroke="black" stroke-width="2" fill="none" />
<polyline points="196.0,143.5,188.5,144.0,180.5,144.5,172.5,145.0" stroke="black" stroke-width="2" fill="none" />
<polyline points="164.5,142.0,172.0,142.0,179.5,141.5,187.0,141.0,195.0,140.5,202.5,140.5" stroke="black" stroke-width="2" fill="none" />
<polyline points="204.5,129.0,202.5,140.0,194.5,148.0,183.5,155.5,170.0,163.5,157.0,172.0,144.0,180.0,130.5,188.5,116.5,196.5" stroke="black" stroke-width="2" fill="none" />
<polyline points="107.0,194.0,115.0,186.0,123.0,178.5,131.0,171.0" stroke="black" stroke-width="2" fill="none" />
<polyline points="132.5,165.5,140.5,165.0,148.5,165.0,157.0,165.0,165.0,165.0,173.5,165.0" stroke="black" stroke-width="2" fill="none" />
<polyline points="187.5,183.0,195.5,182.0,204.0,181.5,211.5,181.0,219.0,180.5,226.5,180.0" stroke="black" stroke-width="2" fill="none" />
<polyline points="242.5,197.5,250.5,197.0,259.0,196.5,267.0,195.5,275.0,194.5,282.5,193.5" stroke="black" stroke-width="2" fill="none" />
<polyline points="274.5,180.0,267.0,187.5,259.5,194.5,252.0,202.0,244.0,209.0,236.0,216.5,228.5,224.5,220.5,232.0" stroke="black" stroke-width="2" fill="none" />
<polyline points="219.0,227.0,226.5,219.5,234.5,211.5" stroke="black" stroke-width="2" fill="none" />
<polyline points="226.5,210.5,234.5,210.5,243.0,210.5,251.0,210.0,259.0,210.0" stroke="black" stroke-width="2" fill="none" />
<polyline points="249.5,191.0,257.5,190.5,266.5,189.5,275.5,189.0,284.0,188.5,292.5,187.5" stroke="black" stroke-width="2" fill="none" />
<polyline points="243.0,221.0,235.0,221.5,227.5,222.0,219.5,222.0" stroke="black" stroke-width="2" fill="none" />
<polyline points="228.0,228.0,220.0,229.0,212.0,229.5" stroke="black" stroke-width="2" fill="none" />
<polyline points="214.0,233.5,222.0,233.5,230.0,229.5,238.0,225.0,246.0,220.5,254.5,214.5,262.5,210.0,270.5,203.5,278.5,198.0,286.0,193.0,294.0,188.0,296.5,178.0,303.5,176.5,308.5,169.5,316.5,167.5,324.0,165.5,332.0,163.5,339.5,161.0,347.0,159.0,352.0,161.0" stroke="black" stroke-width="2" fill="none" />
<polyline points="297.5,157.5,291.5,168.5,283.0,172.5,275.0,177.0,266.5,183.0,258.5,190.0,251.0,196.0,243.0,203.0,235.0,210.0,227.0,217.0,219.0,224.0,216.0,235.0,216.0,227.5,224.0,219.5,233.5,211.5,244.0,203.5,252.5,195.0,262.5,187.0,272.0,178.5,284.5,170.5,298.5,162.5,295.5,154.5,296.5,146.5,293.0,142.5,285.0,145.5,277.0,147.5,269.0,149.5,261.5,152.0,253.5,158.0,246.0,163.5,237.5,171.5,230.0,177.0,222.0,182.0,213.5,187.0,205.0,192.5,197.0,197.5,188.5,202.0,180.5,207.0,172.0,212.0,164.0,216.0,155.5,215.0" stroke="black" stroke-width="2" fill="none" />
<polyline points="154.5,214.5,163.0,213.5,172.0,212.5" stroke="black" stroke-width="2" fill="none" />
<polyline points="186.5,204.0,179.0,205.0,171.5,205.5,163.0,206.5,155.0,207.0" stroke="black" stroke-width="2" fill="none" />
<polyline points="163.0,197.0,171.5,196.5,179.0,196.0,187.0,195.5,195.0,195.0" stroke="black" stroke-width="2" fill="none" />
<polyline points="187.5,195.0,196.0,194.0,204.0,193.0" stroke="black" stroke-width="2" fill="none" />
<polyline points="197.5,187.5,205.5,187.0,213.5,186.0" stroke="black" stroke-width="2" fill="none" />
<polyline points="211.0,186.5,203.0,186.5,195.0,187.0,187.0,187.5,179.5,188.0" stroke="black" stroke-width="2" fill="none" />
<polyline points="149.0,178.0,141.0,178.5,133.0,179.0" stroke="black" stroke-width="2" fill="none" />
<polyline points="132.0,184.5,124.5,185.0" stroke="black" stroke-width="2" fill="none" />
<polyline points="122.5,173.0,131.0,173.0,139.0,173.0,147.0,172.5,154.5,172.0" stroke="black" stroke-width="2" fill="none" />
<polyline points="138.5,135.0,130.5,136.0,123.0,137.0,115.0,137.5" stroke="black" stroke-width="2" fill="none" />
<polyline points="107.5,133.5,115.5,133.5,123.0,133.0,130.5,132.5,139.0,132.0,146.5,131.5" stroke="black" stroke-width="2" fill="none" />
<polyline points="142.5,116.5,150.0,116.5,157.0,117.0,164.5,116.5,173.0,116.5,181.0,116.5,189.0,116.0,197.5,116.0,205.5,115.5,213.5,115.0,221.5,114.5,229.5,114.0,237.5,113.0,245.0,111.5,252.0,109.5,259.5,108.5" stroke="black" stroke-width="2" fill="none" />
<polyline points="264.5,116.0,264.5,124.0,260.5,132.0" stroke="black" stroke-width="2" fill="none" />
<polyline points="252.0,119.5,243.5,119.5,235.5,120.0,227.0,121.0,218.5,122.0,210.0,122.5" stroke="black" stroke-width="2" fill="none" />
<polyline points="203.5,110.0,195.0,117.0,186.5,125.0" stroke="black" stroke-width="2" fill="none" />
<polyline points="188.5,126.0,196.5,125.5,203.5,124.5,211.0,124.0,218.5,124.0,226.5,124.0,234.0,123.5,242.0,123.5,250.0,123.0" stroke="black" stroke-width="2" fill="none" />
<polyline points="243.5,89.0,235.5,89.5,227.5,89.5,219.5,90.0,211.5,91.0,203.5,91.5,195.5,91.5,188.0,92.0,180.0,93.0,172.0,93.5,164.0,94.0" stroke="black" stroke-width="2" fill="none" />
<polyline points="158.0,96.0,166.0,88.5,167.0,91.0,163.0,91.0,159.5,91.5,153.5,99.5,157.0,103.5,165.0,99.0,163.0,88.0,168.5,92.5,164.5,100.5" stroke="black" stroke-width="2" fill="none" />
<polyline points="170.0,97.5,178.0,97.0,186.5,96.5" stroke="black" stroke-width="2" fill="none" />
<polyline points="193.5,91.5,185.5,99.0,177.5,106.5,170.0,113.5,162.5,120.0" stroke="black" stroke-width="2" fill="none" />
<polyline points="163.5,122.5,156.0,123.5,148.0,123.5,140.5,124.0,132.0,125.0,124.0,125.5" stroke="black" stroke-width="2" fill="none" />
<polyline points="129.5,124.0,121.5,131.0,114.0,138.0,106.0,145.0,98.5,152.0,90.5,159.0,83.0,166.5" stroke="black" stroke-width="2" fill="none" />
<polyline points="82.5,162.5,91.0,162.0,100.0,161.5" stroke="black" stroke-width="2" fill="none" />
<polyline points="105.5,181.5,113.5,181.0,122.0,180.5,130.5,180.0,138.5,179.5,147.0,179.5" stroke="black" stroke-width="2" fill="none" />
<polyline points="139.0,139.5,131.5,140.5,123.0,140.5,114.5,140.0,106.5,140.5,98.5,140.5,91.0,141.0" stroke="black" stroke-width="2" fill="none" />
<polyline points="75.5,158.0,83.5,157.5,91.0,157.0,99.5,157.0,107.5,156.5,116.0,156.0" stroke="black" stroke-width="2" fill="none" />
<polyline points="83.0,169.0,74.5,170.0" stroke="black" stroke-width="2" fill="none" />
<polyline points="68.5,167.5,76.0,166.5,84.0,166.0,92.0,165.5,99.5,165.0" stroke="black" stroke-width="2" fill="none" />
<polyline points="83.0,171.0,75.0,171.5,67.0,172.0,59.0,173.0,51.0,173.5" stroke="black" stroke-width="2" fill="none" />
<polyline points="53.5,181.0,61.5,181.5,69.5,179.0,77.5,174.0,86.0,170.5,94.0,166.0,102.0,161.5,109.5,156.5,117.5,152.0,125.5,146.5,133.5,141.5,141.5,135.5,150.0,129.0,158.5,124.0,166.5,121.5,175.0,119.5,183.0,117.5,191.5,116.5,189.5,125.5,184.0,133.0,168.5,141.5,156.0,149.0,146.0,157.5,136.0,165.5,126.0,173.5,117.5,182.0,108.5,190.0,104.5,198.0,110.5,188.0,118.0,181.0,126.0,174.0,134.0,168.0,142.0,161.0,150.0,155.0,157.5,149.0,165.0,143.0,173.0,139.0,180.5,135.5,188.5,130.5" stroke="black" stroke-width="2" fill="none" />
<polyline points="195.5,137.5,187.5,142.0,194.0,138.0,188.0,144.0" stroke="black" stroke-width="2" fill="none" />
<polyline points="186.5,114.5,195.5,107.0,204.0,99.0" stroke="black" stroke-width="2" fill="none" />
<polyline points="197.0,82.5,189.5,82.5,181.5,83.0,173.0,83.5,165.0,83.5" stroke="black" stroke-width="2" fill="none" />
<polyline points="171.0,88.0,179.0,88.0,186.5,88.0" stroke="black" stroke-width="2" fill="none" />
<polyline points="179.0,83.5,171.0,91.0" stroke="black" stroke-width="2" fill="none" />
<polyline points="171.0,76.5,179.0,76.0,187.5,76.0,196.0,75.5" stroke="black" stroke-width="2" fill="none" />
<polyline points="205.0,106.0,197.0,106.0,189.0,106.5,180.5,107.0,172.5,107.5,164.0,108.0,156.5,109.0,148.5,110.0,141.0,111.0" stroke="black" stroke-width="2" fill="none" />
<polyline points="144.0,106.0,152.0,96.5,159.5,88.5,167.5,83.5,175.5,80.5,183.5,77.5,191.5,81.5,192.5,84.5,191.5,92.5,188.0,95.0" stroke="black" stroke-width="2" fill="none" />
<polyline points="156.5,99.0,148.5,106.5" stroke="black" stroke-width="2" fill="none" />
<polyline points="147.5,112.5,155.5,112.0,163.5,112.0,171.5,111.5,179.5,111.5,187.5,111.0,195.0,111.0" stroke="black" stroke-width="2" fill="none" />
<polyline points="223.5,93.0,216.5,100.5,214.5,108.5,209.5,116.0,206.5,118.5,214.0,102.5,222.0,92.0,230.0,90.5,238.5,93.5" stroke="black" stroke-width="2" fill="none" />
<polyline points="157.5,108.0,149.5,115.5" stroke="black" stroke-width="2" fill="none" />
<polyline points="155.5,116.0,150.5,129.0,141.5,137.0,130.0,145.0,116.0,153.0,101.5,161.0,87.5,169.0,74.0,177.0" stroke="black" stroke-width="2" fill="none" />
<polyline points="67.0,182.0,59.0,183.0" stroke="black" stroke-width="2" fill="none" />
<polyline points="59.0,177.5,67.0,177.5" stroke="black" stroke-width="2" fill="none" />
<polyline points="103.0,196.5,111.0,197.5,119.0,194.5,127.0,189.5,135.0,185.5,143.0,180.5,151.0,175.5,158.5,170.5,166.5,165.5,174.5,160.5,183.0,155.0,190.5,149.5,198.5,143.0,206.5,138.0,215.0,135.0,223.5,132.5,231.5,130.5,239.5,127.5,243.5,125.0" stroke="black" stroke-width="2" fill="none" />
<polyline points="156.0,92.5,148.5,92.5" stroke="black" stroke-width="2" fill="none" />
<polyline points="156.0,101.5,148.5,102.0,140.5,103.0" stroke="black" stroke-width="2" fill="none" />
<polyline points="13.5,67.5,5.5,68.0" stroke="black" stroke-width="2" fill="none" />
<polyline points="5.0,61.0,13.0,61.0,20.5,60.5,28.5,60.0" stroke="black" stroke-width="2" fill="none" />
<polyline points="37.5,50.5,29.5,50.5,21.5,50.5,13.5,50.5,5.5,51.5" stroke="black" stroke-width="2" fill="none" />
<polyline points="4.0,45.0,12.5,44.5,20.0,44.5,28.0,43.5,35.5,43.0,43.5,42.0,51.5,42.0,60.0,41.5" stroke="black" stroke-width="2" fill="none" />
<polyline points="68.0,32.5,60.5,33.5,53.0,34.0,45.0,34.5,36.0,35.0,28.0,36.0,19.5,37.0,11.0,37.5,2.5,38.5" stroke="black" stroke-width="2" fill="none" />
<polyline points="2.5,29.5,10.0,28.5,19.0,28.5,27.5,28.0,36.0,27.0,44.5,26.0,52.5,25.5,60.0,25.0,68.5,24.5,76.5,24.0,84.5,23.5,92.0,23.5" stroke="black" stroke-width="2" fill="none" />
<polyline points="116.5,12.5,108.5,13.0,100.5,13.5,92.5,14.5,85.0,15.0,76.5,15.5,68.5,16.0,60.0,16.0,51.5,17.0,43.0,17.5,35.0,18.5,27.0,18.5,19.0,19.5,11.5,20.5,3.5,21.5" stroke="black" stroke-width="2" fill="none" />
<polyline points="2.5,14.5,10.0,14.0,18.0,13.0,26.5,12.0,34.5,10.5,43.0,9.5,51.5,9.0,59.5,9.0,68.0,8.5,76.5,9.0,85.0,8.5,92.5,8.0,100.5,7.0,108.0,6.0,116.5,5.0,124.0,4.5,132.0,4.5" stroke="black" stroke-width="2" fill="none" />
<polyline points="165.5,-2.5,157.5,-2.0,149.5,-1.5,141.5,-1.0,133.0,-1.0,125.0,-0.5,117.0,-0.5,108.5,-0.5,101.0,0.0,94.0,-0.5,86.5,-0.5,78.5,0.0,70.0,1.0,61.5,1.5,52.5,2.5,43.5,3.0,35.0,4.0,27.0,5.0,18.5,6.0,11.0,7.0,3.0,7.5" stroke="black" stroke-width="2" fill="none" />
</svg>