<svg xmlns="http://www.w3.org/2000/svg" version="1.1" width="714" height="1420"><polyline points="345.0,84.5,347.0,92.5,347.0,100.0,348.0,108.0,348.5,116.5,348.5,124.5,348.0,132.5,348.5,141.0,347.5,149.5,348.0,158.0,348.0,166.5,348.0,174.5,348.5,181.5,349.0,189.5,348.5,197.0,348.5,205.0,348.0,213.0,349.0,220.5,348.5,228.5,348.5,236.0,348.5,244.0,348.5,252.0,349.0,260.5,349.0,269.0,349.5,277.5,349.5,286.0,349.5,294.0,349.0,301.5,349.0,309.5,349.0,317.5,350.0,325.5,349.0,333.5,349.5,341.5,349.5,349.5,350.0,357.5,350.0,365.0,350.0,372.5,350.5,380.5,351.0,388.0,351.0,396.0,351.5,404.5,351.5,412.5,351.0,420.5,351.0,429.0,350.5,437.0,350.5,445.5,350.0,453.5,349.5,462.0,349.0,470.0,348.5,478.5,348.5,487.0,349.5,494.5,349.5,502.0,350.0,510.0,350.0,518.0,350.0,526.0,350.0,533.5,350.0,541.5,350.0,549.5,350.5,557.5,350.5,565.5,350.5,573.5,350.5,581.0,350.5,589.0,349.5,596.5,350.5,604.0,349.5,612.0,350.0,620.5,349.0,628.5,350.0,636.5,350.0,644.5,350.5,652.5,349.5,660.5,351.0,669.0,351.0,677.0,351.5,686.0,350.5,694.0,350.5,702.0" stroke="black" stroke-width="2" fill="none" />
<polyline points="346.0,700.0,338.5,707.5" stroke="black" stroke-width="2" fill="none" />
<polyline points="330.0,707.5,338.0,699.5,346.0,692.0" stroke="black" stroke-width="2" fill="none" />
<polyline points="348.5,689.0,341.0,689.5" stroke="black" stroke-width="2" fill="none" />
<polyline points="341.5,683.0,349.0,682.0" stroke="black" stroke-width="2" fill="none" />
<polyline points="346.0,683.5,338.0,691.5,330.0,699.0,322.0,706.5" stroke="black" stroke-width="2" fill="none" />
<polyline points="315.0,706.0,322.5,698.0,330.0,690.5,337.5,682.5,346.0,675.0" stroke="black" stroke-width="2" fill="none" />
<polyline points="348.5,667.5,340.0,675.0,332.0,682.0,324.0,689.5,315.5,697.5,308.0,705.5" stroke="black" stroke-width="2" fill="none" />
<polyline points="300.0,704.5,308.0,697.0,316.0,689.0,324.5,681.5,333.0,674.5,341.5,667.0,350.0,659.5" stroke="black" stroke-width="2" fill="none" />
<polyline points="348.0,651.5,340.0,659.0,331.5,667.0,324.0,675.0,316.0,683.0,308.0,691.0,300.0,698.5,292.0,705.5" stroke="black" stroke-width="2" fill="none" />
<polyline points="283.5,704.0,291.5,696.5,300.0,689.0,307.5,681.5,315.0,674.0,322.5,666.5,330.5,659.0,338.5,651.0,346.0,644.0" stroke="black" stroke-width="2" fill="none" />
<polyline points="347.5,634.5,339.5,642.5,331.5,651.0,324.0,658.5,316.5,666.5,308.0,674.0,300.5,681.5,292.5,689.0,284.5,696.5,277.0,704.0" stroke="black" stroke-width="2" fill="none" />
<polyline points="267.5,702.5,275.5,695.5,283.5,688.0,292.0,681.0,300.0,673.5,308.5,666.5,316.5,658.5,325.0,651.0,333.0,644.0,340.5,636.5,348.5,629.0" stroke="black" stroke-width="2" fill="none" />
<polyline points="350.0,620.0,342.0,627.5,334.0,635.5,325.5,643.0,317.0,651.0,308.5,658.5,300.0,665.5,291.5,672.5,283.5,680.0,275.5,687.0,267.5,694.5,259.5,702.0" stroke="black" stroke-width="2" fill="none" />
<polyline points="250.5,700.0,258.0,692.5,266.0,685.0,274.5,677.5,283.5,670.5,292.0,663.0,300.5,655.5,308.5,648.0,317.0,641.0,326.0,634.0,334.0,627.5,342.0,621.0,350.0,613.5" stroke="black" stroke-width="2" fill="none" />
<polyline points="349.5,605.5,341.5,612.5,333.5,620.0,325.0,627.5,316.5,634.5,308.5,641.5,300.0,649.0,291.5,656.5,282.5,663.5,274.0,671.0,266.0,678.5,258.0,685.5,250.5,693.0" stroke="black" stroke-width="2" fill="none" />
<polyline points="251.0,689.5,250.5,697.5,251.0,705.0" stroke="black" stroke-width="2" fill="none" />
<polyline points="253.5,703.5,253.5,695.5,252.0,688.0" stroke="black" stroke-width="2" fill="none" />
<polyline points="252.5,687.0,261.0,679.5,269.5,672.5,277.0,665.0,284.0,657.0,292.0,649.0,299.5,641.0,307.0,633.5,315.5,626.5,323.5,619.0,331.5,612.0,340.0,605.0,348.0,597.5" stroke="black" stroke-width="2" fill="none" />
<polyline points="348.0,587.5,340.0,595.0,332.0,603.0,324.0,610.5,316.0,618.0,307.5,626.0,299.5,634.0,291.0,641.5,282.0,649.0,274.0,657.0,266.0,664.0,257.5,671.5,250.0,678.5,242.5,686.0" stroke="black" stroke-width="2" fill="none" />
<polyline points="227.0,693.5,234.5,686.0,242.5,678.5,250.5,670.5,258.0,663.0,266.0,655.0,274.5,647.5,282.5,639.5,290.0,632.0,298.0,624.5,306.0,617.0,315.0,609.0,323.5,601.5,332.5,593.5,341.5,585.5,350.0,578.0" stroke="black" stroke-width="2" fill="none" />
<polyline points="347.0,569.5,339.0,577.0,331.5,584.5,323.5,592.0,315.5,600.5,307.0,608.5,299.0,616.0,290.5,624.0,282.5,632.0,275.0,640.0,267.0,647.5,259.0,655.0,251.0,662.5,243.0,670.0,235.0,677.5,227.0,685.5,219.5,692.5" stroke="black" stroke-width="2" fill="none" />
<polyline points="211.0,691.0,218.5,683.5,226.0,676.0,234.5,669.0,243.0,661.5,251.0,654.5,259.0,647.5,266.5,640.0,274.5,632.5,282.5,624.5,290.5,616.5,298.0,608.5,306.5,600.5,314.5,593.0,322.5,585.5,330.5,578.0,339.0,570.0,347.5,562.5" stroke="black" stroke-width="2" fill="none" />
<polyline points="346.0,554.5,338.5,562.5,330.0,570.0,322.0,577.5,314.0,585.0,306.5,593.0,298.5,600.5,290.0,608.5,282.0,616.5,273.5,624.0,265.5,631.5,257.5,639.0,250.0,646.5,242.5,654.5,235.5,661.5,228.0,669.0,220.0,676.5,211.5,684.0,203.0,691.5" stroke="black" stroke-width="2" fill="none" />
<polyline points="212.0,681.5,220.0,681.0" stroke="black" stroke-width="2" fill="none" />
<polyline points="212.0,672.5,220.0,672.5,227.5,672.0" stroke="black" stroke-width="2" fill="none" />
<polyline points="226.5,663.0,238.0,671.5" stroke="black" stroke-width="2" fill="none" />
<polyline points="236.0,664.5,227.5,665.0,219.0,665.0,211.0,666.0" stroke="black" stroke-width="2" fill="none" />
<polyline points="206.0,671.0,198.0,672.0,190.5,673.0" stroke="black" stroke-width="2" fill="none" />
<polyline points="189.0,679.0,197.0,678.5,204.5,678.5" stroke="black" stroke-width="2" fill="none" />
<polyline points="187.0,694.5,179.0,695.5,170.5,695.5" stroke="black" stroke-width="2" fill="none" />
<polyline points="169.5,697.0,177.0,689.5,185.0,682.0,193.0,674.5,201.5,667.0,209.5,659.5,217.5,652.0,225.5,644.5,233.5,636.5,242.0,628.5,250.0,620.5,258.0,613.0,265.5,605.0,274.0,597.5,282.0,590.0,290.5,583.0,300.0,576.0,308.0,568.0,316.5,560.5,324.5,552.5,332.5,544.5,340.0,536.5,347.5,529.0" stroke="black" stroke-width="2" fill="none" />
<polyline points="347.5,522.5,340.0,530.0,331.5,538.0,323.5,546.0,315.0,553.5,307.0,561.5,299.5,569.0,291.0,576.5,283.0,584.5,275.5,592.0,267.0,599.5,259.0,607.0,251.5,614.0,243.0,621.0,234.5,627.5,226.5,635.0,218.5,642.5,210.5,650.0,202.0,658.0,194.0,665.5,185.5,673.0,177.5,681.0,169.5,688.5" stroke="black" stroke-width="2" fill="none" />
<polyline points="171.5,691.5,179.5,691.5,187.5,691.0,195.5,691.0,204.0,691.0,212.0,691.0,220.0,691.0,228.0,690.5,236.0,690.5,244.0,690.5,251.5,689.5,260.0,689.0,268.0,688.0,276.0,687.0,284.0,686.0,292.0,685.5,300.0,685.0,308.5,684.5,316.5,684.0,324.5,683.5,332.5,683.0,341.0,682.5,349.0,681.5,356.5,680.5" stroke="black" stroke-width="2" fill="none" />
<polyline points="347.5,697.5,340.0,698.5" stroke="black" stroke-width="2" fill="none" />
<polyline points="330.5,673.0,322.0,674.0,314.0,674.5" stroke="black" stroke-width="2" fill="none" />
<polyline points="311.5,671.0,309.5,679.0" stroke="black" stroke-width="2" fill="none" />
<polyline points="315.0,664.0,307.5,664.5,299.5,664.5,291.0,664.5" stroke="black" stroke-width="2" fill="none" />
<polyline points="289.0,660.0,297.5,659.0,306.0,657.5,314.5,656.5" stroke="black" stroke-width="2" fill="none" />
<polyline points="315.5,648.5,307.5,649.0,299.0,649.5,291.5,650.0,283.5,651.0" stroke="black" stroke-width="2" fill="none" />
<polyline points="285.5,655.5,278.0,656.0" stroke="black" stroke-width="2" fill="none" />
<polyline points="278.0,640.5,286.0,640.0,293.0,640.0,301.0,639.5,309.5,638.5,317.0,637.5" stroke="black" stroke-width="2" fill="none" />
<polyline points="316.5,636.0,318.5,644.0,320.0,652.0,322.0,660.0" stroke="black" stroke-width="2" fill="none" />
<polyline points="328.5,675.5,330.0,667.0,331.0,658.5,331.0,650.0,333.5,642.0,332.5,644.0" stroke="black" stroke-width="2" fill="none" />
<polyline points="333.5,633.5,341.5,633.0" stroke="black" stroke-width="2" fill="none" />
<polyline points="341.5,626.0,333.5,626.0" stroke="black" stroke-width="2" fill="none" />
<polyline points="325.5,617.5,333.5,617.0,340.5,616.5" stroke="black" stroke-width="2" fill="none" />
<polyline points="346.5,547.0,338.5,554.5,330.5,562.0,322.0,570.0,314.0,577.5,306.5,585.0,298.0,593.0,290.0,600.5,282.5,608.5,275.0,616.5,267.5,624.0,259.0,631.0,250.5,638.5,242.5,646.0,235.5,653.0,228.0,661.0,219.5,668.5,211.5,676.0,203.5,683.5,195.5,690.5,187.5,698.0" stroke="black" stroke-width="2" fill="none" />
<polyline points="180.0,697.5,188.0,690.5,195.5,683.0,203.5,675.5,210.5,668.0,218.0,660.5,226.0,653.0,233.5,645.0,241.5,637.5,250.0,630.0,258.5,622.5,266.5,614.5,274.5,607.0,283.0,599.0,291.0,591.5,299.5,584.5,308.0,577.0,316.0,569.0,324.0,561.5,332.0,554.0,340.0,546.5,348.0,539.0" stroke="black" stroke-width="2" fill="none" />
<polyline points="347.5,516.5,339.5,524.0,331.5,531.5,323.0,539.5,314.5,547.0,306.5,555.0,299.0,562.0,291.5,569.5,284.0,576.5,276.5,583.5,269.0,590.5,261.0,598.0,252.5,605.0,244.0,612.5,236.0,620.0,228.0,627.5,219.5,635.0,211.5,643.0,203.0,650.5,195.0,658.0,187.0,665.5,179.0,673.5,171.0,680.5" stroke="black" stroke-width="2" fill="none" />
<polyline points="172.0,683.0,179.5,682.5,188.0,683.0,196.5,683.5,204.5,683.5,213.0,683.5,221.0,683.5,228.5,683.0,237.0,682.5,245.5,682.0,253.5,681.5,261.5,681.0,269.0,680.5,277.0,680.0,284.5,679.0,292.0,678.5,300.5,677.5,309.0,677.0,317.5,676.5,325.5,675.5,333.5,675.0,341.5,674.5,349.5,674.5,356.5,674.0" stroke="black" stroke-width="2" fill="none" />
<polyline points="315.0,631.5,307.5,632.0,299.5,633.0,291.5,633.5,283.5,633.5,275.5,633.5,267.5,633.5" stroke="black" stroke-width="2" fill="none" />
<polyline points="267.5,626.5,275.5,626.0,283.0,625.0,291.0,624.0,299.5,622.5,307.5,621.5,315.0,620.5" stroke="black" stroke-width="2" fill="none" />
<polyline points="315.5,614.0,308.0,614.5,300.5,615.5,292.5,616.0,285.0,616.5,276.5,617.5,268.5,618.0" stroke="black" stroke-width="2" fill="none" />
<polyline points="267.0,609.5,275.0,609.0,282.5,608.5,290.5,608.0,298.0,607.5,306.0,607.0,314.0,606.0,322.0,606.0,330.0,605.0,338.0,604.5" stroke="black" stroke-width="2" fill="none" />
<polyline points="325.0,538.0,333.0,538.0,341.0,537.5,349.5,536.5" stroke="black" stroke-width="2" fill="none" />
<polyline points="348.5,508.5,340.0,516.0,331.5,523.5,323.0,531.0,315.0,538.0,306.5,545.0,299.0,553.0,291.0,561.0,283.5,568.5,276.0,576.0,267.5,583.5,260.0,591.0,252.0,598.0,244.0,605.5,236.5,613.0,228.5,620.0,220.5,627.5,211.5,635.0,203.0,642.0,194.5,649.5,185.5,657.0,177.5,664.5,170.0,672.0" stroke="black" stroke-width="2" fill="none" />
<polyline points="170.0,669.0,178.0,668.5,187.0,668.5,195.0,667.5,203.0,666.0,211.5,665.5,219.0,665.0,227.0,664.5,234.5,664.0,242.0,663.5,249.5,663.5,258.0,663.0,266.5,662.5,275.0,662.0,283.5,662.0,292.0,662.0,299.5,661.5,307.5,662.0,315.5,662.0,323.5,661.5,331.5,661.0,339.5,660.5,347.0,660.0,355.0,659.5" stroke="black" stroke-width="2" fill="none" />
<polyline points="356.0,690.5,347.5,691.0,339.5,691.5,331.5,691.5,323.5,692.0,315.5,693.0,307.5,694.0,300.0,694.5,291.5,695.0,284.0,695.0,275.5,695.0,267.5,695.5,260.5,696.0,252.5,696.5,244.5,697.5,236.0,698.0,228.0,698.5,220.0,698.5,212.0,699.0,203.5,699.5,195.0,700.0,187.0,700.5,179.5,701.0,171.5,701.5" stroke="black" stroke-width="2" fill="none" />
<polyline points="179.0,683.0,180.0,691.0,176.5,696.0,178.5,697.0,186.5,697.0,195.5,700.0" stroke="black" stroke-width="2" fill="none" />
<polyline points="171.0,675.5,178.5,675.0,186.0,675.0,194.0,675.0,202.0,675.0,210.0,675.5,218.5,675.0,226.5,675.0,234.5,674.5,243.0,674.0,251.0,673.5,259.5,673.0,267.5,672.0,276.0,671.0,284.0,669.5,292.5,669.0,300.5,668.5,309.0,668.5,317.0,668.5,324.5,669.0,332.0,668.5,340.5,668.0,348.5,667.0,356.0,666.0" stroke="black" stroke-width="2" fill="none" />
<polyline points="354.5,649.5,346.5,650.0,337.5,650.5,329.5,651.0,322.0,651.5,314.0,652.5,306.0,653.0,298.5,653.5,290.5,654.0,282.5,654.5,274.5,655.5,267.0,656.0,259.5,656.5,252.0,657.0,244.0,657.5,235.5,658.5,226.5,658.5,218.5,658.5,210.0,658.5,202.0,659.0,194.0,659.5,186.5,660.5,179.0,661.0,171.0,661.5" stroke="black" stroke-width="2" fill="none" />
<polyline points="171.5,665.0,180.5,657.5,188.5,649.5,196.5,642.0,203.5,634.0,211.0,626.5,219.0,619.0,226.5,611.5,234.5,605.0,242.5,597.5,250.5,590.5,258.5,583.5,266.5,576.0,274.5,568.5,283.0,561.0,291.0,553.5,298.5,546.5,306.5,539.5,315.0,531.5,323.5,523.5,331.5,516.0,339.5,508.5,347.0,502.0" stroke="black" stroke-width="2" fill="none" />
<polyline points="348.0,491.5,340.0,499.0,332.0,506.5,324.5,514.0,316.5,521.5,308.5,529.0,300.5,536.5,293.0,544.5,284.5,552.5,276.0,560.5,268.0,568.0,260.0,575.0,252.0,582.5,244.0,589.5,236.0,596.5,228.0,604.0,220.5,611.0,212.5,618.0,204.0,625.5,195.5,632.5,187.0,640.0,179.0,647.5,171.5,655.5" stroke="black" stroke-width="2" fill="none" />
<polyline points="168.5,656.0,177.0,655.5,185.5,655.0,194.0,653.5,202.5,652.5,210.5,652.0,219.0,651.5,227.0,651.5,235.5,651.5,244.0,651.0,252.5,650.5,260.5,650.0,268.0,649.0,275.5,648.0,283.5,647.0,291.0,646.0,299.0,646.0,307.0,645.5,315.0,645.0,323.0,645.0,330.5,644.0,338.5,643.5,347.0,642.5,355.0,642.0" stroke="black" stroke-width="2" fill="none" />
<polyline points="348.5,574.5,340.0,575.0,332.5,575.0,324.0,574.5,315.5,574.5,307.5,575.0,299.0,575.5,291.5,575.5,283.5,576.0,276.0,576.5,268.5,577.0,260.5,577.5" stroke="black" stroke-width="2" fill="none" />
<polyline points="251.0,573.5,243.5,574.5,235.5,575.0,228.0,575.5,220.0,576.0,212.5,577.0,204.5,577.5,196.0,578.5" stroke="black" stroke-width="2" fill="none" />
<polyline points="193.0,581.5,192.0,589.5,192.5,581.0" stroke="black" stroke-width="2" fill="none" />
<polyline points="194.0,584.5,202.5,584.0,211.0,583.5,219.5,582.5,228.0,582.0,236.0,582.0,244.0,581.5,252.0,580.5,260.0,580.5,268.0,580.0,276.0,579.5,284.0,579.5,291.5,579.0,299.0,579.0,307.0,579.0,315.5,579.5,323.5,579.5,331.5,578.5" stroke="black" stroke-width="2" fill="none" />
<polyline points="341.0,586.0,332.0,586.0,324.0,586.0,315.5,587.0,307.0,587.5,298.5,588.5,290.0,589.0,282.0,589.0,274.0,590.5,266.5,591.5,258.5,592.0,250.5,592.0,242.5,592.5,234.5,593.0,227.0,593.5,219.0,594.0,211.5,594.5,203.5,595.0" stroke="black" stroke-width="2" fill="none" />
<polyline points="197.0,601.5,204.5,601.0,212.5,600.5,220.5,600.0,228.5,600.0,237.0,599.5,245.0,599.0,252.0,598.5,260.0,597.5,268.0,597.0,276.0,596.5,284.0,596.0,291.5,595.0,299.5,594.5,307.5,594.0,315.5,593.5,324.0,593.0,332.0,592.5,340.0,592.0" stroke="black" stroke-width="2" fill="none" />
<polyline points="347.5,559.0,339.5,559.5,332.0,560.5,324.0,561.5,316.5,562.5,308.0,563.5,300.0,564.5,291.5,565.5,283.5,566.0,275.5,566.5,267.0,567.0,258.5,568.0,250.5,568.5,242.5,569.0,234.0,569.0,226.5,569.0,219.0,568.5,211.5,568.5,204.0,568.5,196.0,568.5" stroke="black" stroke-width="2" fill="none" />
<polyline points="196.5,561.5,204.5,561.0,211.5,560.5,219.5,560.0,228.0,560.0,235.5,560.0,244.0,559.5,251.5,559.0,259.5,558.0,267.5,557.0,275.5,556.5,283.5,556.5,291.5,556.0,300.0,555.5,308.0,555.0,316.5,554.5,324.5,553.5,332.5,552.5,340.5,551.5,348.0,551.0" stroke="black" stroke-width="2" fill="none" />
<polyline points="349.5,512.0,341.0,512.5,333.0,513.0,325.0,513.5" stroke="black" stroke-width="2" fill="none" />
<polyline points="348.0,481.0,340.0,489.0,332.0,497.0,324.0,505.0,316.5,513.0,309.0,521.0,301.0,528.5,294.0,535.5,286.0,542.5,277.5,550.0,269.5,557.5,262.0,565.0,254.0,573.0,245.5,580.5,236.5,587.5,228.0,595.0,220.0,602.0,212.5,609.5,204.0,617.0,195.5,625.0,187.0,633.0,179.0,640.0,171.0,647.5" stroke="black" stroke-width="2" fill="none" />
<polyline points="170.0,647.5,178.5,646.5,186.0,645.5,194.0,644.5,202.0,644.0,210.5,643.5,219.0,643.5,228.0,643.0,236.5,643.0,245.0,643.0,253.0,642.5,261.0,642.0,269.0,640.5,276.5,639.5,284.0,638.5,291.0,638.0,299.0,638.0,306.0,638.0,313.5,638.0,321.5,637.5,329.0,637.0,337.0,636.5,345.5,636.0,354.0,635.0" stroke="black" stroke-width="2" fill="none" />
<polyline points="354.5,626.5,346.0,626.5,337.5,626.5,329.5,627.5,322.0,628.0,314.0,628.5,306.5,629.5,299.0,630.0,292.0,630.0,284.0,631.0,276.5,631.5,269.0,631.5,261.0,632.0,253.5,632.0,245.0,633.0,236.5,634.0,228.5,635.0,220.5,636.0,212.0,636.5,204.0,638.0,196.0,638.5,187.5,639.0,179.5,639.5,171.5,640.0" stroke="black" stroke-width="2" fill="none" />
<polyline points="172.0,639.0,180.0,631.0,188.5,623.5,196.0,616.0,203.5,608.5,211.5,601.5,219.0,594.0,227.0,587.0,235.5,579.5,244.0,572.0,252.5,565.0,260.5,557.5,269.0,549.5,277.0,542.5,285.5,535.5,293.0,528.0,301.0,520.5,309.0,513.5,316.5,505.5,324.0,498.5,331.5,491.0,339.0,483.5,347.0,475.5" stroke="black" stroke-width="2" fill="none" />
<polyline points="347.0,469.5,339.0,477.5,331.0,484.5,323.0,491.5,315.0,498.5,307.5,505.5,299.5,513.0,291.5,519.5,284.0,526.5,275.5,533.5,267.5,540.5,259.5,548.5,252.0,556.5,244.5,564.5,237.0,572.0,229.0,579.5,221.0,586.5,212.5,594.0,204.0,601.5,195.5,608.5,188.0,615.5,179.5,623.0,171.0,631.0" stroke="black" stroke-width="2" fill="none" />
<polyline points="164.5,631.5,172.0,630.5,180.0,630.0,187.5,629.5,195.5,628.5,203.5,628.0,211.5,627.5,219.5,627.0,227.5,626.0,235.0,625.5,243.5,624.5,251.5,624.5,259.0,624.0,267.0,623.0,275.0,622.5,283.0,621.0,290.5,621.0,298.5,620.5,307.0,620.0,315.0,619.5,323.5,619.0,331.5,618.5,339.0,617.5,347.5,617.0,356.0,617.0" stroke="black" stroke-width="2" fill="none" />
<polyline points="348.5,543.5,340.5,545.0,332.5,545.5,325.0,545.5,317.0,545.5,309.0,546.0,301.0,546.5,292.5,546.5,284.5,546.0,276.5,546.5,268.0,547.0,260.0,548.0,252.5,549.0,245.0,550.0,236.5,550.5,229.0,551.0,221.0,551.0,213.0,552.0,204.5,552.5,196.5,553.0" stroke="black" stroke-width="2" fill="none" />
<polyline points="195.5,546.5,204.0,546.0,212.0,545.0,220.0,544.0,228.0,543.0,236.0,542.5,244.0,542.0,252.5,541.5,260.5,541.0,268.5,540.5,276.5,540.0,285.0,539.5,293.0,538.5,300.5,537.5,308.5,537.5,315.5,537.0,323.5,537.0,331.5,536.5,339.0,536.5,347.5,536.0" stroke="black" stroke-width="2" fill="none" />
<polyline points="349.0,471.0,341.0,471.0,333.0,471.5,325.0,472.0" stroke="black" stroke-width="2" fill="none" />
<polyline points="314.0,466.5,322.0,465.5,330.5,465.5,338.5,465.0,346.5,465.0" stroke="black" stroke-width="2" fill="none" />
<polyline points="347.5,461.0,339.5,468.0,331.0,475.0,323.0,482.0,315.5,489.5,307.0,497.0,299.0,504.5,291.0,512.5,283.0,520.0,275.0,527.5,267.0,535.0,259.0,542.5,251.0,550.0,242.5,557.5,234.5,565.0,227.0,572.0,219.0,579.5,211.0,586.0,204.0,593.5,197.0,601.0,189.5,608.0,181.5,615.5,173.0,623.0" stroke="black" stroke-width="2" fill="none" />
<polyline points="174.0,619.5,174.5,627.5,175.0,635.5,173.0,643.5" stroke="black" stroke-width="2" fill="none" />
<polyline points="165.0,623.0,173.0,622.0,181.5,621.5,189.0,621.0,196.5,620.5,204.5,620.5,212.0,620.0,220.0,619.5,228.0,618.5,235.5,617.5,243.0,616.5,251.5,616.5,260.0,616.0,268.0,615.5,276.5,614.5,285.0,614.0,293.0,613.0,301.0,612.5,309.0,612.0,317.5,611.5,326.0,611.5,333.5,610.5,341.0,609.5,348.5,610.0,357.0,610.5" stroke="black" stroke-width="2" fill="none" />
<polyline points="356.5,602.0,348.5,602.5,341.0,603.0,334.0,603.0,326.5,603.5,317.5,604.0,309.5,604.0,301.0,604.5,292.5,605.0,285.0,606.0,276.5,606.5,268.0,607.5,259.0,608.0,250.5,609.0,242.0,610.0,234.5,610.0,227.0,610.5,219.5,610.5,211.5,610.5,204.0,610.5,196.5,610.5,188.5,611.0,180.5,611.5,171.5,612.0,164.0,613.0" stroke="black" stroke-width="2" fill="none" />
<polyline points="172.0,609.0,180.5,601.5,188.5,594.0,197.0,586.5,204.5,578.5,212.5,571.5,220.5,564.0,228.0,557.0,235.5,549.5,243.0,542.0,250.5,534.0,258.5,526.5,266.0,519.0,274.0,511.5,282.0,503.0,290.0,495.5,298.5,488.0,306.5,480.0,315.5,472.5,324.5,465.0,333.0,457.5,341.0,449.5,349.0,442.5" stroke="black" stroke-width="2" fill="none" />
<polyline points="350.0,451.0,342.0,458.5,333.5,466.0,325.0,473.5,317.0,481.0,308.5,489.0,299.5,497.0,290.0,505.0,281.5,513.0,273.0,520.5,264.5,528.0,257.0,535.0,250.0,542.0,243.0,549.5,235.5,556.5,228.0,563.5,220.5,571.5,213.0,579.0,205.0,586.0,197.0,593.5,189.0,601.0,181.0,608.5,173.0,615.5" stroke="black" stroke-width="2" fill="none" />
<polyline points="180.0,619.5,179.0,627.5,179.0,636.0,177.0,642.0,177.0,650.0,178.0,658.0,179.0,666.0,182.0,673.0,182.0,681.5,181.5,689.5,187.0,701.5,194.5,702.5" stroke="black" stroke-width="2" fill="none" />
<polyline points="191.0,662.0,189.5,654.0,188.5,646.5,188.0,638.5,190.5,628.0,191.5,620.5,188.5,607.0,191.5,599.0,189.5,601.0" stroke="black" stroke-width="2" fill="none" />
<polyline points="197.5,610.5,205.5,610.0,213.0,609.5,220.5,609.0,229.0,608.5,237.0,608.0,244.5,606.5,252.0,605.5,260.0,605.0" stroke="black" stroke-width="2" fill="none" />
<polyline points="250.5,614.5,243.0,615.0,235.5,615.5,228.0,616.0,220.5,617.0,212.5,618.0,204.0,618.5" stroke="black" stroke-width="2" fill="none" />
<polyline points="205.5,625.0,213.5,624.5,221.5,624.5,228.5,624.0,235.5,623.5,243.0,622.5,251.0,622.0" stroke="black" stroke-width="2" fill="none" />
<polyline points="249.0,651.5,257.0,651.0" stroke="black" stroke-width="2" fill="none" />
<polyline points="277.5,675.0,285.5,674.5" stroke="black" stroke-width="2" fill="none" />
<polyline points="290.0,669.5,284.5,673.5,292.0,669.5,299.5,674.5" stroke="black" stroke-width="2" fill="none" />
<polyline points="292.0,670.5,302.5,678.5,311.5,673.5" stroke="black" stroke-width="2" fill="none" />
<polyline points="236.0,649.5,227.5,650.5,219.5,651.0,211.5,651.5" stroke="black" stroke-width="2" fill="none" />
<polyline points="211.5,641.5,219.5,641.5,227.5,641.0,236.0,640.5,244.0,640.0,252.5,639.5,260.5,638.5" stroke="black" stroke-width="2" fill="none" />
<polyline points="251.5,630.0,243.5,630.0,236.5,630.5,228.5,630.5,221.0,631.5,213.0,632.5,204.5,633.0" stroke="black" stroke-width="2" fill="none" />
<polyline points="196.0,626.0,196.0,617.5,190.0,618.5" stroke="black" stroke-width="2" fill="none" />
<polyline points="171.5,601.5,179.5,593.5,187.0,586.0,195.5,578.5,204.0,571.5,212.0,564.0,219.5,557.0,227.0,549.5,235.0,542.0,242.5,534.5,250.0,526.5,258.0,518.5,266.0,511.0,274.0,503.5,282.0,496.5,290.5,489.0,299.5,481.0,308.0,472.5,316.0,465.0,323.0,457.5,331.0,449.5,338.5,441.5,347.0,433.5" stroke="black" stroke-width="2" fill="none" />
<polyline points="349.5,427.0,341.5,435.0,333.0,442.0,324.0,449.5,315.5,457.5,307.0,465.0,299.0,473.0,290.5,480.5,282.0,488.0,274.0,495.5,266.0,502.5,258.0,510.5,250.0,518.0,242.0,525.5,234.0,533.0,226.0,540.5,218.5,548.0,211.0,556.0,203.5,563.5,196.5,571.0,189.0,578.5,180.5,586.0,172.0,593.5" stroke="black" stroke-width="2" fill="none" />
<polyline points="172.0,585.5,180.5,577.5,189.0,570.0,196.5,562.5,204.0,555.0,211.5,547.5,219.5,540.0,228.0,532.5,235.0,525.0,242.5,517.0,250.0,509.5,257.5,501.5,266.0,494.0,273.5,487.0,282.0,479.5,290.5,472.0,299.5,465.0,307.5,458.0,316.0,450.5,324.5,443.0,333.0,435.5,341.0,428.0,349.0,420.5" stroke="black" stroke-width="2" fill="none" />
<polyline points="349.5,411.0,342.0,418.5,334.0,425.5,326.0,433.5,317.5,441.5,309.0,449.5,301.0,456.5,293.0,464.5,284.5,471.5,276.5,479.0,268.5,486.5,260.0,494.0,252.0,501.0,244.0,508.5,235.5,516.5,228.0,524.5,220.0,532.0,211.5,540.0,203.0,547.5,195.0,555.0,187.5,563.0,179.5,570.5,172.0,578.0" stroke="black" stroke-width="2" fill="none" />
<polyline points="172.0,570.0,179.5,562.5,188.0,555.5,196.0,547.5,204.5,539.5,212.5,531.5,220.0,523.5,228.0,516.0,236.0,508.0,244.5,500.5,253.0,493.5,261.5,486.0,270.0,478.5,278.0,471.0,285.5,463.0,293.0,455.0,300.5,447.0,308.5,439.0,316.5,432.0,324.5,424.5,332.5,417.0,340.5,410.0,348.5,402.5" stroke="black" stroke-width="2" fill="none" />
<polyline points="349.0,394.0,341.0,402.0,333.5,410.0,325.5,417.5,317.0,424.5,308.5,432.0,301.0,439.5,292.5,447.0,284.0,455.0,276.0,463.0,268.0,470.5,260.0,478.0,251.5,486.0,244.0,494.0,236.0,502.0,228.0,510.0,220.0,517.5,212.0,524.5,204.0,531.5,196.0,538.5,188.0,546.0,180.0,553.5,172.0,561.0" stroke="black" stroke-width="2" fill="none" />
<polyline points="172.0,561.0,173.0,569.5" stroke="black" stroke-width="2" fill="none" />
<polyline points="165.5,572.0,173.5,572.0,181.5,571.5,189.0,571.0,196.5,570.5,204.0,570.0,212.5,570.0,220.0,570.0,228.0,569.5,236.5,569.0,244.5,569.0,253.0,568.5,261.0,568.0,268.5,567.5,276.0,567.5,284.0,567.0,292.0,566.5,300.5,565.5,309.0,565.0,317.0,565.0,324.5,564.5,332.5,564.0,340.0,563.0,348.0,562.0,356.0,561.0" stroke="black" stroke-width="2" fill="none" />
<polyline points="347.5,500.5,339.5,501.0,332.0,501.0,324.0,501.5,316.0,502.5,308.0,502.5,300.5,503.5,292.5,504.0,284.0,504.5,276.0,504.5" stroke="black" stroke-width="2" fill="none" />
<polyline points="259.5,489.0,267.0,488.5,275.0,488.5,283.0,488.5,291.5,488.0,299.5,488.5,307.5,488.0,315.5,487.5,323.5,487.0,331.0,487.5,339.0,487.0,347.0,486.5" stroke="black" stroke-width="2" fill="none" />
<polyline points="350.0,446.5,342.0,447.0,334.5,447.5,326.5,448.0" stroke="black" stroke-width="2" fill="none" />
<polyline points="324.0,439.5,332.0,439.0,339.5,439.0,348.0,439.0" stroke="black" stroke-width="2" fill="none" />
<polyline points="347.0,432.0,339.0,432.5,331.5,433.5,323.5,434.5" stroke="black" stroke-width="2" fill="none" />
<polyline points="322.5,426.0,330.5,425.5,338.0,425.0,346.5,425.0" stroke="black" stroke-width="2" fill="none" />
<polyline points="348.5,417.0,340.5,418.0,333.0,418.5,325.0,418.5" stroke="black" stroke-width="2" fill="none" />
<polyline points="326.5,412.0,334.5,411.5,342.0,410.0,349.0,409.5" stroke="black" stroke-width="2" fill="none" />
<polyline points="350.0,388.0,342.0,395.5,334.0,403.0,325.5,410.0,317.5,417.0,309.5,424.5,301.0,432.0,292.5,439.5,283.5,447.0,274.5,455.0,266.0,463.0,258.5,470.0,250.5,478.0,242.5,485.5,235.0,493.0,227.5,500.5,220.0,508.0,211.5,515.5,203.5,523.0,196.0,531.0,188.0,538.5,180.5,546.5,172.5,554.0" stroke="black" stroke-width="2" fill="none" />
<polyline points="172.5,545.5,181.0,538.0,189.0,530.5,197.0,523.0,204.5,515.5,212.5,508.0,220.5,500.5,228.0,493.0,236.5,485.5,244.0,477.5,251.5,470.0,259.5,461.5,267.5,453.5,275.5,446.5,284.0,439.0,292.5,432.0,301.0,424.5,309.5,417.0,317.0,409.5,324.5,402.5,332.5,395.5,340.5,388.5,349.0,381.0" stroke="black" stroke-width="2" fill="none" />
<polyline points="347.0,371.5,339.0,379.5,331.0,387.0,323.5,394.5,315.5,402.5,307.5,410.5,300.5,417.5,293.0,424.5,285.0,432.5,276.5,440.5,268.5,448.0,260.5,455.5,253.0,463.0,245.0,470.0,236.5,477.5,228.5,485.5,220.0,492.5,212.0,500.0,203.5,507.0,195.5,514.5,187.5,521.5,180.0,529.0,172.0,536.5" stroke="black" stroke-width="2" fill="none" />
<polyline points="172.0,528.0,179.5,521.0,187.5,513.5,195.5,506.0,203.5,499.0,211.5,491.5,220.0,484.5,228.5,477.5,237.0,470.0,245.5,462.0,254.0,454.5,262.0,446.5,270.0,439.0,278.0,431.5,286.0,424.0,293.5,416.5,301.0,409.0,309.0,401.5,317.0,394.0,324.5,386.5,332.0,378.5,340.0,370.0,347.5,362.5" stroke="black" stroke-width="2" fill="none" />
<polyline points="349.5,355.0,341.5,362.5,333.5,370.5,325.5,378.0,317.5,385.0,309.5,392.5,301.5,400.5,293.5,409.0,285.5,417.0,278.0,424.5,270.0,432.5,262.0,440.0,254.0,446.5,246.0,453.0,237.0,460.0,228.5,467.0,220.5,474.5,212.0,482.0,203.5,489.5,194.5,496.5,186.0,504.0,178.0,511.5,170.5,519.0" stroke="black" stroke-width="2" fill="none" />
<polyline points="164.0,518.5,172.0,518.0,180.0,517.0,187.5,516.5,195.5,517.0,203.0,516.0,211.5,515.5,219.0,514.0,226.5,513.5,234.5,513.5,242.5,513.0,250.5,512.5,259.5,512.5,268.0,512.0,276.0,512.0,284.5,511.0,292.5,510.0,300.5,508.5,308.5,507.0,316.0,506.0,323.5,505.5,332.0,505.5,339.5,506.0,347.0,506.0,354.5,506.5" stroke="black" stroke-width="2" fill="none" />
<polyline points="346.0,456.0,338.0,456.5,330.0,457.0,322.0,458.5,314.0,459.5" stroke="black" stroke-width="2" fill="none" />
<polyline points="307.0,435.5,315.0,434.5" stroke="black" stroke-width="2" fill="none" />
<polyline points="315.0,409.0,307.5,409.5" stroke="black" stroke-width="2" fill="none" />
<polyline points="324.5,401.0,332.5,401.0,341.0,401.0,348.5,400.5" stroke="black" stroke-width="2" fill="none" />
<polyline points="348.0,391.0,340.5,391.5,332.5,392.0,324.5,392.5" stroke="black" stroke-width="2" fill="none" />
<polyline points="314.0,385.5,322.0,385.0,330.0,384.5,338.5,384.0,347.0,383.5" stroke="black" stroke-width="2" fill="none" />
<polyline points="350.0,360.0,342.0,360.5,333.5,360.5,325.5,361.0" stroke="black" stroke-width="2" fill="none" />
<polyline points="326.5,354.0,334.5,354.0,342.0,353.0,349.5,352.5" stroke="black" stroke-width="2" fill="none" />
<polyline points="348.0,348.0,340.5,356.0,332.5,364.0,324.5,371.5,316.5,379.0,308.5,386.5,301.0,394.0,293.0,402.0,285.0,409.5,277.5,416.5,269.5,424.5,261.5,431.5,253.5,439.0,245.0,446.5,236.5,453.5,228.5,460.5,220.0,468.0,211.5,475.5,202.5,482.5,194.0,490.0,186.0,497.5,178.0,504.5,170.5,512.0" stroke="black" stroke-width="2" fill="none" />
<polyline points="172.5,506.0,181.0,498.5,189.5,491.5,197.0,484.0,204.0,476.0,212.0,468.0,219.5,460.0,227.0,452.5,235.5,445.5,243.5,438.0,251.5,431.0,260.0,424.0,268.0,416.5,276.0,409.0,284.0,402.0,292.5,394.5,301.0,387.5,309.0,379.5,317.5,372.0,325.5,364.5,333.5,356.5,341.5,348.5,349.5,340.5" stroke="black" stroke-width="2" fill="none" />
<polyline points="348.5,332.5,340.5,340.0,332.0,347.5,323.5,355.0,315.5,362.5,308.0,370.5,300.0,377.5,291.5,384.5,283.5,391.5,276.0,399.0,268.0,406.5,260.0,414.0,252.0,422.0,244.0,429.5,236.0,437.0,227.5,445.0,219.5,453.0,211.0,460.5,202.0,468.0,194.0,476.0,186.0,483.0,177.5,490.5,170.0,497.5" stroke="black" stroke-width="2" fill="none" />
<polyline points="174.5,497.0,174.5,505.5,169.5,514.5,169.5,523.0" stroke="black" stroke-width="2" fill="none" />
<polyline points="164.5,527.0,172.5,526.5,180.5,526.5,188.5,526.0,196.0,525.5,203.5,525.0,212.0,524.5,220.5,523.5,228.5,522.5,237.0,521.5,244.5,521.0,252.5,521.0,260.5,521.0,268.5,520.5,277.0,520.0,285.5,519.0,293.5,518.0,301.0,517.0,308.5,515.5,316.5,514.5,324.5,514.0,332.5,513.5,340.5,513.5,348.5,513.5,356.0,513.5" stroke="black" stroke-width="2" fill="none" />
<polyline points="305.5,472.0,297.5,472.5,289.5,472.5,282.0,472.0,274.0,471.5,266.0,472.0,258.0,472.0" stroke="black" stroke-width="2" fill="none" />
<polyline points="257.5,465.5,265.5,465.0,274.5,464.5,283.0,463.5,291.5,463.5,299.0,463.0,307.0,462.5" stroke="black" stroke-width="2" fill="none" />
<polyline points="308.0,447.0,300.0,447.0,291.5,448.0,283.0,448.5,274.5,449.5,266.0,450.0,258.0,450.0" stroke="black" stroke-width="2" fill="none" />
<polyline points="260.0,441.0,268.0,440.5,275.5,440.0,283.5,439.5,292.0,440.0,300.0,439.5,308.5,439.0" stroke="black" stroke-width="2" fill="none" />
<polyline points="318.0,421.0,310.0,421.5,301.5,422.5,293.5,423.0,285.0,423.5,276.5,424.0,268.0,424.0,259.5,424.5" stroke="black" stroke-width="2" fill="none" />
<polyline points="259.5,416.0,267.5,416.0,275.5,415.5,283.5,415.0,291.5,414.0,300.0,414.0,308.0,413.5,316.0,413.0" stroke="black" stroke-width="2" fill="none" />
<polyline points="314.0,376.0,322.5,376.0,331.0,375.5,339.5,375.5,347.5,375.5" stroke="black" stroke-width="2" fill="none" />
<polyline points="348.5,345.5,340.0,345.5,331.5,346.0" stroke="black" stroke-width="2" fill="none" />
<polyline points="331.5,340.0,340.0,339.5,348.5,339.0" stroke="black" stroke-width="2" fill="none" />
<polyline points="347.0,323.5,339.0,330.5,331.5,337.5,323.5,345.0,316.0,353.0,308.0,360.5,300.5,367.5,293.0,375.0,285.5,382.0,277.5,389.5,270.0,397.0,261.5,404.5,252.5,412.5,243.5,420.5,235.0,428.0,226.0,436.0,218.0,443.5,210.0,451.0,202.5,458.5,194.5,466.5,186.0,474.0,178.0,482.0,170.5,489.5" stroke="black" stroke-width="2" fill="none" />
<polyline points="164.0,493.5,172.0,493.5,180.0,493.0,188.0,492.0,196.0,491.5,204.0,490.5,211.5,490.0,220.0,488.5,228.0,488.0,236.0,487.5,244.0,487.5,252.0,487.0,260.5,486.5,268.5,486.0,276.5,485.5,284.0,485.0,293.0,485.5,301.5,485.5,309.5,485.0,317.5,485.0,325.5,484.5,333.5,484.0,341.0,483.5,348.5,483.0,357.0,482.5" stroke="black" stroke-width="2" fill="none" />
<polyline points="347.5,367.5,339.5,367.5,331.5,368.0,323.0,368.0,314.5,368.5,306.5,369.0" stroke="black" stroke-width="2" fill="none" />
<polyline points="314.0,346.5,322.0,345.5" stroke="black" stroke-width="2" fill="none" />
<polyline points="322.0,338.5,314.0,338.5" stroke="black" stroke-width="2" fill="none" />
<polyline points="315.0,331.0,323.0,330.0" stroke="black" stroke-width="2" fill="none" />
<polyline points="331.5,331.0,339.5,331.0,348.0,330.5" stroke="black" stroke-width="2" fill="none" />
<polyline points="347.5,314.0,339.5,322.0,331.5,330.0,323.5,338.0,315.5,345.5,307.5,352.5,300.0,359.5,292.0,367.0,284.0,374.0,275.5,381.5,267.0,388.5,259.0,396.0,251.5,403.5,243.5,411.0,235.5,419.5,227.0,427.5,219.0,435.0,210.5,443.0,202.5,451.0,195.0,459.0,187.0,466.5,179.0,474.0,171.0,481.5" stroke="black" stroke-width="2" fill="none" />
<polyline points="171.0,473.5,179.0,466.5,186.5,459.0,194.5,451.5,202.5,443.5,210.5,435.5,218.0,427.5,226.5,419.5,234.5,412.0,242.5,404.5,250.5,397.0,259.0,389.0,267.5,381.5,275.0,374.0,282.5,367.0,290.0,360.0,297.5,352.0,306.0,344.5,314.0,337.5,322.5,330.0,330.5,323.0,338.5,315.5,346.5,308.5" stroke="black" stroke-width="2" fill="none" />
<polyline points="349.0,300.0,341.0,307.5,333.0,314.5,325.0,322.0,317.0,329.5,308.0,337.0,300.0,344.5,291.5,351.0,282.5,358.5,274.0,366.0,266.0,373.5,258.5,381.5,250.0,389.0,242.0,396.5,234.0,404.0,226.5,412.0,218.5,419.5,210.0,427.5,202.0,435.5,193.5,443.0,185.5,450.5,177.5,458.0,170.0,465.5" stroke="black" stroke-width="2" fill="none" />
<polyline points="171.0,459.5,178.5,452.5,186.0,445.0" stroke="black" stroke-width="2" fill="none" />
<polyline points="186.0,443.5,186.0,451.5,186.5,458.5,188.0,466.5" stroke="black" stroke-width="2" fill="none" />
<polyline points="189.5,464.0,188.5,462.0" stroke="black" stroke-width="2" fill="none" />
<polyline points="194.0,467.0,202.5,466.0,211.0,465.0,220.0,464.5,228.5,463.5,237.0,463.0,244.5,462.0,253.0,461.5" stroke="black" stroke-width="2" fill="none" />
<polyline points="249.5,443.5,241.5,444.0" stroke="black" stroke-width="2" fill="none" />
<polyline points="249.5,409.5,257.5,409.0,265.5,408.5,273.0,408.5,281.0,407.5,289.0,407.0,297.5,406.5" stroke="black" stroke-width="2" fill="none" />
<polyline points="300.0,377.0,291.5,377.0,284.0,376.5,276.0,377.0" stroke="black" stroke-width="2" fill="none" />
<polyline points="267.0,372.5,275.0,371.5,282.5,370.5,290.5,369.5" stroke="black" stroke-width="2" fill="none" />
<polyline points="292.5,355.5,284.0,356.0" stroke="black" stroke-width="2" fill="none" />
<polyline points="283.0,348.0,291.0,347.5" stroke="black" stroke-width="2" fill="none" />
<polyline points="290.0,331.5,282.0,332.0" stroke="black" stroke-width="2" fill="none" />
<polyline points="275.5,338.0,283.5,337.5,291.5,337.5" stroke="black" stroke-width="2" fill="none" />
<polyline points="290.0,319.5,281.5,319.5,273.5,320.0" stroke="black" stroke-width="2" fill="none" />
<polyline points="274.5,313.0,283.0,312.5,291.0,312.0" stroke="black" stroke-width="2" fill="none" />
<polyline points="290.5,304.5,282.5,305.5,274.5,306.0" stroke="black" stroke-width="2" fill="none" />
<polyline points="273.5,299.5,282.0,298.5,290.5,297.5" stroke="black" stroke-width="2" fill="none" />
<polyline points="292.5,291.0,285.0,291.5,277.0,291.5" stroke="black" stroke-width="2" fill="none" />
<polyline points="276.5,281.0,284.5,280.5,292.5,280.0" stroke="black" stroke-width="2" fill="none" />
<polyline points="293.0,270.5,285.0,271.0,276.5,272.0" stroke="black" stroke-width="2" fill="none" />
<polyline points="276.5,265.5,284.5,265.0,292.5,264.0" stroke="black" stroke-width="2" fill="none" />
<polyline points="289.5,257.5,281.5,258.0,273.5,259.0" stroke="black" stroke-width="2" fill="none" />
<polyline points="268.0,250.0,276.0,249.5,284.0,249.5,291.5,249.0" stroke="black" stroke-width="2" fill="none" />
<polyline points="291.0,240.0,283.0,240.5,275.0,241.5" stroke="black" stroke-width="2" fill="none" />
<polyline points="269.5,232.0,277.0,231.5,284.5,231.0" stroke="black" stroke-width="2" fill="none" />
<polyline points="277.0,225.0,269.0,225.0" stroke="black" stroke-width="2" fill="none" />
<polyline points="269.0,219.5,277.0,218.5" stroke="black" stroke-width="2" fill="none" />
<polyline points="289.5,210.5,282.0,218.5,274.5,226.5,266.5,234.5,258.0,242.5,250.5,250.0,243.0,258.0,236.5,265.5,229.5,273.0,222.0,280.0,214.0,287.0,206.0,295.0,197.5,302.0,189.0,309.0" stroke="black" stroke-width="2" fill="none" />
<polyline points="187.5,301.0,195.5,294.0,203.0,286.5,211.0,279.0,219.0,271.0,227.0,264.0,235.0,257.0,243.5,250.0,251.0,242.5,259.0,235.5,267.0,228.0,275.0,220.0,282.5,212.5,290.0,204.5" stroke="black" stroke-width="2" fill="none" />
<polyline points="300.5,199.5,308.5,192.0,316.0,184.0,324.0,177.0,332.0,170.0,340.5,163.0,348.5,155.5" stroke="black" stroke-width="2" fill="none" />
<polyline points="346.0,163.0,338.5,170.5,331.5,178.0,324.0,185.5,316.5,193.0,309.0,200.5,301.0,208.5,293.5,216.0,285.5,223.5,277.0,231.5,269.0,239.5,261.0,247.0,253.0,254.5,244.5,262.0,236.0,269.5,227.5,277.0,219.5,284.0,210.5,291.0,202.0,298.5,193.5,306.0,186.0,313.0,177.5,320.5,170.0,328.5,162.5,336.0" stroke="black" stroke-width="2" fill="none" />
<polyline points="163.5,333.0,171.5,332.5,179.5,332.0,187.5,331.5,196.0,331.5,204.0,331.5,212.0,330.5,220.0,329.5,227.5,329.0,235.5,328.5,244.0,328.0,251.5,327.0,259.0,326.5,267.0,326.0,276.0,326.0,284.0,325.5,292.5,325.0,300.0,325.0,307.5,325.0,315.0,325.0,323.0,325.0,331.0,324.0,339.5,323.0,347.5,321.5,355.5,320.5" stroke="black" stroke-width="2" fill="none" />
<polyline points="346.5,322.0,339.0,322.5,331.5,323.5" stroke="black" stroke-width="2" fill="none" />
<polyline points="330.5,315.5,338.5,315.0,347.0,314.5" stroke="black" stroke-width="2" fill="none" />
<polyline points="345.5,305.5,337.0,305.5,329.0,306.5" stroke="black" stroke-width="2" fill="none" />
<polyline points="333.0,297.0,340.5,296.5,347.5,296.5" stroke="black" stroke-width="2" fill="none" />
<polyline points="350.0,292.0,342.0,300.0,333.5,307.0,325.0,314.0,316.0,321.5,307.5,329.0,299.0,336.5,290.5,343.5,282.5,351.0,274.5,358.5,266.5,366.0,258.5,373.5,250.5,381.0,242.0,389.0,234.0,396.5,226.5,404.0,218.0,412.0,210.0,419.5,202.5,427.5,195.0,435.5,187.5,443.0,179.0,450.0,170.5,457.5" stroke="black" stroke-width="2" fill="none" />
<polyline points="163.5,453.5,171.0,453.0,178.5,452.5,186.5,452.0,194.5,451.5,202.5,451.0,211.0,451.0,219.0,450.5,227.5,450.0,236.0,449.0,243.5,448.5,251.5,448.0,259.0,447.5,267.0,447.0,275.5,446.5,284.0,446.0,292.0,445.5,300.0,445.5,308.0,445.0,316.5,444.5,324.5,443.5,332.5,443.0,339.5,442.5,347.5,442.0,356.0,442.0" stroke="black" stroke-width="2" fill="none" />
<polyline points="300.0,400.5,292.0,401.0,284.0,401.0,276.0,401.5,268.0,402.0,259.5,403.0" stroke="black" stroke-width="2" fill="none" />
<polyline points="258.5,394.5,267.0,394.0,275.5,393.0,284.0,392.5,292.0,392.0,299.5,391.5" stroke="black" stroke-width="2" fill="none" />
<polyline points="299.5,383.0,291.0,384.0,283.5,384.5,275.5,385.0,267.5,385.5,260.0,386.0" stroke="black" stroke-width="2" fill="none" />
<polyline points="268.5,374.5,257.5,382.0,249.0,383.0,255.0,379.0,261.0,371.0,259.0,363.0" stroke="black" stroke-width="2" fill="none" />
<polyline points="258.0,362.5,265.5,362.0,274.0,361.5,282.0,360.5,290.0,360.0" stroke="black" stroke-width="2" fill="none" />
<polyline points="273.0,354.0,265.0,355.5,257.0,356.5" stroke="black" stroke-width="2" fill="none" />
<polyline points="259.0,345.5,266.5,344.5" stroke="black" stroke-width="2" fill="none" />
<polyline points="267.0,336.5,259.5,337.0" stroke="black" stroke-width="2" fill="none" />
<polyline points="260.0,314.0,268.0,313.0" stroke="black" stroke-width="2" fill="none" />
<polyline points="268.5,306.5,260.5,306.0" stroke="black" stroke-width="2" fill="none" />
<polyline points="258.5,298.0,267.0,298.0" stroke="black" stroke-width="2" fill="none" />
<polyline points="246.0,279.5,247.5,287.5,247.5,295.5,248.0,303.0,247.0,313.0,247.0,320.5" stroke="black" stroke-width="2" fill="none" />
<polyline points="234.5,359.5,226.0,360.5,217.5,361.5,209.5,362.0,201.0,362.5" stroke="black" stroke-width="2" fill="none" />
<polyline points="203.5,369.0,211.5,368.5,219.0,367.5,226.5,367.0,234.5,367.0" stroke="black" stroke-width="2" fill="none" />
<polyline points="237.0,392.5,228.5,392.0,221.0,391.5,213.5,392.5,206.0,393.5" stroke="black" stroke-width="2" fill="none" />
<polyline points="206.5,385.5,214.0,385.0,221.0,385.0,228.5,384.5,236.5,384.0" stroke="black" stroke-width="2" fill="none" />
<polyline points="243.5,406.0,236.0,407.0,227.5,407.0,219.0,407.5,211.5,408.5,203.5,409.0" stroke="black" stroke-width="2" fill="none" />
<polyline points="195.5,411.0,203.0,403.5,211.0,395.5,219.5,388.0,227.0,380.5,235.0,372.5,243.5,365.0,251.5,357.0,260.0,349.0,267.5,341.5,276.0,334.0,284.0,327.0,291.5,319.5,299.0,311.5,306.5,304.0,314.5,296.0,322.5,289.0,330.5,281.0,338.5,273.5,346.0,266.5" stroke="black" stroke-width="2" fill="none" />
<polyline points="345.5,260.0,337.5,267.5,329.5,275.5,322.0,283.0,314.5,289.5,306.5,297.0,299.0,305.0,291.0,312.5,283.0,320.0,275.5,327.5,267.5,335.5,259.5,343.0,251.5,350.5,243.0,358.5,234.5,366.0,226.5,374.0,219.0,381.0,211.5,388.5,204.0,395.5,196.5,402.5,189.0,409.5" stroke="black" stroke-width="2" fill="none" />
<polyline points="195.0,403.0,203.0,402.0,211.5,401.0,219.5,399.5,227.5,398.5,235.0,398.0" stroke="black" stroke-width="2" fill="none" />
<polyline points="242.0,424.0,234.0,424.5,226.0,425.0,217.5,426.0,209.0,426.5,201.0,427.0" stroke="black" stroke-width="2" fill="none" />
<polyline points="194.5,426.0,203.0,418.0,211.0,410.5,219.5,403.5,228.0,396.0,236.0,388.0,244.0,380.5,252.0,373.0,260.0,365.5,268.0,358.0,276.5,350.0,284.5,342.0,292.5,334.5,300.0,327.5,308.0,320.5,316.0,313.5,323.5,306.0,331.5,299.0,339.0,291.5,347.0,284.0" stroke="black" stroke-width="2" fill="none" />
<polyline points="345.0,276.5,337.0,283.5,329.5,290.5,322.0,297.5,314.5,305.0,307.0,312.5,299.5,320.0,291.5,327.0,283.5,334.0,275.5,341.0,267.5,348.0,260.0,355.5,252.5,363.5,244.5,371.5,236.5,379.5,228.0,387.0,220.0,395.0,210.5,402.0,202.0,409.0,194.0,416.5,185.5,424.0" stroke="black" stroke-width="2" fill="none" />
<polyline points="178.0,436.0,170.0,443.5" stroke="black" stroke-width="2" fill="none" />
<polyline points="162.5,445.0,170.5,444.5,178.5,444.0,187.0,443.5,195.5,442.5,203.5,442.0,212.0,441.5,219.5,441.0,227.0,440.0,235.0,439.5,242.5,438.5,251.0,438.5,259.0,437.5,267.0,437.0,275.5,436.5,283.5,436.5,292.5,436.0,301.0,435.5,308.5,435.5,316.0,435.5,324.5,435.0,332.5,434.5,341.0,434.0,349.0,433.0,357.0,433.0" stroke="black" stroke-width="2" fill="none" />
<polyline points="324.0,321.5,315.5,322.0" stroke="black" stroke-width="2" fill="none" />
<polyline points="316.5,313.5,324.5,313.0" stroke="black" stroke-width="2" fill="none" />
<polyline points="325.0,306.0,317.5,306.5" stroke="black" stroke-width="2" fill="none" />
<polyline points="316.0,296.0,324.0,296.0" stroke="black" stroke-width="2" fill="none" />
<polyline points="333.5,287.5,341.5,287.5,350.0,287.0" stroke="black" stroke-width="2" fill="none" />
<polyline points="349.0,279.5,341.5,280.0,333.5,280.5" stroke="black" stroke-width="2" fill="none" />
<polyline points="323.5,274.0,331.5,273.5,339.5,273.5,348.0,272.5" stroke="black" stroke-width="2" fill="none" />
<polyline points="348.0,251.0,340.0,259.0,332.5,266.5,324.0,274.5,316.0,282.5,307.5,290.5,299.5,298.0,291.5,305.5,283.5,312.5,276.0,320.0,268.5,327.5,260.0,335.0,251.5,342.5,243.0,350.0,235.0,357.0,226.5,364.0,219.0,372.0,211.0,380.0,203.5,387.5,196.0,395.0,187.5,402.5,180.0,410.0" stroke="black" stroke-width="2" fill="none" />
<polyline points="178.5,402.5,186.5,395.0,194.5,387.5,203.0,380.0,211.0,372.5,218.5,365.5,226.5,358.5,235.0,350.5,243.5,342.5,251.5,335.0,259.5,327.5,267.0,321.0,275.0,313.0,283.5,305.0,291.5,297.0,300.0,289.5,308.0,281.5,316.0,274.0,324.0,266.5,332.5,259.0,340.5,252.0,348.5,244.0" stroke="black" stroke-width="2" fill="none" />
<polyline points="348.0,251.0,339.5,251.5,330.5,251.5,322.5,252.0,314.5,252.5,306.5,252.5,299.0,253.0,291.5,254.5,283.0,255.0,275.5,256.0,267.5,255.5,260.0,256.0,252.0,257.0,244.0,257.5,236.0,258.0,228.0,259.0,219.5,259.5,211.0,259.5,202.5,259.5,195.5,259.5,188.0,259.0,180.5,259.0,172.5,259.5,164.5,260.0" stroke="black" stroke-width="2" fill="none" />
<polyline points="161.0,259.0,169.0,250.5,177.0,243.5" stroke="black" stroke-width="2" fill="none" />
<polyline points="170.5,243.0,178.5,236.0" stroke="black" stroke-width="2" fill="none" />
<polyline points="171.0,235.0,179.0,227.5" stroke="black" stroke-width="2" fill="none" />
<polyline points="181.0,221.0,173.0,228.5,165.0,236.0" stroke="black" stroke-width="2" fill="none" />
<polyline points="162.5,238.0,170.0,237.0,178.0,237.0,187.0,236.5,196.0,235.0,204.5,234.5,213.0,234.0,221.0,234.0,229.0,233.5,236.5,233.5,244.0,232.5,252.0,232.5,260.0,232.0,268.0,231.0,276.0,230.5,284.0,229.5,291.5,229.0,300.0,227.5,308.0,227.0,316.0,226.5,324.0,226.5,332.0,226.0,340.5,225.5,348.5,225.0" stroke="black" stroke-width="2" fill="none" />
<polyline points="349.5,226.0,341.5,234.0,333.0,241.0,325.0,248.5,317.0,256.0,309.0,263.0,300.5,270.5,292.5,278.5,284.5,285.5,276.0,293.0,268.0,300.0,260.0,308.0,252.0,316.0,244.0,324.0,236.5,332.0,229.0,340.0,221.0,347.5,214.0,354.5,206.0,361.5,197.5,369.0,189.5,376.5,182.0,384.0,174.0,392.0" stroke="black" stroke-width="2" fill="none" />
<polyline points="172.0,401.5,180.0,394.0,188.0,387.0,196.0,379.5,204.5,371.5,213.0,363.5,220.5,355.5,228.5,348.0,236.5,340.5,244.5,333.0,252.0,325.5,260.0,318.0,268.0,310.5,276.0,303.0,284.0,295.5,291.5,287.5,300.0,279.5,307.5,271.5,315.5,264.5,324.0,257.5,332.5,250.5,341.0,244.0,349.0,236.5" stroke="black" stroke-width="2" fill="none" />
<polyline points="341.5,249.0,332.5,249.5" stroke="black" stroke-width="2" fill="none" />
<polyline points="338.5,254.5,330.5,255.0,323.0,255.5,315.0,256.0" stroke="black" stroke-width="2" fill="none" />
<polyline points="313.0,263.5,321.5,263.0,330.0,263.0,338.5,262.5,347.0,262.0" stroke="black" stroke-width="2" fill="none" />
<polyline points="346.5,273.0,339.0,273.5,331.0,273.5,323.5,274.0,315.0,275.0,307.0,276.0,299.0,277.0,290.0,277.5,282.0,278.0,274.0,278.5,266.0,279.0,258.0,279.0,250.0,279.5,242.0,280.0,234.0,280.5,226.0,281.0,218.0,282.0,210.5,282.5,203.5,282.5,195.5,283.5,187.5,284.5,179.5,285.0,172.0,285.0,164.0,285.5" stroke="black" stroke-width="2" fill="none" />
<polyline points="165.0,291.5,172.5,291.0,180.5,290.5,188.0,290.0,195.0,290.0,203.0,290.0,211.0,289.5,218.5,289.0,226.5,288.5,235.0,288.0,243.0,287.0,251.0,286.5,259.0,287.0,266.5,286.5,274.5,285.5,283.0,285.0,290.5,285.0,297.5,285.0,305.5,285.0,313.5,284.5,321.5,284.5,329.5,284.0,337.5,283.5,345.5,283.0" stroke="black" stroke-width="2" fill="none" />
<polyline points="322.0,280.5,314.0,281.0" stroke="black" stroke-width="2" fill="none" />
<polyline points="324.5,261.5,324.5,269.5,326.0,277.5,325.0,285.5,326.0,294.0,325.5,302.0,325.5,310.0,324.5,318.5,324.5,326.5,324.0,335.0,324.0,343.0" stroke="black" stroke-width="2" fill="none" />
<polyline points="300.5,427.0,292.0,427.0,283.5,427.5,275.5,428.0,268.0,429.0,259.5,429.5,251.5,430.0,243.0,431.0,234.5,431.5,227.0,432.0,219.0,432.5,210.5,433.5,202.5,434.0" stroke="black" stroke-width="2" fill="none" />
<polyline points="201.5,441.0,209.5,440.5,218.5,440.0,226.5,439.5,234.0,439.5" stroke="black" stroke-width="2" fill="none" />
<polyline points="242.5,416.5,234.5,416.5,226.5,416.5,218.0,416.5,209.5,416.5,201.5,417.5" stroke="black" stroke-width="2" fill="none" />
<polyline points="196.5,450.5,204.5,449.5,212.5,449.0,220.5,449.0,228.0,448.5,236.0,448.0,244.0,447.0,252.5,446.0" stroke="black" stroke-width="2" fill="none" />
<polyline points="267.0,502.0,259.0,502.0,251.0,502.5,243.0,503.0,235.0,503.0,227.5,504.0,219.5,505.0,212.0,506.0,204.5,507.0,196.5,507.5" stroke="black" stroke-width="2" fill="none" />
<polyline points="196.0,514.0,203.5,513.5,211.0,513.0,218.5,512.5,226.5,511.5,234.5,511.0,242.5,510.5,250.0,510.0,258.0,509.5,266.0,508.5,273.5,508.0,281.5,507.5,290.5,507.0,298.5,506.5,306.0,506.5,314.5,506.0" stroke="black" stroke-width="2" fill="none" />
<polyline points="315.0,529.5,307.5,530.5,300.5,531.0,293.5,531.5,285.5,531.5,277.5,532.0,269.5,532.5,261.5,533.5,253.0,534.0,244.5,534.5,236.0,535.5,228.5,536.0,221.0,537.0,213.0,537.5,205.5,538.0,197.5,538.5" stroke="black" stroke-width="2" fill="none" />
<polyline points="195.0,530.5,203.5,530.0,211.5,529.0,220.0,528.0,228.0,526.5,236.5,526.0,244.5,525.5,253.0,525.5,261.0,525.5,268.5,526.0,276.0,525.5,284.5,525.0,292.5,524.0,300.0,523.0,307.5,522.5,315.0,522.0,322.5,521.5,330.5,521.0,338.0,520.5,345.5,520.0" stroke="black" stroke-width="2" fill="none" />
<polyline points="346.0,513.5,338.5,514.5,330.5,515.0,322.5,515.0,314.5,515.5,306.5,516.0,299.0,516.5,291.0,517.0,283.5,517.5,275.5,518.0,267.5,518.5,259.5,519.0,251.5,519.0,243.5,518.5,236.0,519.0,227.5,519.0,219.0,519.0,210.5,519.5,202.0,520.0,193.5,520.5" stroke="black" stroke-width="2" fill="none" />
<polyline points="189.5,520.5,192.5,523.5,192.5,531.5,194.0,539.5,188.0,548.0,189.0,556.0,185.0,568.5,185.0,576.0,184.5,584.0,184.5,592.5,184.5,600.5,184.5,608.5,186.0,616.5,185.5,625.0,185.5,633.0,186.5,640.5,186.0,648.5,187.0,655.5,189.0,663.0,191.5,669.0,201.0,672.0,201.5,680.0" stroke="black" stroke-width="2" fill="none" />
<polyline points="220.5,660.0,228.5,662.5,236.5,667.5,244.0,674.5" stroke="black" stroke-width="2" fill="none" />
<polyline points="174.5,676.0,172.5,668.0" stroke="black" stroke-width="2" fill="none" />
<polyline points="162.5,604.0,170.5,603.5,179.0,603.5,187.5,604.0,196.0,604.5,204.0,604.5,212.0,604.0,219.5,603.0,227.5,602.0,235.0,601.5,243.5,601.0,251.0,600.5,258.5,600.0,266.5,599.5,275.0,599.0,283.0,598.0,291.5,597.0,300.5,596.0,309.0,595.0,317.5,594.5,325.5,594.0,333.5,594.0,341.0,593.5,349.0,593.5,356.5,593.5" stroke="black" stroke-width="2" fill="none" />
<polyline points="354.5,585.0,346.5,585.0,339.0,585.5,331.5,586.5,323.5,587.0,316.0,587.5,308.5,588.5,300.5,589.0,292.0,590.0,284.0,591.0,276.0,591.5,268.5,592.0,260.5,592.0,252.5,592.5,244.5,593.5,236.5,593.5,228.0,593.5,219.5,594.0,211.0,594.5,203.0,595.0,195.0,595.5,187.0,595.5,179.0,596.0,171.5,597.0,163.5,597.5" stroke="black" stroke-width="2" fill="none" />
<polyline points="164.0,589.0,171.5,588.0,179.0,587.5,187.0,587.0,196.0,587.0,204.0,586.5,212.5,586.0,220.0,586.0,227.5,586.0,235.0,586.0,243.0,586.0,251.0,585.0,259.5,584.0,267.5,582.5,275.5,581.5,283.0,581.0,291.0,580.5,298.0,580.5,305.5,580.5,313.0,580.5,321.0,580.5,329.5,580.0,337.5,579.5,346.0,578.5,354.5,577.5" stroke="black" stroke-width="2" fill="none" />
<polyline points="355.0,569.5,347.0,570.5,339.0,571.5,331.5,572.0,323.0,572.5,315.5,573.0,307.0,573.0,299.0,573.5,292.0,574.0,284.0,574.5,276.0,575.5,268.0,576.5,260.0,576.5,252.5,577.0,244.5,577.0,236.0,578.0,228.0,578.5,220.5,579.0,212.5,579.0,205.0,579.0,197.5,579.5,189.0,580.5,180.5,581.0,172.5,581.5,164.0,581.5" stroke="black" stroke-width="2" fill="none" />
<polyline points="163.0,563.5,171.5,563.5,180.0,563.5,188.0,563.0,196.0,563.0,204.5,562.5,212.0,562.5,220.0,562.5,227.5,562.5,236.0,562.5,243.5,562.5,251.5,562.0,259.0,561.0,267.0,560.5,274.5,560.5,282.5,559.5,290.5,558.5,298.5,557.5,306.5,556.5,314.5,556.0,322.5,555.5,330.5,555.0,339.0,555.0,347.0,555.0,354.5,554.5" stroke="black" stroke-width="2" fill="none" />
<polyline points="347.0,487.0,339.0,488.5,330.5,489.5,322.0,490.5,314.0,491.0,306.0,491.5,298.0,492.0,289.5,493.0,281.0,493.5,273.0,494.0,265.5,494.5,257.5,495.0,250.0,495.0,243.0,495.0,235.0,495.0,228.0,495.5,220.5,496.5,213.0,497.5,205.0,499.0,197.0,499.5" stroke="black" stroke-width="2" fill="none" />
<polyline points="197.5,489.0,205.0,489.0,213.0,488.5,220.5,488.5,228.0,488.0,236.0,487.0,243.0,487.0,250.5,486.5" stroke="black" stroke-width="2" fill="none" />
<polyline points="195.5,481.5,203.5,481.5,211.0,481.0,219.0,480.0,227.0,479.5,235.0,478.0,242.5,478.0,250.5,477.5,259.0,477.0,267.0,476.5,275.5,476.0,283.5,475.5,291.0,474.5,299.5,474.0,308.0,474.0,315.5,473.0,323.5,473.0,331.0,473.0,338.5,472.5,347.0,473.0" stroke="black" stroke-width="2" fill="none" />
<polyline points="253.0,469.5,245.0,470.0,237.0,471.0,228.5,471.5,220.0,472.5,212.0,473.0,203.5,473.5,195.0,473.5" stroke="black" stroke-width="2" fill="none" />
<polyline points="195.5,458.0,203.0,457.5,210.5,457.0,218.5,456.5,227.0,456.0,235.0,455.0,243.5,454.0,252.5,453.0,261.0,452.0,269.5,451.5,277.5,451.0,285.5,451.0,293.0,450.5,301.0,450.5,308.5,450.5" stroke="black" stroke-width="2" fill="none" />
<polyline points="236.5,375.5,229.0,375.5,221.0,375.5,213.5,376.0,205.5,376.0" stroke="black" stroke-width="2" fill="none" />
<polyline points="186.0,377.5,187.0,385.5,188.0,393.5,191.0,401.0,189.5,412.0,190.5,420.0,194.0,427.0,194.5,435.0,192.5,443.0,189.0,444.0,193.0,446.0" stroke="black" stroke-width="2" fill="none" />
<polyline points="163.5,438.0,172.0,437.5,180.0,437.0,187.5,436.0,195.0,435.0,202.5,434.0,210.5,433.0,219.0,432.5,227.0,432.0,235.5,431.5,243.5,430.5,251.5,430.5,259.5,430.0,267.5,430.0,276.0,430.0,284.0,430.0,292.0,430.0,300.0,429.5,308.0,429.5,316.0,429.5,323.5,428.5,332.0,428.0,340.0,427.0,348.0,426.0,356.0,425.0" stroke="black" stroke-width="2" fill="none" />
<polyline points="235.0,351.5,227.0,352.5,219.0,353.5,211.5,354.0,203.0,354.5" stroke="black" stroke-width="2" fill="none" />
<polyline points="196.5,346.0,204.5,346.0,212.0,345.5,220.0,345.5,228.0,344.5,236.0,343.5" stroke="black" stroke-width="2" fill="none" />
<polyline points="236.0,319.0,228.0,320.0,220.0,321.0,212.5,322.0,204.5,322.5" stroke="black" stroke-width="2" fill="none" />
<polyline points="202.5,313.5,210.5,313.0,219.0,313.0,227.0,313.0" stroke="black" stroke-width="2" fill="none" />
<polyline points="226.5,305.0,218.0,305.0,209.0,305.0,201.0,305.5" stroke="black" stroke-width="2" fill="none" />
<polyline points="203.0,296.5,211.0,296.5,219.5,296.5,227.5,296.5" stroke="black" stroke-width="2" fill="none" />
<polyline points="227.0,288.0,218.5,288.5,210.5,289.5,203.5,291.0,195.5,291.5" stroke="black" stroke-width="2" fill="none" />
<polyline points="193.5,282.5,201.5,282.0,209.5,281.5,217.5,281.0,226.0,280.5,234.0,280.0" stroke="black" stroke-width="2" fill="none" />
<polyline points="234.0,270.5,226.0,270.5,218.5,271.0,211.0,271.5,203.0,271.5,195.5,272.0" stroke="black" stroke-width="2" fill="none" />
<polyline points="195.0,265.0,203.0,265.0,211.5,265.0,220.0,265.0,228.5,264.0" stroke="black" stroke-width="2" fill="none" />
<polyline points="249.5,265.0,257.5,264.0" stroke="black" stroke-width="2" fill="none" />
<polyline points="257.0,249.0,249.0,249.5" stroke="black" stroke-width="2" fill="none" />
<polyline points="249.0,243.0,257.0,242.5" stroke="black" stroke-width="2" fill="none" />
<polyline points="259.5,210.5,251.5,211.5,243.5,212.0" stroke="black" stroke-width="2" fill="none" />
<polyline points="261.5,205.0,269.0,200.5,277.5,193.5" stroke="black" stroke-width="2" fill="none" />
<polyline points="275.5,193.0,267.5,193.0" stroke="black" stroke-width="2" fill="none" />
<polyline points="290.5,189.5,282.5,196.5,274.5,204.0,266.0,211.0,258.0,219.0,249.5,226.0,241.5,233.5,233.5,240.5,225.5,248.0,217.0,255.5,209.0,263.5,201.0,270.5,193.5,277.5,186.0,284.5" stroke="black" stroke-width="2" fill="none" />
<polyline points="186.0,292.5,194.5,285.0,202.5,278.0,210.5,270.5,218.5,263.5,227.0,256.0,235.0,248.5,243.5,241.0,252.5,233.5,261.0,226.5,269.0,219.0,277.0,211.5,285.0,204.0,293.0,196.0,301.5,188.5" stroke="black" stroke-width="2" fill="none" />
<polyline points="300.5,192.0,308.5,185.0,316.5,177.0,325.0,169.0,333.0,161.5,341.0,154.0,348.5,147.0" stroke="black" stroke-width="2" fill="none" />
<polyline points="348.5,136.5,341.0,144.0,333.5,152.0,325.5,160.0,317.0,167.5,309.0,175.0" stroke="black" stroke-width="2" fill="none" />
<polyline points="305.0,182.5,305.0,190.5,306.0,198.5,306.0,207.5,306.5,215.5,306.5,223.5,306.5,232.0,307.5,240.0" stroke="black" stroke-width="2" fill="none" />
<polyline points="309.0,239.0,308.5,231.0,309.5,223.0,310.0,215.0,309.0,213.0" stroke="black" stroke-width="2" fill="none" />
<polyline points="334.5,202.5,344.0,201.5,339.5,210.0,339.5,218.5,339.5,227.0" stroke="black" stroke-width="2" fill="none" />
<polyline points="348.0,217.5,340.0,225.0,332.0,233.0,323.5,240.5,315.0,248.0,307.0,256.5,299.0,264.0,291.0,272.0,282.5,280.0,275.0,287.5,267.0,294.5,259.0,302.5,251.5,310.0,244.0,317.5,236.5,324.5,229.0,332.5,221.0,339.5,213.0,347.0,205.5,354.5,197.0,361.5,189.0,368.5,180.5,376.5,172.5,384.0" stroke="black" stroke-width="2" fill="none" />
<polyline points="164.5,381.5,172.5,380.5,180.0,379.5,187.5,379.0,195.0,378.5,203.0,378.0,211.0,378.5,219.0,379.0,227.0,379.0,235.5,379.5,243.5,379.0,251.5,378.5,259.5,378.0,268.0,377.5,276.0,377.0,284.0,375.5,292.5,375.0,300.5,374.0,308.5,373.0,317.0,372.0,325.5,371.0,333.0,371.0,341.0,370.5,348.5,370.5,356.0,370.0" stroke="black" stroke-width="2" fill="none" />
<polyline points="355.5,489.0,347.0,489.0,339.0,489.5,331.0,490.0,323.0,490.0,315.0,491.0,307.0,492.0,299.0,492.5,291.0,493.0,282.5,493.0,274.5,494.0,266.5,494.5,258.5,495.5,250.5,496.0,242.0,496.0,234.0,497.0,226.5,497.5,219.0,498.0,211.0,499.0,203.5,500.0,195.5,500.5,187.5,500.5,179.5,501.0,172.0,501.5,164.5,502.0" stroke="black" stroke-width="2" fill="none" />
<polyline points="162.0,509.5,170.5,509.0,178.5,509.0,186.5,509.0,195.0,509.5,203.0,509.0,210.5,508.0,218.5,507.5,226.5,507.5,234.5,507.0,242.0,506.5,250.0,505.5,258.0,504.5,266.0,503.5,274.5,502.0,283.0,500.5,291.0,500.0,299.0,499.5,307.5,499.0,315.5,498.5,323.5,497.5,331.5,497.5,339.0,497.0,347.0,496.5,355.0,496.5" stroke="black" stroke-width="2" fill="none" />
<polyline points="354.0,546.5,346.5,547.0,338.0,547.0,329.0,547.0,321.0,547.5,313.5,547.5,306.0,548.5,298.5,549.0,291.0,549.5,283.0,550.0,275.0,551.0,266.5,551.5,258.5,552.5,251.5,554.0,243.5,554.5,235.5,555.0,227.5,555.0,219.5,555.0,211.5,554.5,204.0,554.5,195.5,554.5,186.5,555.5,178.5,556.0,170.5,557.0,162.0,557.5" stroke="black" stroke-width="2" fill="none" />
<polyline points="163.0,548.0,171.0,547.5,179.0,548.0,186.5,547.5,194.5,546.5,203.0,546.0,210.5,546.0,217.5,546.0,225.5,546.0,233.5,545.5,241.5,545.5,249.5,545.0,257.5,544.5,265.5,544.0,274.0,543.5,282.0,543.0,290.5,542.5,298.5,541.5,307.0,540.5,314.5,539.5,323.0,538.5,331.0,538.5,339.5,538.5,347.5,538.5,355.0,539.0" stroke="black" stroke-width="2" fill="none" />
<polyline points="355.0,530.5,347.5,531.5,339.5,532.0,332.0,532.0,324.5,532.5,316.0,532.5,307.5,533.0,299.0,533.0,290.5,533.5,282.0,533.5,274.0,533.5,266.5,534.0,259.0,534.5,251.0,534.5,243.5,535.0,235.0,536.0,227.0,537.0,219.0,538.0,210.0,538.5,202.0,539.0,194.0,539.5,186.0,540.0,178.0,540.0,170.0,540.5,162.0,541.0" stroke="black" stroke-width="2" fill="none" />
<polyline points="163.0,534.5,171.5,534.0,180.0,533.5,188.5,533.0,197.0,532.0,204.5,531.0,212.5,530.0,220.0,529.5,227.5,529.0,235.0,528.5,243.0,528.0,251.0,528.0,259.5,528.0,268.0,528.0,276.5,527.0,284.5,526.5,292.0,526.0,299.5,525.5,307.5,524.5,315.5,523.5,323.5,523.0,331.0,523.0,339.0,522.5,346.5,521.5,354.5,520.5" stroke="black" stroke-width="2" fill="none" />
<polyline points="356.5,474.0,348.5,474.0,340.5,474.5,332.5,475.0,325.0,475.5,316.5,476.0,308.5,476.5,300.0,476.5,291.5,477.0,283.5,477.5,276.0,477.5,268.0,477.5,260.5,477.5,253.0,477.5,245.0,478.0,237.0,478.5,229.5,478.5,221.0,479.5,212.0,480.5,204.0,481.5,195.5,481.5,187.5,482.5,179.5,483.5,172.0,485.0,163.5,485.5" stroke="black" stroke-width="2" fill="none" />
<polyline points="163.0,476.0,171.5,475.0,179.5,474.5,187.0,474.0,195.0,473.0,203.5,473.0,212.0,472.5,221.0,472.0,229.5,472.0,238.5,472.5,246.5,472.0,254.0,471.0,262.0,470.0,269.5,469.0,276.5,468.5,284.5,468.0,292.0,467.5,299.0,468.0,306.5,467.5,314.5,467.5,322.0,466.5,330.5,466.0,339.0,465.5,347.5,464.5,356.0,464.0" stroke="black" stroke-width="2" fill="none" />
<polyline points="356.0,457.5,348.0,458.0,340.5,459.0,332.5,459.5,324.0,460.5,316.0,460.5,308.5,460.5,300.5,461.0,292.5,461.0,284.5,461.5,276.5,461.5,268.5,462.0,260.0,462.5,251.5,463.0,243.5,464.0,235.5,464.5,227.5,465.0,219.5,465.5,212.0,466.0,203.5,466.5,195.0,466.5,186.0,466.5,178.0,467.0,170.5,468.0,163.0,468.5" stroke="black" stroke-width="2" fill="none" />
<polyline points="162.0,461.5,170.0,460.0,178.5,459.5,186.5,458.5,194.5,458.0,202.5,458.0,210.5,457.5,218.0,457.5,226.0,457.0,234.5,457.0,242.5,456.5,251.0,456.0,258.5,455.5,266.5,455.5,274.0,456.0,282.0,455.5,290.5,454.5,299.5,453.5,308.0,452.5,316.0,451.5,324.0,450.5,332.0,450.5,339.5,450.5,347.0,450.5,354.5,451.0" stroke="black" stroke-width="2" fill="none" />
<polyline points="356.5,418.0,349.0,419.0,341.0,419.5,333.5,420.0,325.5,420.5,317.5,421.0,309.0,421.5,300.5,422.0,293.0,422.5,285.0,422.5,276.5,422.5,268.5,422.5,260.0,422.0,251.5,421.5,244.0,422.0,235.5,422.5,226.5,424.0,218.5,425.5,210.5,426.5,202.5,427.5,194.5,428.5,187.0,428.5,179.5,429.0,172.5,429.5,164.5,430.0" stroke="black" stroke-width="2" fill="none" />
<polyline points="163.0,421.5,170.5,421.0,178.5,420.5,187.0,420.0,195.5,419.0,203.5,418.0,211.0,417.5,219.0,417.0,226.5,416.5,234.5,415.5,243.0,414.5,250.5,414.0,258.0,414.0,266.0,414.0,274.0,414.0,282.0,414.5,290.5,414.0,298.5,414.0,306.5,413.5,315.0,413.0,323.0,412.5,331.5,412.0,339.5,411.0,348.0,410.0,356.0,408.5" stroke="black" stroke-width="2" fill="none" />
<polyline points="236.0,336.0,228.0,336.5,220.5,336.5,213.0,337.0,205.0,337.5,196.5,338.0" stroke="black" stroke-width="2" fill="none" />
<polyline points="195.5,331.5,203.5,331.0,211.0,330.0,219.0,329.5,226.5,329.5,234.5,328.5" stroke="black" stroke-width="2" fill="none" />
<polyline points="186.0,330.0,194.0,322.5,202.0,315.5,210.5,308.0,219.5,300.0,228.0,291.5,236.0,284.0,243.0,276.5,251.0,268.5,258.5,260.5,267.0,252.5,275.0,245.0,283.0,237.5,291.0,230.5,298.5,223.0,306.0,216.5,314.5,209.0,322.0,202.0,330.0,194.5,338.5,187.0,347.0,180.0" stroke="black" stroke-width="2" fill="none" />
<polyline points="345.0,186.0,336.5,193.0,329.0,200.5,322.0,208.0,315.0,215.5,307.5,222.5,300.0,230.5,292.5,238.5,284.5,246.5,276.5,254.0,269.0,261.5,261.0,268.5,253.0,276.5,244.5,284.0,235.5,291.5,226.5,299.0,218.5,307.0,210.0,314.5,202.0,322.0,194.0,330.5,186.0,338.0,178.5,345.5,170.5,353.0" stroke="black" stroke-width="2" fill="none" />
<polyline points="172.5,355.5,181.0,348.0" stroke="black" stroke-width="2" fill="none" />
<polyline points="179.0,361.5,187.0,354.0,195.0,346.5,203.0,339.0,211.0,331.5,219.0,323.5,227.0,316.0,235.5,308.5,243.0,301.0,251.0,294.0,259.5,287.0,267.5,280.0,275.0,272.0,283.5,264.0,291.5,256.5,300.0,248.5,308.0,241.0,316.0,233.0,323.0,225.5,330.5,217.5,338.0,210.0,346.0,202.5" stroke="black" stroke-width="2" fill="none" />
<polyline points="348.5,209.5,340.5,217.5,332.0,225.5,324.0,233.5,316.0,241.0,307.5,248.5,299.5,256.5,291.0,265.5,283.0,273.5,275.0,281.0,267.0,288.5,259.0,296.5,251.0,303.5,243.0,310.5,235.0,317.5,227.5,324.5,219.5,332.0,211.5,338.5,204.0,345.5,195.5,352.5,187.5,359.5,179.5,367.5,172.0,375.5" stroke="black" stroke-width="2" fill="none" />
<polyline points="170.5,372.0,178.5,364.5" stroke="black" stroke-width="2" fill="none" />
<polyline points="164.5,365.5,172.5,365.5,180.5,365.0,188.5,365.0,196.0,364.5,204.0,364.0,212.5,364.0,221.0,363.5,229.0,363.0,237.0,362.5,245.0,362.0,253.0,361.0,261.5,360.5,269.0,360.0,276.5,359.5,284.5,359.5,292.0,359.0,300.0,358.5,308.0,357.5,315.5,356.5,323.0,355.5,331.5,355.5,340.0,355.0,348.0,354.5,356.5,353.5" stroke="black" stroke-width="2" fill="none" />
<polyline points="355.5,401.0,347.0,401.0,338.5,401.5,330.0,402.0,321.5,402.5,314.0,402.5,306.5,403.0,299.0,403.5,291.0,404.0,283.5,404.5,275.0,405.0,267.0,406.5,259.0,407.5,250.0,407.5,242.0,408.0,234.0,409.0,226.0,409.5,218.0,409.5,210.0,410.0,202.5,410.5,194.5,411.5,186.0,412.0,178.0,413.0,170.0,413.5,162.5,413.5" stroke="black" stroke-width="2" fill="none" />
<polyline points="162.5,407.5,170.5,406.5,179.0,406.0,187.0,405.5,194.5,404.5,202.0,404.0,210.0,403.5,219.0,403.0,227.0,402.5,235.5,401.5,243.0,400.5,251.0,400.0,258.5,399.5,266.0,398.5,274.0,398.0,282.0,397.5,290.5,397.5,298.5,397.5,307.5,397.5,316.0,396.5,324.0,396.0,331.5,395.5,339.0,395.0,346.5,394.5,354.5,393.5" stroke="black" stroke-width="2" fill="none" />
<polyline points="355.5,386.0,347.5,387.0,340.0,388.0,332.5,389.0,324.5,389.5,316.0,390.0,307.5,390.5,299.0,390.5,291.0,390.5,282.5,391.0,274.5,391.5,266.0,392.5,257.5,394.0,249.0,394.5,240.5,395.0,233.0,395.0,225.5,395.5,217.5,395.5,209.5,396.0,201.5,396.5,193.5,396.5,185.5,397.5,177.5,398.0,169.5,398.0,161.5,398.0" stroke="black" stroke-width="2" fill="none" />
<polyline points="162.0,390.0,170.5,389.5,179.0,389.0,187.5,388.5,195.5,388.0,203.5,387.5,211.0,387.5,218.5,386.5,226.5,386.5,234.5,387.0,242.0,386.5,250.5,385.5,258.0,384.5,266.0,383.5,274.0,383.0,282.5,382.5,291.0,382.5,300.0,382.0,308.5,382.0,317.0,382.0,325.0,381.5,333.0,381.0,341.0,379.5,348.5,378.5,356.0,377.5" stroke="black" stroke-width="2" fill="none" />
<polyline points="355.0,361.5,347.0,362.0,339.0,363.0,331.5,363.5,323.5,363.5,315.0,364.5,307.5,365.0,299.5,366.0,291.5,366.5,283.5,367.0,275.5,367.5,267.5,368.5,260.0,369.0,252.0,369.5,244.5,370.5,236.0,371.0,228.0,371.0,220.0,371.0,212.5,371.5,205.0,371.5,197.0,372.0,188.5,372.0,180.5,372.0,173.0,372.5,165.0,372.5" stroke="black" stroke-width="2" fill="none" />
<polyline points="164.5,357.5,172.0,357.5,180.5,357.5,188.5,357.0,196.0,356.5,204.0,356.5,212.0,355.5,220.0,354.0,228.0,353.0,235.5,352.0,244.0,352.0,251.5,351.0,260.5,350.5,268.5,350.0,276.5,349.5,284.0,349.5,291.5,349.5,299.5,349.5,307.0,349.5,314.5,349.0,322.0,349.0,330.5,348.0,339.0,347.0,348.0,346.5,356.5,345.5" stroke="black" stroke-width="2" fill="none" />
<polyline points="355.0,338.0,346.5,338.5,338.5,339.0,331.0,339.5,323.5,340.0,315.0,340.5,307.5,341.0,299.5,342.0,292.0,343.0,284.0,343.5,276.0,343.5,267.5,343.0,259.0,342.5,250.5,342.5,242.5,343.0,234.5,343.5,227.0,344.0,219.5,345.0,211.5,346.0,204.0,347.0,196.0,347.5,188.5,348.5,180.5,349.5,171.5,351.0,163.0,351.5" stroke="black" stroke-width="2" fill="none" />
<polyline points="163.5,342.0,171.5,341.5,179.5,341.0,187.5,340.0,196.0,339.5,204.0,339.0,211.5,338.5,219.0,337.5,226.5,337.0,235.0,336.5,243.5,336.5,251.5,336.0,259.0,335.0,267.0,334.5,275.0,334.5,283.0,334.0,291.0,333.5,299.5,333.0,308.0,332.5,316.5,332.5,324.5,332.5,332.5,331.5,340.5,331.0,348.5,331.0,356.0,330.5" stroke="black" stroke-width="2" fill="none" />
<polyline points="356.0,314.5,348.0,315.5,340.0,315.5,332.5,316.0,324.5,316.0,316.0,317.0,308.0,317.5,300.5,318.0,292.5,318.0,285.0,318.0,277.5,318.5,269.0,319.5,260.5,320.0,252.5,320.5,244.0,320.5,236.0,321.0,228.0,321.5,220.0,322.0,212.5,322.5,204.5,323.0,196.5,323.5,187.5,323.5,179.0,324.0,171.0,324.0,163.0,324.0" stroke="black" stroke-width="2" fill="none" />
<polyline points="162.0,318.0,170.5,317.5,178.5,317.0,187.0,316.0,195.0,315.0,203.0,314.0,211.5,313.5,220.0,312.5,228.5,312.0,237.0,311.5,245.5,311.0,253.5,311.0,261.5,310.5,269.0,310.0,276.5,309.5,284.0,309.0,292.5,309.0,300.0,309.0,308.0,308.5,316.5,308.0,324.5,308.0,333.0,307.5,341.0,307.0,348.5,306.5" stroke="black" stroke-width="2" fill="none" />
<polyline points="347.0,299.5,339.0,300.0,331.5,301.0,323.5,301.5,316.0,301.5,307.5,301.5,300.0,301.5,292.0,301.5,284.5,301.5,276.0,302.0,268.0,302.0,260.0,302.5,251.5,302.5,243.0,302.5,235.5,303.5,228.0,304.5,220.5,305.0,212.5,306.0,203.5,306.0,196.0,306.5,188.5,306.5,180.5,307.0,172.0,307.5,164.0,307.5" stroke="black" stroke-width="2" fill="none" />
<polyline points="169.5,308.0,162.0,316.0" stroke="black" stroke-width="2" fill="none" />
<polyline points="171.0,323.5,179.0,316.0" stroke="black" stroke-width="2" fill="none" />
<polyline points="181.0,323.0,172.5,331.5" stroke="black" stroke-width="2" fill="none" />
<polyline points="170.0,337.0,178.0,329.5,186.0,321.5,194.0,314.5,202.0,307.0,210.5,299.5,219.0,292.0,227.0,284.0,235.5,276.5,244.0,268.5,253.0,261.0,261.5,254.0,269.5,246.0,277.5,238.5,285.0,230.5,293.0,223.0,300.5,215.5,308.5,208.0,316.0,201.0,323.5,194.0,331.0,186.5,338.5,179.5,346.5,172.0" stroke="black" stroke-width="2" fill="none" />
<polyline points="329.5,177.0,321.0,177.5" stroke="black" stroke-width="2" fill="none" />
<polyline points="321.5,182.5,321.0,190.0,322.0,198.5,322.5,207.5,323.5,215.0,324.0,223.0,325.0,231.0" stroke="black" stroke-width="2" fill="none" />
<polyline points="346.0,242.5,338.0,243.5,330.0,244.5,322.0,245.5,314.5,246.0,306.5,246.5,298.5,246.5,290.5,247.0,283.0,248.0,275.0,248.5,266.5,248.0,258.5,248.0,250.5,248.0,242.0,248.5,234.0,249.0,226.0,250.0,218.5,250.5,211.0,251.5,203.0,252.0,195.0,252.0,187.0,252.0,179.0,252.0,171.0,252.0,163.0,252.0" stroke="black" stroke-width="2" fill="none" />
<polyline points="161.0,251.0,169.5,248.0" stroke="black" stroke-width="2" fill="none" />
<polyline points="163.0,244.5,171.5,244.0,179.5,243.5,187.5,243.0,196.0,243.0,204.5,242.5,212.5,242.0,220.0,242.0,228.0,242.0,236.5,241.5,244.5,241.0,252.0,240.5,259.5,240.0,267.5,239.5,275.5,239.5,283.5,239.0,291.0,238.0,299.0,237.0,306.5,236.5,314.0,236.0,322.0,235.0,330.5,235.0,338.5,234.5,346.5,233.5" stroke="black" stroke-width="2" fill="none" />
<polyline points="348.0,216.5,340.5,216.5,333.0,216.5,325.0,217.0,317.0,217.5,309.5,217.5,301.0,218.5,292.0,219.5,284.0,220.5,275.5,220.5,267.5,221.5,259.5,222.5,252.0,224.0,243.5,224.5,236.0,225.0,228.0,225.0,220.0,225.5,211.5,225.5,203.5,226.0,195.5,227.0,187.0,228.0,179.0,229.5,170.5,230.5,162.0,231.5" stroke="black" stroke-width="2" fill="none" />
<polyline points="165.5,226.0,173.5,219.0,181.5,211.5" stroke="black" stroke-width="2" fill="none" />
<polyline points="188.5,213.5,197.0,207.0,205.0,199.5,213.5,192.0,221.5,184.5,229.0,177.0,236.0,169.0,244.0,161.5,251.5,154.0,259.5,145.5,267.0,137.5,275.0,129.5,283.0,122.0" stroke="black" stroke-width="2" fill="none" />
<polyline points="282.5,117.0,274.0,124.5,266.0,131.5" stroke="black" stroke-width="2" fill="none" />
<polyline points="269.0,134.0,272.0,138.0,271.5,145.5" stroke="black" stroke-width="2" fill="none" />
<polyline points="268.0,152.5,276.0,152.0" stroke="black" stroke-width="2" fill="none" />
<polyline points="279.0,156.0,282.0,163.5" stroke="black" stroke-width="2" fill="none" />
<polyline points="285.0,154.0,277.0,161.5,269.0,169.0,261.0,176.5,253.0,184.5,245.5,192.5,237.5,200.0,230.0,208.0,221.5,216.0,213.0,223.5,204.5,231.0,196.5,239.0,188.5,246.0" stroke="black" stroke-width="2" fill="none" />
<polyline points="187.5,251.5,195.5,244.5,203.5,237.0,211.5,229.0,219.5,221.0,227.5,213.0,235.0,206.0,242.5,198.0,250.5,190.5,258.5,183.0,267.0,176.0,275.0,168.5,284.0,162.0,292.5,155.5,301.0,148.0,309.5,140.5" stroke="black" stroke-width="2" fill="none" />
<polyline points="308.5,146.5,300.5,154.0" stroke="black" stroke-width="2" fill="none" />
<polyline points="292.5,162.0,284.5,169.5,277.0,177.5,269.0,185.0,260.5,193.0,252.0,201.0,244.0,208.5,236.0,216.0,228.0,223.5,220.0,230.5,212.0,238.0,204.0,246.0,196.5,253.5,188.0,261.5" stroke="black" stroke-width="2" fill="none" />
<polyline points="186.0,270.0,193.5,262.5,201.5,254.5,209.5,247.0,217.5,239.0,225.5,231.0,233.0,223.5,241.5,215.5,250.0,208.0,258.5,200.5,267.0,192.5,275.0,185.0,283.5,178.0,291.5,170.0" stroke="black" stroke-width="2" fill="none" />
<polyline points="292.0,178.5,284.0,186.0,275.5,194.0,267.0,201.0,259.0,208.5,250.5,215.5,242.5,223.0,235.0,231.0,226.5,238.5,218.0,246.0,210.0,253.5,202.5,260.5,194.5,268.0,186.5,276.0" stroke="black" stroke-width="2" fill="none" />
<polyline points="179.0,261.0,171.0,269.0,163.0,276.0" stroke="black" stroke-width="2" fill="none" />
<polyline points="165.0,276.5,172.5,276.0,180.5,276.5,188.5,276.5,196.5,276.0,204.5,276.0,212.0,275.5,220.5,275.5,228.0,275.0,235.5,274.0,243.0,273.5,251.5,273.0,260.0,272.5,268.5,272.0,277.0,271.0,284.5,270.0,292.5,269.0,300.0,268.5,307.5,268.0,315.0,267.5,323.0,267.0,331.0,267.0,339.5,267.0,348.0,267.0" stroke="black" stroke-width="2" fill="none" />
<polyline points="348.5,259.5,340.5,260.0,332.5,260.0,324.5,260.0,317.0,260.5,308.5,261.5,300.5,262.5,292.0,263.5,283.5,264.0,276.0,264.5,268.5,265.0,260.5,265.5,252.5,265.5,244.5,266.0,236.0,266.5,228.0,267.5,220.0,267.5,212.0,267.0,204.0,266.5,196.5,266.5,188.5,266.5,181.0,267.0,173.0,267.5,165.0,267.5" stroke="black" stroke-width="2" fill="none" />
<polyline points="161.5,267.5,169.0,260.0,176.5,252.5" stroke="black" stroke-width="2" fill="none" />
<polyline points="194.5,250.0,202.5,249.5,211.5,249.5,220.0,249.0,228.0,249.0" stroke="black" stroke-width="2" fill="none" />
<polyline points="219.5,234.0,212.0,234.0,204.5,234.5" stroke="black" stroke-width="2" fill="none" />
<polyline points="194.0,243.5,202.0,242.5,210.0,241.5,218.0,240.5,226.5,239.0" stroke="black" stroke-width="2" fill="none" />
<polyline points="211.0,209.0,203.5,209.0" stroke="black" stroke-width="2" fill="none" />
<polyline points="204.5,200.0,212.5,199.5" stroke="black" stroke-width="2" fill="none" />
<polyline points="220.0,193.0,228.0,192.5" stroke="black" stroke-width="2" fill="none" />
<polyline points="222.5,191.0,230.5,199.5,241.0,207.5" stroke="black" stroke-width="2" fill="none" />
<polyline points="228.5,185.5,220.5,186.0" stroke="black" stroke-width="2" fill="none" />
<polyline points="222.0,190.5,230.0,198.5,233.5,203.5,238.5,209.0,243.5,221.5,243.5,229.5,242.5,237.5" stroke="black" stroke-width="2" fill="none" />
<polyline points="229.0,257.0,220.5,257.5,212.5,258.0,204.5,258.0,196.5,258.0" stroke="black" stroke-width="2" fill="none" />
<polyline points="188.0,236.0,196.0,229.0,204.5,221.5,213.0,214.5,221.0,206.5,229.5,199.0,237.5,191.5,245.5,183.5,253.5,175.5,261.5,167.5,269.5,160.5,277.0,153.0,285.0,145.5,292.5,137.0,300.5,129.0,308.0,121.5,314.5,114.0,322.0,106.0,329.5,98.0,337.5,90.0" stroke="black" stroke-width="2" fill="none" />
<polyline points="341.0,86.0,348.5,85.0" stroke="black" stroke-width="2" fill="none" />
<polyline points="346.0,93.0,338.0,100.5,330.0,107.5,322.5,114.5,315.0,121.5,307.0,128.5,299.5,136.0,292.0,144.0" stroke="black" stroke-width="2" fill="none" />
<polyline points="291.5,129.5,283.5,130.0" stroke="black" stroke-width="2" fill="none" />
<polyline points="275.0,117.5,267.0,125.0" stroke="black" stroke-width="2" fill="none" />
<polyline points="266.5,117.5,273.0,125.0,275.0,130.0,281.5,133.0,282.0,142.0,293.0,145.5" stroke="black" stroke-width="2" fill="none" />
<polyline points="300.5,148.5,302.0,140.5,302.5,132.0" stroke="black" stroke-width="2" fill="none" />
<polyline points="307.0,131.5,307.5,132.5,312.0,140.5,312.0,148.0,315.5,155.5,314.5,159.5,312.5,161.0" stroke="black" stroke-width="2" fill="none" />
<polyline points="316.0,161.0,323.5,153.0,331.0,144.5,339.0,137.0,347.0,129.5" stroke="black" stroke-width="2" fill="none" />
<polyline points="348.5,122.5,340.5,130.0,332.5,137.0,324.5,145.0,316.5,152.5" stroke="black" stroke-width="2" fill="none" />
<polyline points="323.5,152.0,331.5,151.5" stroke="black" stroke-width="2" fill="none" />
<polyline points="331.5,143.5,323.5,144.0" stroke="black" stroke-width="2" fill="none" />
<polyline points="315.5,145.0,324.5,137.5,332.5,129.5,340.5,122.0,348.5,114.0" stroke="black" stroke-width="2" fill="none" />
<polyline points="346.5,108.5,338.5,115.5,331.0,123.5,323.5,131.0,315.5,139.0" stroke="black" stroke-width="2" fill="none" />
<polyline points="315.0,129.5,322.0,122.0,330.0,115.0,338.0,108.0,346.5,100.5" stroke="black" stroke-width="2" fill="none" />
<polyline points="347.5,90.5,339.5,91.5,331.5,92.5,323.5,93.5" stroke="black" stroke-width="2" fill="none" />
<polyline points="323.0,97.5,322.0,105.5" stroke="black" stroke-width="2" fill="none" />
<polyline points="315.5,106.5,307.0,114.0,298.5,121.0,290.5,128.5,282.5,137.0,275.0,144.5,267.0,152.5,259.0,160.0,252.0,168.0,244.5,175.5,236.5,183.5,228.5,191.0,220.0,198.5,211.5,206.0,203.5,213.5,196.0,221.5,188.0,228.5" stroke="black" stroke-width="2" fill="none" />
<polyline points="190.5,231.0,189.5,239.0,190.0,247.5,189.0,255.5,190.0,263.0,189.0,271.0" stroke="black" stroke-width="2" fill="none" />
<polyline points="164.0,299.5,172.0,298.5,180.5,298.0,188.5,297.5,196.5,297.5,204.5,297.5,212.0,297.0,219.0,297.0,226.0,297.0,234.0,297.0,242.0,296.5,250.5,296.0,258.5,295.0,266.5,294.5,275.5,293.5,284.0,293.5,291.5,293.5,299.5,294.0,307.5,294.0,315.5,294.0,323.5,293.5,331.5,293.0,338.5,291.5,346.5,290.5" stroke="black" stroke-width="2" fill="none" />
<polyline points="346.0,259.0,346.0,251.0" stroke="black" stroke-width="2" fill="none" />
<polyline points="345.5,194.5,338.0,202.0,330.0,209.5,322.5,217.0,315.5,224.5,308.0,232.5,300.5,240.0,293.5,247.0,285.5,254.5,278.0,262.5,270.0,270.0,262.0,277.5,253.5,285.0,245.0,292.5,237.0,300.0,228.5,308.0,219.5,316.0,210.0,324.0,201.5,332.0,193.0,339.5,184.5,347.0" stroke="black" stroke-width="2" fill="none" />
<polyline points="187.0,355.0,189.0,347.0,189.5,339.0,185.5,333.5,185.5,326.0,184.0,318.0,186.0,313.0,187.0,305.0,184.5,303.0,185.0,295.0,184.0,286.5,183.5,278.5,184.0,270.5,184.0,262.5,184.0,253.5,183.0,245.5,183.0,238.0,183.0,230.0,186.5,224.5,189.5,215.5,184.5,204.0,183.5,196.0,182.5,188.0,182.0,180.0,187.5,173.0,186.5,164.0,183.5,161.0,187.0,153.5,186.0,145.5,186.0,137.5,185.0,129.5,183.0,121.5,185.5,119.5,185.5,129.5" stroke="black" stroke-width="2" fill="none" />
<polyline points="183.5,125.0,195.5,129.5,196.5,137.5,193.5,145.0,193.5,153.0,195.5,161.0" stroke="black" stroke-width="2" fill="none" />
<polyline points="188.0,159.5,195.5,152.0,203.0,144.5,210.5,137.0,218.5,129.0,226.5,121.5,235.0,113.5" stroke="black" stroke-width="2" fill="none" />
<polyline points="229.5,115.0,221.0,123.0,213.0,130.5,205.0,138.0,196.5,145.0,188.5,152.0" stroke="black" stroke-width="2" fill="none" />
<polyline points="179.0,163.5,171.0,171.0,163.5,178.5" stroke="black" stroke-width="2" fill="none" />
<polyline points="162.0,181.5,170.0,180.5,178.5,180.0,187.0,179.5,196.0,179.0,204.0,178.5,212.0,178.5,220.5,177.5,228.5,177.5,236.0,177.5,243.5,177.0,252.0,176.5,260.0,176.0,267.5,175.0,275.0,174.0,282.5,173.0,290.5,172.0,299.0,171.5,307.0,171.0,315.5,170.5,323.5,169.5,331.5,169.5,339.5,169.0,347.5,169.0" stroke="black" stroke-width="2" fill="none" />
<polyline points="330.5,169.0,322.0,169.5" stroke="black" stroke-width="2" fill="none" />
<polyline points="324.0,163.0,332.0,162.5" stroke="black" stroke-width="2" fill="none" />
<polyline points="329.5,166.0,329.5,158.0,328.0,159.0" stroke="black" stroke-width="2" fill="none" />
<polyline points="347.0,186.0,339.0,186.5,331.5,187.0,323.5,187.5,316.0,188.0,307.5,189.0,299.0,189.5,291.0,190.0,282.5,190.0,274.5,190.5,266.5,191.0,258.5,191.5,251.0,192.0,243.5,192.5,235.5,193.0,226.5,193.0,218.5,193.5,211.0,193.5,203.0,193.5,195.0,194.5,186.5,195.0,178.5,196.0,170.0,196.0,162.5,196.5" stroke="black" stroke-width="2" fill="none" />
<polyline points="164.0,194.5,172.0,187.0,180.0,179.5" stroke="black" stroke-width="2" fill="none" />
<polyline points="186.0,183.5,187.5,191.0,185.5,196.5,189.0,204.0,185.0,212.0,186.0,219.5,176.0,228.5,176.5,237.0,177.5,245.0" stroke="black" stroke-width="2" fill="none" />
<polyline points="194.0,225.0,202.5,225.0,210.5,224.5,218.5,223.5" stroke="black" stroke-width="2" fill="none" />
<polyline points="220.5,215.0,212.5,215.5,204.0,216.0,196.0,216.5" stroke="black" stroke-width="2" fill="none" />
<polyline points="189.0,220.5,197.0,213.0,205.0,205.5,213.0,198.5,221.0,191.0,229.0,184.0,236.5,177.0,244.0,169.5,252.0,162.0,259.5,154.5,267.5,147.0,275.5,139.5,283.5,131.5,291.5,123.5,299.5,116.0" stroke="black" stroke-width="2" fill="none" />
<polyline points="301.5,114.0,300.5,122.0,300.5,130.5,298.0,134.5,298.5,142.5,295.0,150.5" stroke="black" stroke-width="2" fill="none" />
<polyline points="275.5,160.5,267.5,161.0" stroke="black" stroke-width="2" fill="none" />
<polyline points="261.5,141.5,253.0,148.5,245.0,155.5,236.5,163.5,228.5,171.0,220.5,178.5,211.5,185.5,202.5,192.5,193.5,199.0,185.0,205.5" stroke="black" stroke-width="2" fill="none" />
<polyline points="182.0,204.0,174.0,211.5,165.5,218.5" stroke="black" stroke-width="2" fill="none" />
<polyline points="163.0,222.0,170.0,221.5,178.0,221.5,185.5,221.0,193.5,220.5,201.5,220.0,210.0,219.0,219.0,217.0,227.5,216.0,235.5,215.5,243.0,215.0,251.5,214.0,259.5,213.5,267.0,213.0,275.0,212.0,283.5,212.0,292.0,211.5,301.0,211.0,309.5,211.0,318.5,211.5,326.5,211.0,334.0,210.0,342.0,209.0,349.5,208.0" stroke="black" stroke-width="2" fill="none" />
<polyline points="348.5,201.0,340.0,201.5,331.5,202.0,323.5,203.0,315.5,203.5,307.5,204.0,299.5,204.5,292.0,205.0,283.5,205.5,275.0,205.5,266.0,205.5,258.0,206.0,250.5,207.0,243.0,207.5,234.5,208.0,226.5,208.5,218.5,209.5,210.5,210.0,202.5,211.0,194.5,211.5,187.5,212.0,179.5,213.0,171.0,213.5,163.0,214.0" stroke="black" stroke-width="2" fill="none" />
<polyline points="164.5,211.0,172.5,204.0,180.5,196.5" stroke="black" stroke-width="2" fill="none" />
<polyline points="187.0,199.0,195.0,191.5,203.0,184.0,211.5,176.5,220.0,169.0,228.5,162.0,237.0,155.0,245.0,147.5,253.5,140.5,261.5,132.5" stroke="black" stroke-width="2" fill="none" />
<polyline points="260.5,140.0,268.5,142.0,277.0,144.5,278.0,153.0,285.5,161.5,283.5,172.0,282.5,180.0,280.0,187.5,277.0,195.5,263.0,203.5,260.0,211.5,262.0,219.5,261.5,227.5,261.5,235.5,262.0,243.5,262.0,251.0,263.0,258.5" stroke="black" stroke-width="2" fill="none" />
<polyline points="245.5,277.0,245.5,285.0,245.5,293.0,245.5,301.0,245.5,309.5,245.0,317.5,245.5,325.5,245.5,333.5" stroke="black" stroke-width="2" fill="none" />
<polyline points="173.5,341.5,173.0,332.5,173.0,324.0" stroke="black" stroke-width="2" fill="none" />
<polyline points="191.5,229.5,186.5,230.5,171.5,231.0,174.0,222.5,172.0,214.5" stroke="black" stroke-width="2" fill="none" />
<polyline points="165.5,204.0,173.0,203.5,180.5,203.5,188.0,203.5,195.0,203.0,202.5,202.5,210.5,202.0,218.0,201.5,226.0,200.5,234.0,200.5,242.0,200.5,250.0,199.0,258.5,198.5,266.5,197.5,274.5,197.0,282.5,197.0,290.5,196.5,298.0,196.5,306.0,196.0,314.5,196.0,322.5,195.5,331.0,195.0,338.5,194.5,346.5,194.5" stroke="black" stroke-width="2" fill="none" />
<polyline points="338.5,193.0,334.0,201.0,338.0,208.0,336.5,207.5" stroke="black" stroke-width="2" fill="none" />
<polyline points="316.0,120.5,308.0,121.0" stroke="black" stroke-width="2" fill="none" />
<polyline points="302.0,122.0,301.0,130.0,304.5,132.0,305.0,140.0,306.5,148.0,306.5,156.0,306.5,164.0" stroke="black" stroke-width="2" fill="none" />
<polyline points="346.0,153.0,338.0,153.0,330.5,153.0,323.0,153.5,314.5,154.5,306.5,155.5,299.0,156.0,291.0,156.5,283.5,157.0,275.5,158.0,267.0,159.0,258.5,159.5,250.5,160.0,243.0,160.5,234.5,161.0,227.0,161.0,219.5,161.5,212.0,162.0,204.0,163.0,196.0,163.5,188.0,165.0,180.0,165.5,172.5,166.0,164.5,166.5" stroke="black" stroke-width="2" fill="none" />
<polyline points="170.0,164.5,162.0,172.0" stroke="black" stroke-width="2" fill="none" />
<polyline points="163.0,174.0,171.0,173.0,179.5,172.5,188.0,172.0,195.5,171.5,203.5,171.5,212.0,170.5,220.5,170.0,228.5,169.5,236.5,169.5,244.5,169.0,252.5,168.5,259.5,168.0,267.0,167.5,274.5,167.5,282.5,166.5,290.5,165.5,298.5,164.5,306.5,163.0,315.5,161.5,324.0,161.0,331.5,160.5,340.0,161.0,348.5,161.5" stroke="black" stroke-width="2" fill="none" />
<polyline points="349.5,107.5,341.5,107.5,333.0,108.0,325.0,108.0,317.5,108.0,309.5,107.5,302.0,107.5" stroke="black" stroke-width="2" fill="none" />
<polyline points="308.0,104.5,304.0,105.5,296.0,113.0,297.0,118.0,296.0,126.0,293.0,134.0,288.5,142.0,288.5,150.0,291.5,151.0,296.5,154.0" stroke="black" stroke-width="2" fill="none" />
<polyline points="321.5,137.5,320.5,129.5,318.5,125.5,310.5,126.0,302.0,123.0" stroke="black" stroke-width="2" fill="none" />
<polyline points="314.0,101.0,322.5,100.5,331.0,100.0,339.5,99.5,347.5,99.0" stroke="black" stroke-width="2" fill="none" />
<polyline points="348.0,116.5,339.5,117.0,331.5,117.5,323.5,118.0,315.5,118.5,307.0,118.0,299.0,118.0,291.0,117.5,283.0,117.0,275.0,117.5,267.5,118.0,260.0,118.5,252.5,119.5,244.5,120.5,236.0,120.5,228.0,121.5,220.0,122.0,212.5,123.0,204.5,123.5,196.5,125.0,188.5,125.5,180.5,126.0,172.0,126.0,163.5,126.5" stroke="black" stroke-width="2" fill="none" />
<polyline points="164.5,131.5,172.5,124.0,180.5,116.0" stroke="black" stroke-width="2" fill="none" />
<polyline points="179.5,116.5,180.0,124.5,180.5,134.0,179.5,141.5,178.5,149.0,180.5,157.0,179.5,165.0,179.0,173.0,180.0,181.0,179.5,189.0,179.5,197.0,179.5,205.0,179.5,213.0,180.0,221.0,180.0,229.0,180.0,236.5,180.0,245.5,181.0,253.5,180.5,261.5,180.5,269.0,179.5,277.0,180.5,285.0,180.0,293.0,180.0,301.5,180.0,310.0,180.5,318.5,180.5,326.5,181.5,334.5,181.5,342.5,181.5,350.5,182.0,359.0,182.0,366.5,182.0,374.5,183.5,382.0,191.5,399.5" stroke="black" stroke-width="2" fill="none" />
<polyline points="187.0,561.0,178.5,561.5" stroke="black" stroke-width="2" fill="none" />
<polyline points="268.5,585.0,276.5,585.5" stroke="black" stroke-width="2" fill="none" />
<polyline points="277.5,592.0,269.5,590.5" stroke="black" stroke-width="2" fill="none" />
<polyline points="188.0,192.5,195.5,184.5,203.5,177.5,211.0,170.0,219.0,162.0,227.0,154.5,235.0,146.5" stroke="black" stroke-width="2" fill="none" />
<polyline points="227.5,147.0,219.0,154.0,211.0,162.0,203.5,169.0,196.0,176.5,188.0,183.5" stroke="black" stroke-width="2" fill="none" />
<polyline points="187.0,177.5,195.0,169.0,203.0,161.5,211.0,154.5,219.0,147.0" stroke="black" stroke-width="2" fill="none" />
<polyline points="218.0,146.5,221.0,154.5" stroke="black" stroke-width="2" fill="none" />
<polyline points="218.0,145.0,226.0,149.0,234.5,143.5,242.5,140.5,234.5,149.5,224.5,158.0,222.5,166.0,224.5,158.5,232.0,151.5,240.5,147.0" stroke="black" stroke-width="2" fill="none" />
<polyline points="244.5,139.5,252.5,132.5" stroke="black" stroke-width="2" fill="none" />
<polyline points="255.0,126.5,247.5,127.5" stroke="black" stroke-width="2" fill="none" />
<polyline points="246.5,127.5,244.5,135.5,232.5,144.5,221.5,152.5" stroke="black" stroke-width="2" fill="none" />
<polyline points="220.5,138.0,213.0,145.5,204.0,153.0,196.0,161.5,188.0,169.5" stroke="black" stroke-width="2" fill="none" />
<polyline points="180.5,170.5,172.0,178.5,164.5,186.5" stroke="black" stroke-width="2" fill="none" />
<polyline points="162.0,190.0,170.5,189.5,178.5,188.5,186.0,188.5,194.5,188.5,202.0,188.0,210.5,187.5,219.0,187.0,227.0,186.0,235.0,185.0,242.5,184.0,250.5,183.5,258.5,183.0,267.0,182.5,275.5,181.5,283.5,181.0,292.0,180.5,299.5,180.0,307.0,179.0,315.0,178.5,322.5,177.5,331.0,177.5,339.0,176.5,347.0,176.0" stroke="black" stroke-width="2" fill="none" />
<polyline points="347.0,145.5,339.0,146.5,330.0,146.5,322.0,147.0,314.0,148.0,306.0,148.5,298.0,148.5,290.0,149.0,282.5,149.5,274.5,150.5,266.0,151.0,258.0,152.0,250.0,152.5,242.5,152.5,234.5,153.5,226.0,154.5,218.0,155.0,210.5,155.5,203.0,156.0,196.0,156.0,189.0,156.5,182.0,157.0,174.0,157.0,165.5,157.0" stroke="black" stroke-width="2" fill="none" />
<polyline points="162.5,155.5,171.0,147.5,179.0,140.0" stroke="black" stroke-width="2" fill="none" />
<polyline points="180.0,133.5,172.0,140.5,164.0,148.0" stroke="black" stroke-width="2" fill="none" />
<polyline points="165.5,149.5,164.5,157.5,164.0,171.5,163.0,179.0" stroke="black" stroke-width="2" fill="none" />
<polyline points="163.0,163.0,171.0,155.5" stroke="black" stroke-width="2" fill="none" />
<polyline points="163.5,151.5,171.5,151.0,179.5,150.0,187.5,149.5,195.0,149.0,203.0,148.5,210.5,147.5,218.0,147.5,226.5,147.5,234.5,146.5,242.5,146.5,250.5,145.5,259.0,145.0,267.0,144.5,274.5,143.5,282.0,143.0,290.0,142.5,299.0,142.0,307.0,141.5,315.5,140.5,323.0,139.5,331.0,139.0,338.5,138.5,346.0,137.5" stroke="black" stroke-width="2" fill="none" />
<polyline points="346.0,131.5,337.5,133.0,329.0,133.5,320.5,134.0,313.0,134.0,305.5,134.5,297.5,134.5,289.5,135.0,281.5,135.5,273.5,135.5,265.5,136.5,257.5,137.0,249.5,137.0,241.5,137.0,233.5,138.0,225.5,138.5,218.0,139.0,210.0,140.0,202.5,140.5,195.0,141.0,187.0,141.5,179.0,142.0,171.0,143.0,163.0,144.0" stroke="black" stroke-width="2" fill="none" />
<polyline points="165.0,139.0,173.0,131.0,181.0,123.5" stroke="black" stroke-width="2" fill="none" />
<polyline points="193.0,119.0,198.0,121.0,198.0,129.5,197.5,138.0,197.5,145.5,197.5,153.5" stroke="black" stroke-width="2" fill="none" />
<polyline points="196.5,137.5,205.0,130.0,213.0,122.0,221.5,114.5,229.5,107.0" stroke="black" stroke-width="2" fill="none" />
<polyline points="228.0,98.5,235.5,91.5" stroke="black" stroke-width="2" fill="none" />
<polyline points="235.0,98.5,242.5,90.5" stroke="black" stroke-width="2" fill="none" />
<polyline points="256.0,88.0,262.0,92.0,262.0,100.0,261.0,109.0,264.5,117.0,260.5,125.0,258.5,133.0,260.0,141.0" stroke="black" stroke-width="2" fill="none" />
<polyline points="267.5,116.5,275.5,109.5" stroke="black" stroke-width="2" fill="none" />
<polyline points="268.5,101.0,277.0,93.5" stroke="black" stroke-width="2" fill="none" />
<polyline points="268.5,93.0,261.0,100.0" stroke="black" stroke-width="2" fill="none" />
<polyline points="256.5,91.5,253.0,99.0,247.5,107.0,237.5,111.0,232.0,118.5,226.0,122.5,219.5,130.5,213.5,131.5,221.5,129.5,232.0,119.5,239.0,109.5,247.0,108.5,255.5,105.0,262.5,110.0,271.0,120.5,280.0,131.5,288.0,135.5,293.5,133.0" stroke="black" stroke-width="2" fill="none" />
<polyline points="284.0,103.0,276.0,103.5,268.5,104.0,260.5,104.0,252.5,104.5,244.5,104.5,236.0,105.0,227.0,106.0,218.5,106.5,210.5,106.0,202.5,106.5,194.5,106.5,186.5,107.0,178.5,107.0,170.5,107.0,162.5,107.0" stroke="black" stroke-width="2" fill="none" />
<polyline points="163.0,104.5,171.0,97.0,179.0,89.5" stroke="black" stroke-width="2" fill="none" />
<polyline points="173.5,90.0,165.5,97.5" stroke="black" stroke-width="2" fill="none" />
<polyline points="162.5,100.5,171.0,100.0,179.5,99.5,187.5,99.5,196.0,99.5,203.5,100.0,212.0,99.5,220.5,98.5,228.5,98.0,236.5,97.0,244.5,96.5,252.0,96.5,260.5,96.5,268.5,96.0,276.0,95.5" stroke="black" stroke-width="2" fill="none" />
<polyline points="228.0,90.0,219.5,98.0,211.5,105.5,203.5,113.0,195.5,120.0" stroke="black" stroke-width="2" fill="none" />
<polyline points="196.0,114.0,204.0,106.0,211.5,98.5,219.5,91.0" stroke="black" stroke-width="2" fill="none" />
<polyline points="212.0,90.0,203.5,97.5" stroke="black" stroke-width="2" fill="none" />
<polyline points="202.5,91.0,195.0,99.0" stroke="black" stroke-width="2" fill="none" />
<polyline points="192.5,103.5,189.5,111.5,199.0,114.0,200.0,119.0,199.5,127.0,199.5,135.0,199.0,143.0" stroke="black" stroke-width="2" fill="none" />
<polyline points="196.0,129.0,204.5,121.5,212.0,114.5,220.0,107.0" stroke="black" stroke-width="2" fill="none" />
<polyline points="219.0,119.5,211.0,120.0,203.0,120.0" stroke="black" stroke-width="2" fill="none" />
<polyline points="212.5,127.5,220.5,127.0" stroke="black" stroke-width="2" fill="none" />
<polyline points="228.5,124.5,228.5,132.5" stroke="black" stroke-width="2" fill="none" />
<polyline points="205.5,111.0,195.0,110.0" stroke="black" stroke-width="2" fill="none" />
<polyline points="190.0,110.5,195.0,106.5,191.5,107.0,202.0,107.5,210.0,112.5,222.0,111.0,229.5,118.0,242.5,116.0,240.0,115.0,237.0,122.5,236.0,131.0" stroke="black" stroke-width="2" fill="none" />
<polyline points="211.5,175.5,203.5,175.5" stroke="black" stroke-width="2" fill="none" />
<polyline points="203.5,183.5,212.0,183.5" stroke="black" stroke-width="2" fill="none" />
<polyline points="181.0,187.5,173.0,195.0,165.0,203.0" stroke="black" stroke-width="2" fill="none" />
<polyline points="171.0,196.0,171.0,204.0,176.0,215.0,177.0,223.0" stroke="black" stroke-width="2" fill="none" />
<polyline points="163.5,134.5,171.0,134.0,179.5,133.5,187.5,133.0,195.5,132.5,203.5,132.0,211.5,131.5,219.5,130.5,227.5,129.5,234.5,129.5,242.0,129.0,250.5,128.5,259.0,128.0,267.5,127.5,275.5,127.0,283.5,126.5,291.0,126.5,298.5,125.5,306.5,125.5,314.5,126.0,322.0,125.5,330.5,124.5,338.0,123.5,346.0,122.5" stroke="black" stroke-width="2" fill="none" />
<polyline points="347.5,107.5,340.0,108.0,332.0,108.5,324.5,109.5,316.0,110.0,308.0,110.0,300.0,110.0,292.5,110.5,285.0,110.5,277.0,111.0,268.5,111.0,260.5,111.0,253.0,111.5,245.0,111.5,237.0,112.5,228.5,113.0,220.5,113.5,212.5,113.5,203.5,114.5,195.5,115.0,188.0,115.5,180.0,116.5,171.5,117.0,164.0,118.0" stroke="black" stroke-width="2" fill="none" />
<polyline points="163.0,123.5,171.0,116.0,179.0,108.5" stroke="black" stroke-width="2" fill="none" />
<polyline points="180.0,100.0,172.0,107.0,163.5,114.5" stroke="black" stroke-width="2" fill="none" />
<polyline points="165.0,92.5,173.0,91.5,180.5,91.0,189.0,90.5,197.5,90.0,206.0,90.0,213.0,89.5,220.5,90.0,228.0,90.5,235.5,90.5,243.0,90.5,251.5,90.0,260.5,88.5,268.5,87.5,276.0,86.5" stroke="black" stroke-width="2" fill="none" />
<polyline points="276.5,80.5,268.0,81.5,260.0,81.5,252.5,81.5,244.5,82.0,236.5,82.0,228.5,82.5,220.5,82.5,212.5,83.0,204.0,83.5,195.5,84.0,187.5,85.0" stroke="black" stroke-width="2" fill="none" />
<polyline points="194.5,92.5,187.0,100.0" stroke="black" stroke-width="2" fill="none" />
<polyline points="165.5,85.5,160.5,93.5,160.0,101.5,160.0,110.0,160.5,118.0,160.0,126.5,160.5,134.5,160.5,142.5,160.5,150.5,160.5,158.0,160.5,166.0,160.5,174.5,160.5,182.5,160.5,191.0,161.5,199.0,161.5,207.0,160.5,214.5,161.5,222.0,161.5,229.5,161.0,237.5,161.5,246.0,161.0,253.5,161.5,261.5,162.0,269.5,161.5,277.5,161.5,286.0,161.0,294.0,161.0,302.5,160.5,310.5,161.5,319.0,160.5,327.0,161.5,334.5,162.0,342.5,162.5,350.5,162.5,358.0,163.0,366.0,163.0,374.0,163.0,381.5,163.0,390.0,163.5,398.0,164.0,406.0,164.5,414.0,164.0,422.5,163.5,430.5,163.5,438.5,163.5,447.0,163.0,455.0,162.5,463.0,162.0,471.0,162.0,479.0,162.0,487.0,162.0,494.5,162.0,502.5,163.0,510.5,163.5,518.5,163.5,526.5,163.5,534.5,163.5,542.0,163.5,550.0,163.5,558.0,163.5,566.0,163.5,574.0,164.5,582.0,164.5,590.0,164.5,598.0,164.0,606.0,164.0,614.0,165.0,622.0,164.0,630.0,164.0,638.0,165.0,646.0,164.0,654.0,165.0,662.0,165.5,670.0,165.5,678.0,167.0,686.5,167.0,694.5,167.5,703.0,168.5,706.0,176.0,710.0,184.0,710.0,192.0,710.0,200.5,710.0,208.5,710.0,216.5,709.5,224.5,709.5,232.0,710.0,240.0,709.0,248.0,710.0,255.0,710.0,262.5,710.0,271.0,710.0,279.0,710.0,287.0,709.5,295.5,709.0,304.0,708.5,311.5,708.5,319.5,708.5,328.0,709.5,335.5,709.0,343.5,708.0" stroke="black" stroke-width="2" fill="none" />
<polyline points="326.5,95.0,325.5,102.0,330.5,103.0,329.0,94.5" stroke="black" stroke-width="2" fill="none" />
<polyline points="328.5,86.5,319.5,95.0,312.5,103.0,314.5,111.5" stroke="black" stroke-width="2" fill="none" />
<polyline points="341.5,83.5,333.5,88.5,325.5,89.5,317.0,97.5,309.0,104.5,300.5,104.5,292.5,112.5,284.5,115.5,279.5,114.5,276.5,106.5,274.5,98.0,274.5,90.0,273.0,83.5,265.0,84.0,257.5,84.0,250.0,84.5,242.0,85.0,234.0,84.5,225.5,84.5,217.0,84.0,208.5,84.0,200.0,83.5,192.0,83.5,184.0,83.5,176.0,84.0,168.0,85.0,160.0,91.0" stroke="black" stroke-width="2" fill="none" />
</svg>