<svg xmlns="http://www.w3.org/2000/svg" version="1.1"><polyline points="2.0,1.5,2.0,9.5,2.0,17.5,2.5,25.5,3.0,34.0,3.5,42.0,4.0,50.5,4.0,59.0,4.5,67.0,4.5,75.0,4.5,83.0,4.5,91.0,4.5,99.0,4.0,107.0,4.0,115.0,4.0,123.5,4.0,131.5,4.0,139.0,4.0,147.0,4.5,155.0,4.5,163.0,4.5,171.0,4.5,179.0,4.5,187.0,4.0,195.0,3.5,203.0,3.5,210.5,3.0,218.0,3.0,226.0,2.5,234.0,2.0,242.0,2.5,250.0,2.5,258.0,3.0,266.0,3.0,274.5,3.5,282.5,3.5,290.5,4.0,298.5,4.0,307.0,4.0,315.5,4.0,323.5,4.5,331.5,4.5,339.0,9.0,343.0,16.5,343.5,24.0,343.5,31.5,343.5,39.5,343.0,47.0,343.0,55.0,342.5,63.0,342.5,71.0,342.5,79.0,342.5,87.5,342.5,96.0,342.5,104.0,342.5,112.0,342.0,120.5,342.0,128.5,341.5,137.0,341.0,145.5,341.0,153.0,341.0,161.0,341.5,169.0,341.5,177.5,341.5,185.5,341.5,193.5,342.0,201.5,342.0,209.5,342.0,217.0,342.0,225.0,342.5,233.0,342.0,241.0,342.0,249.0,342.0,257.0,342.0,265.0,342.0,273.0,342.0,281.0,342.0,289.5,342.0,297.5,342.0,305.0,342.0,313.0,342.5,321.0,342.5,328.5,342.5,336.5,342.5,344.0,342.5,352.0,342.0,360.0,341.5,368.0,341.5,376.0,341.5,384.0,341.5,392.0,341.0,400.0,340.5,408.0,340.5,416.0,340.5,424.0,340.5,432.0,340.5,440.0,340.5,447.5,340.5,455.5,340.5,463.5,340.5,471.5,340.5,479.5,340.5,488.0,340.5,495.5,340.5,503.5,340.5,511.5,341.0" stroke="black" stroke-width="2" fill="none" />
<polyline points="444.0,195.0,451.5,187.5" stroke="black" stroke-width="2" fill="none" />
<polyline points="451.5,188.5,444.0,189.0,437.0,189.5,429.5,190.0,422.0,191.0,413.5,192.0" stroke="black" stroke-width="2" fill="none" />
<polyline points="409.5,193.5,417.0,186.5" stroke="black" stroke-width="2" fill="none" />
<polyline points="413.5,183.5,421.0,183.0" stroke="black" stroke-width="2" fill="none" />
<polyline points="419.0,179.5,411.0,187.0" stroke="black" stroke-width="2" fill="none" />
<polyline points="402.5,188.0,411.0,188.0,419.0,188.0,427.5,188.0,435.5,187.5,443.5,187.5,451.5,187.0,459.0,186.5,467.5,186.0" stroke="black" stroke-width="2" fill="none" />
<polyline points="475.0,177.5,466.5,178.0,458.5,178.5,450.5,178.5,442.0,179.0,434.0,180.0,426.5,181.0,418.5,181.5,411.0,182.5,403.0,183.0" stroke="black" stroke-width="2" fill="none" />
<polyline points="400.5,185.5,408.5,177.0,402.5,182.5,401.5,190.5,404.5,199.0,388.5,207.0,377.0,214.5,369.5,222.5,360.5,230.0,351.5,238.0,344.5,245.5,335.5,254.0,328.0,262.5,323.0,271.0,328.5,275.5,334.5,269.5,338.0,273.5,346.0,267.0,354.5,261.0,362.5,255.0,370.5,249.0,378.5,242.0,386.5,237.5,394.5,231.0,402.5,219.0,410.0,207.5,418.0,203.5,426.5,202.5,434.0,200.5,442.0,198.5,444.0,190.5,454.0,194.5,462.5,192.5,470.5,190.5" stroke="black" stroke-width="2" fill="none" />
<polyline points="452.0,195.0,444.0,195.5,436.0,195.0,428.0,195.0,420.0,195.0,412.5,195.5,404.5,196.0" stroke="black" stroke-width="2" fill="none" />
<polyline points="402.5,203.0,394.5,210.5,387.0,218.0,379.0,225.0,372.0,232.0,364.5,239.5,356.5,247.0,348.0,254.5,340.0,262.5" stroke="black" stroke-width="2" fill="none" />
<polyline points="339.0,266.0,347.5,266.0" stroke="black" stroke-width="2" fill="none" />
<polyline points="340.5,256.5,348.5,256.0,356.5,256.0" stroke="black" stroke-width="2" fill="none" />
<polyline points="354.0,252.5,362.0,245.0,369.5,238.0,377.5,230.5,386.0,223.0,394.5,215.0,402.5,207.0,411.0,199.5,419.5,192.0,427.5,184.5,436.0,177.0,444.0,169.0,452.0,161.5,460.0,154.0" stroke="black" stroke-width="2" fill="none" />
<polyline points="460.0,162.0,452.0,170.0,444.0,178.0,435.5,185.5,427.5,193.0,419.0,200.0" stroke="black" stroke-width="2" fill="none" />
<polyline points="417.5,202.5,406.5,210.0,402.5,218.0,398.0,226.0,387.0,234.0,376.0,242.0,366.0,250.0,356.5,258.0,345.5,266.0,335.0,267.0" stroke="black" stroke-width="2" fill="none" />
<polyline points="333.0,269.0,341.5,268.5" stroke="black" stroke-width="2" fill="none" />
<polyline points="332.0,264.5,340.0,256.5,348.0,248.5,356.0,241.5,364.0,234.0,372.0,227.0,380.5,219.5,388.5,212.0" stroke="black" stroke-width="2" fill="none" />
<polyline points="387.5,207.0,395.5,206.0,403.5,205.0,412.0,204.0,420.5,203.0,429.0,202.5" stroke="black" stroke-width="2" fill="none" />
<polyline points="425.5,202.0,433.5,194.5,441.0,187.5,449.0,180.0,457.5,173.0" stroke="black" stroke-width="2" fill="none" />
<polyline points="460.0,166.0,452.5,166.5,444.0,167.0" stroke="black" stroke-width="2" fill="none" />
<polyline points="441.5,160.0,449.5,160.0,457.5,160.0" stroke="black" stroke-width="2" fill="none" />
<polyline points="450.5,153.5,442.5,161.0,434.0,168.5" stroke="black" stroke-width="2" fill="none" />
<polyline points="436.0,167.5,444.0,167.0,452.0,166.5,460.0,166.0" stroke="black" stroke-width="2" fill="none" />
<polyline points="466.5,171.0,474.5,173.5" stroke="black" stroke-width="2" fill="none" />
<polyline points="450.0,185.5,442.0,185.5,434.0,185.5" stroke="black" stroke-width="2" fill="none" />
<polyline points="435.0,177.5,443.5,177.5,452.0,177.0" stroke="black" stroke-width="2" fill="none" />
<polyline points="454.5,175.0,446.5,185.0,438.5,192.0,431.0,194.0,441.0,190.5,450.0,182.0,455.5,174.0,458.5,166.0,456.5,158.0,456.0,154.0,447.5,152.5,439.5,154.0,431.5,158.0,423.0,164.0,415.0,172.0" stroke="black" stroke-width="2" fill="none" />
<polyline points="418.5,170.0,410.5,178.0" stroke="black" stroke-width="2" fill="none" />
<polyline points="410.0,170.5,402.0,178.0" stroke="black" stroke-width="2" fill="none" />
<polyline points="403.5,169.5,411.5,161.5" stroke="black" stroke-width="2" fill="none" />
<polyline points="402.0,162.0,394.0,169.5,386.5,176.5" stroke="black" stroke-width="2" fill="none" />
<polyline points="378.5,177.5,386.5,170.0,395.0,163.0,402.5,155.5" stroke="black" stroke-width="2" fill="none" />
<polyline points="402.5,148.0,394.5,155.0,386.5,162.5,378.5,170.0,370.5,177.5,363.0,185.0" stroke="black" stroke-width="2" fill="none" />
<polyline points="364.5,185.5,356.5,186.5" stroke="black" stroke-width="2" fill="none" />
<polyline points="359.5,186.0,350.0,194.0,346.0,204.5,336.5,212.5,326.5,220.5,313.0,228.5,301.5,236.0,292.5,244.0,286.0,244.0,278.5,253.0,287.0,247.5,294.5,240.5,303.0,234.5,311.0,228.5,319.0,223.5,327.0,218.5,335.0,212.5,343.5,207.0,351.0,204.0,359.0,197.0,364.0,189.0" stroke="black" stroke-width="2" fill="none" />
<polyline points="365.0,189.5,357.5,190.5,349.5,191.0,341.0,192.0,333.0,192.5" stroke="black" stroke-width="2" fill="none" />
<polyline points="342.0,192.5,350.0,192.0,358.0,192.0" stroke="black" stroke-width="2" fill="none" />
<polyline points="356.0,193.0,348.0,201.0,340.0,209.0" stroke="black" stroke-width="2" fill="none" />
<polyline points="349.0,202.0,341.5,202.5,333.5,203.0,325.5,203.5" stroke="black" stroke-width="2" fill="none" />
<polyline points="337.5,206.5,329.5,206.5,321.0,207.0,313.0,207.5" stroke="black" stroke-width="2" fill="none" />
<polyline points="308.0,206.5,315.5,206.0,323.5,205.0,331.5,204.0,339.5,203.5,347.0,203.5" stroke="black" stroke-width="2" fill="none" />
<polyline points="341.0,188.0,333.5,195.0,325.0,202.5,316.5,209.5,309.0,217.5,301.0,225.0,292.5,232.5,285.0,239.5,277.5,247.5" stroke="black" stroke-width="2" fill="none" />
<polyline points="276.0,249.5,283.5,248.5" stroke="black" stroke-width="2" fill="none" />
<polyline points="284.0,246.5,292.0,239.0,299.5,231.5,307.0,224.0,314.5,216.5,322.5,209.5,330.5,202.5,338.5,195.0,346.5,188.0,354.0,181.0,361.5,173.0" stroke="black" stroke-width="2" fill="none" />
<polyline points="364.5,169.5,356.5,169.5" stroke="black" stroke-width="2" fill="none" />
<polyline points="353.5,171.0,361.5,163.5" stroke="black" stroke-width="2" fill="none" />
<polyline points="365.0,163.5,372.5,164.5,378.5,146.5" stroke="black" stroke-width="2" fill="none" />
<polyline points="379.0,149.5,387.5,149.0,395.5,148.0,403.5,147.5" stroke="black" stroke-width="2" fill="none" />
<polyline points="403.0,139.5,395.0,146.5,387.5,154.0,379.0,161.5,370.5,169.0,362.5,176.0,354.0,184.5,346.0,192.0,338.0,199.5,330.5,208.0,322.5,215.5,314.5,222.5" stroke="black" stroke-width="2" fill="none" />
<polyline points="306.0,219.5,314.0,219.0,323.0,218.5,331.5,217.5" stroke="black" stroke-width="2" fill="none" />
<polyline points="313.5,195.0,321.0,195.0,329.5,194.5,337.5,194.0,346.0,193.5,354.5,193.0,363.0,193.0" stroke="black" stroke-width="2" fill="none" />
<polyline points="366.5,186.5,361.0,194.5,353.0,202.5,351.5,190.5,359.5,185.5,367.0,184.5,375.0,181.5,383.0,179.5,391.5,177.5,399.5,175.0" stroke="black" stroke-width="2" fill="none" />
<polyline points="395.5,169.5,387.5,169.0,379.5,169.5" stroke="black" stroke-width="2" fill="none" />
<polyline points="380.0,163.5,388.0,163.0,396.0,162.0" stroke="black" stroke-width="2" fill="none" />
<polyline points="402.0,153.5,394.0,153.5,385.5,154.5" stroke="black" stroke-width="2" fill="none" />
<polyline points="379.5,154.5,387.5,146.5,395.0,139.0" stroke="black" stroke-width="2" fill="none" />
<polyline points="396.0,139.0,402.0,147.0,400.5,155.0,396.5,163.0,387.0,171.0" stroke="black" stroke-width="2" fill="none" />
<polyline points="379.5,158.5,387.5,158.0,396.0,158.0,404.0,157.5,412.0,156.5,419.5,156.0" stroke="black" stroke-width="2" fill="none" />
<polyline points="436.0,158.5,444.0,157.5,452.5,157.0,460.0,156.5" stroke="black" stroke-width="2" fill="none" />
<polyline points="450.0,149.5,442.0,149.5" stroke="black" stroke-width="2" fill="none" />
<polyline points="441.0,153.0,425.5,161.0,418.0,169.0,414.5,177.0,413.0,184.5,422.0,182.0,430.0,180.0,437.0,161.0" stroke="black" stroke-width="2" fill="none" />
<polyline points="439.0,158.5,433.0,166.5,433.0,175.0" stroke="black" stroke-width="2" fill="none" />
<polyline points="437.5,175.0,445.5,174.5,453.0,174.0,461.0,173.0,469.5,172.5,477.0,171.5" stroke="black" stroke-width="2" fill="none" />
<polyline points="450.0,186.0,447.0,194.0" stroke="black" stroke-width="2" fill="none" />
<polyline points="429.0,200.5,421.0,201.0,413.0,202.0" stroke="black" stroke-width="2" fill="none" />
<polyline points="410.5,210.0,402.5,217.0,394.5,224.5,386.5,232.5" stroke="black" stroke-width="2" fill="none" />
<polyline points="394.0,222.5,386.0,222.5,378.0,222.5" stroke="black" stroke-width="2" fill="none" />
<polyline points="370.5,222.0,379.0,221.0,387.0,220.0,395.0,219.0,403.5,219.0,411.5,218.0" stroke="black" stroke-width="2" fill="none" />
<polyline points="412.0,211.0,404.0,211.5,396.0,212.0" stroke="black" stroke-width="2" fill="none" />
<polyline points="403.5,217.5,395.5,217.5,387.0,218.0" stroke="black" stroke-width="2" fill="none" />
<polyline points="380.0,212.0,388.0,212.0,396.0,212.0,404.5,211.5,412.5,211.5,421.0,211.0" stroke="black" stroke-width="2" fill="none" />
<polyline points="422.0,207.0,414.0,215.0,416.5,213.0,423.5,205.0" stroke="black" stroke-width="2" fill="none" />
<polyline points="410.0,222.0,402.0,223.0" stroke="black" stroke-width="2" fill="none" />
<polyline points="388.5,234.0,380.0,234.5,372.0,235.0" stroke="black" stroke-width="2" fill="none" />
<polyline points="379.0,239.5,370.5,240.0,362.0,241.0" stroke="black" stroke-width="2" fill="none" />
<polyline points="356.0,240.0,364.0,239.5,372.0,238.5,379.5,237.5,387.5,236.0" stroke="black" stroke-width="2" fill="none" />
<polyline points="396.5,228.5,388.0,228.5,380.0,228.5,372.0,229.0,364.0,229.0" stroke="black" stroke-width="2" fill="none" />
<polyline points="371.5,247.5,363.5,248.0,355.5,248.5,348.0,249.0" stroke="black" stroke-width="2" fill="none" />
<polyline points="348.5,244.0,356.5,244.0,364.0,244.0,372.0,243.5,380.0,243.0" stroke="black" stroke-width="2" fill="none" />
<polyline points="365.0,251.0,357.0,252.0,349.0,252.5,340.5,253.5" stroke="black" stroke-width="2" fill="none" />
<polyline points="333.0,262.0,340.5,261.5,349.0,260.5,357.0,260.0" stroke="black" stroke-width="2" fill="none" />
<polyline points="323.0,267.5,331.0,257.5,339.5,250.0,347.5,241.0,355.5,234.0,363.5,226.5,371.5,220.0,379.0,213.0,387.0,208.5,394.5,204.0,402.5,200.5" stroke="black" stroke-width="2" fill="none" />
<polyline points="386.0,174.5,378.5,176.0,370.5,177.0,363.0,178.0,355.5,178.5" stroke="black" stroke-width="2" fill="none" />
<polyline points="348.5,173.0,356.5,172.5,364.5,172.5,372.5,172.0,380.0,171.5,388.0,171.5,396.0,171.0,404.0,171.5,412.0,171.0,420.0,171.0" stroke="black" stroke-width="2" fill="none" />
<polyline points="395.0,146.0,387.0,146.0" stroke="black" stroke-width="2" fill="none" />
<polyline points="381.0,142.5,389.0,141.5,396.5,140.5,404.5,140.0" stroke="black" stroke-width="2" fill="none" />
<polyline points="392.5,131.5,384.5,132.0" stroke="black" stroke-width="2" fill="none" />
<polyline points="387.0,135.5,371.0,143.5,362.5,152.0,358.5,160.0,364.0,167.5,366.0,176.5,374.0,176.5,375.5,178.5,388.5,169.5,396.5,159.5,409.5,150.5,411.5,154.0" stroke="black" stroke-width="2" fill="none" />
<polyline points="420.5,162.0,412.0,162.5,404.0,163.0,396.5,164.0,388.5,164.5,380.5,165.0,372.5,165.5,364.0,166.0,356.0,166.0,348.0,166.5" stroke="black" stroke-width="2" fill="none" />
<polyline points="351.0,162.0,346.0,170.0,348.0,177.5,339.0,185.5,325.0,194.0,315.0,202.0,305.5,210.0,297.5,218.0,289.5,225.5,280.0,233.5,273.0,241.5,267.0,249.5,272.5,253.5,280.5,247.0,290.0,238.5" stroke="black" stroke-width="2" fill="none" />
<polyline points="293.0,236.0,284.0,244.0,280.5,252.0" stroke="black" stroke-width="2" fill="none" />
<polyline points="285.0,243.5,293.0,243.0" stroke="black" stroke-width="2" fill="none" />
<polyline points="293.0,233.0,301.0,233.0,309.5,233.0" stroke="black" stroke-width="2" fill="none" />
<polyline points="315.5,224.0,307.5,224.5,299.0,225.0" stroke="black" stroke-width="2" fill="none" />
<polyline points="292.5,223.0,300.5,222.0,308.5,221.5,316.0,221.0,323.5,220.0,331.5,219.5" stroke="black" stroke-width="2" fill="none" />
<polyline points="340.0,213.0,332.0,213.0,324.0,212.5,316.0,212.5,308.5,212.5,300.5,213.0" stroke="black" stroke-width="2" fill="none" />
<polyline points="316.0,229.0,308.5,230.0,300.5,230.5,292.5,231.0,284.5,231.0" stroke="black" stroke-width="2" fill="none" />
<polyline points="274.5,237.0,282.5,236.5,290.5,236.0,298.5,235.5" stroke="black" stroke-width="2" fill="none" />
<polyline points="292.5,243.5,284.5,244.0,276.0,245.0,268.0,245.0" stroke="black" stroke-width="2" fill="none" />
<polyline points="266.0,250.5,274.0,240.5,282.0,232.5,290.5,224.5,299.0,216.5,307.5,210.5,316.0,202.0,324.0,196.0,332.0,189.5,340.0,185.0,348.0,181.5" stroke="black" stroke-width="2" fill="none" />
<polyline points="341.0,180.5,349.0,179.5,357.0,179.0,364.5,179.0,371.5,178.5,379.0,178.5,387.0,177.5" stroke="black" stroke-width="2" fill="none" />
<polyline points="364.0,161.0,356.5,162.0" stroke="black" stroke-width="2" fill="none" />
<polyline points="354.0,161.0,361.5,153.0" stroke="black" stroke-width="2" fill="none" />
<polyline points="362.5,144.5,354.5,152.5,346.5,160.5" stroke="black" stroke-width="2" fill="none" />
<polyline points="348.0,153.5,356.0,146.0" stroke="black" stroke-width="2" fill="none" />
<polyline points="348.5,148.0,340.5,155.5,332.5,162.5" stroke="black" stroke-width="2" fill="none" />
<polyline points="324.0,162.5,333.0,155.0,341.0,147.5,349.0,140.0" stroke="black" stroke-width="2" fill="none" />
<polyline points="351.5,138.5,359.5,134.0,367.5,138.5" stroke="black" stroke-width="2" fill="none" />
<polyline points="371.5,138.5,363.0,139.0,354.5,140.0,346.5,140.0,338.5,140.5,330.5,140.5,322.0,140.5,314.0,140.5" stroke="black" stroke-width="2" fill="none" />
<polyline points="307.5,140.0,299.5,147.5" stroke="black" stroke-width="2" fill="none" />
<polyline points="296.5,145.5,291.5,153.5,297.0,162.0,287.5,170.0,272.5,178.0,262.0,186.0,253.0,194.0,243.0,202.0,232.0,210.0,223.5,218.0,215.5,226.0,211.5,234.5,214.5,227.5,222.5,220.0,230.0,213.0,238.0,205.0,246.0,198.5,254.0,192.5,262.0,184.0,270.0,178.5,278.5,172.0,286.0,169.5,294.0,164.5" stroke="black" stroke-width="2" fill="none" />
<polyline points="291.5,167.0,299.0,167.0,307.0,166.0,315.0,165.0,323.0,164.0" stroke="black" stroke-width="2" fill="none" />
<polyline points="324.5,154.0,332.5,153.0,340.5,152.5" stroke="black" stroke-width="2" fill="none" />
<polyline points="340.5,144.5,333.0,145.0,325.0,146.0" stroke="black" stroke-width="2" fill="none" />
<polyline points="325.5,139.0,333.0,132.0,341.5,124.5" stroke="black" stroke-width="2" fill="none" />
<polyline points="342.5,121.5,344.5,129.5,342.5,137.5,338.0,145.5,331.0,153.0,329.5,154.0,337.5,146.5" stroke="black" stroke-width="2" fill="none" />
<polyline points="347.0,134.0,339.0,140.5,331.0,147.5,323.5,154.5,316.0,162.0,308.5,169.0" stroke="black" stroke-width="2" fill="none" />
<polyline points="308.5,168.5,301.0,169.0" stroke="black" stroke-width="2" fill="none" />
<polyline points="302.0,165.0,309.5,157.0" stroke="black" stroke-width="2" fill="none" />
<polyline points="311.0,160.5,305.5,169.5,296.5,177.0,303.5,171.0,311.5,167.5,320.0,165.5,328.0,164.5,336.0,161.5,344.0,159.5,346.0,165.5,354.0,161.5,366.0,148.5,374.0,141.5,382.0,137.5,390.0,135.5,398.0,136.5" stroke="black" stroke-width="2" fill="none" />
<polyline points="380.0,142.5,377.0,151.0,374.5,158.5" stroke="black" stroke-width="2" fill="none" />
<polyline points="348.0,123.0,340.0,131.0,332.0,139.0,324.0,147.0,316.0,155.0,308.5,162.0,300.5,170.0,292.5,177.5,285.0,184.5,277.5,191.5,270.0,199.5" stroke="black" stroke-width="2" fill="none" />
<polyline points="266.0,193.5,274.5,192.5,283.0,192.5" stroke="black" stroke-width="2" fill="none" />
<polyline points="275.5,186.0,283.5,185.0,292.5,184.5" stroke="black" stroke-width="2" fill="none" />
<polyline points="292.5,186.5,301.0,179.0" stroke="black" stroke-width="2" fill="none" />
<polyline points="299.5,178.0,291.0,178.5,283.0,178.5" stroke="black" stroke-width="2" fill="none" />
<polyline points="276.0,174.0,284.5,173.5,292.5,172.5,300.5,171.5,308.0,171.0" stroke="black" stroke-width="2" fill="none" />
<polyline points="306.0,173.0,297.0,181.0,290.0,189.0,278.0,196.5,266.5,204.0,254.0,212.0,243.0,220.0,232.0,228.0,220.5,231.5,219.5,229.5,225.5,231.5,233.5,226.5,241.5,220.5,249.5,215.5,258.0,209.5,266.0,203.0,274.0,197.0,282.5,192.0,291.0,186.0,299.0,179.0" stroke="black" stroke-width="2" fill="none" />
<polyline points="290.5,171.0,282.5,179.0,274.5,186.5,266.5,194.0,258.5,201.5,250.0,208.5,242.5,216.0" stroke="black" stroke-width="2" fill="none" />
<polyline points="245.5,214.5,237.5,215.5" stroke="black" stroke-width="2" fill="none" />
<polyline points="236.0,209.5,228.0,217.0,220.5,225.0" stroke="black" stroke-width="2" fill="none" />
<polyline points="220.5,222.0,228.5,221.0,236.5,220.0,244.5,219.5" stroke="black" stroke-width="2" fill="none" />
<polyline points="244.0,207.0,252.0,207.0,259.5,207.0" stroke="black" stroke-width="2" fill="none" />
<polyline points="251.0,202.0,259.5,201.5,268.0,201.0" stroke="black" stroke-width="2" fill="none" />
<polyline points="251.0,190.5,259.0,189.5,267.5,188.5,275.5,187.5,283.5,187.0,291.0,186.0" stroke="black" stroke-width="2" fill="none" />
<polyline points="274.0,178.5,266.0,186.0,258.5,193.5,250.5,200.5,242.5,207.5,234.5,215.5,226.0,223.0,218.5,231.0" stroke="black" stroke-width="2" fill="none" />
<polyline points="210.5,231.5,219.0,231.0,227.0,230.0" stroke="black" stroke-width="2" fill="none" />
<polyline points="226.5,223.0,234.5,222.5" stroke="black" stroke-width="2" fill="none" />
<polyline points="225.5,213.0,234.0,212.5,242.5,212.0,251.0,211.5,259.5,211.0" stroke="black" stroke-width="2" fill="none" />
<polyline points="243.0,196.0,251.5,196.0,259.5,196.0,267.5,195.0,275.0,194.5,283.0,194.0" stroke="black" stroke-width="2" fill="none" />
<polyline points="267.5,180.0,275.5,179.5,283.5,179.5,291.5,179.5,299.5,179.0" stroke="black" stroke-width="2" fill="none" />
<polyline points="306.5,160.5,315.0,160.0,323.5,160.0,331.5,159.5" stroke="black" stroke-width="2" fill="none" />
<polyline points="323.5,138.0,331.5,137.5,339.5,137.0" stroke="black" stroke-width="2" fill="none" />
<polyline points="334.0,130.5,341.5,130.5,349.5,130.0" stroke="black" stroke-width="2" fill="none" />
<polyline points="333.5,124.0,325.5,131.5" stroke="black" stroke-width="2" fill="none" />
<polyline points="323.0,134.0,331.0,133.0,339.5,132.5,348.0,132.0" stroke="black" stroke-width="2" fill="none" />
<polyline points="347.0,123.5,339.0,123.5,331.0,124.0,322.5,124.5" stroke="black" stroke-width="2" fill="none" />
<polyline points="324.0,124.5,318.0,133.0,318.0,141.0" stroke="black" stroke-width="2" fill="none" />
<polyline points="308.5,148.0,300.0,156.0" stroke="black" stroke-width="2" fill="none" />
<polyline points="299.5,157.5,307.5,157.0,315.5,156.5,323.5,156.0,331.5,156.0,340.0,156.0,348.0,155.5,356.5,154.5,364.0,154.0" stroke="black" stroke-width="2" fill="none" />
<polyline points="337.0,115.5,329.0,115.5,320.5,116.0" stroke="black" stroke-width="2" fill="none" />
<polyline points="315.0,122.5,307.5,122.5,299.0,123.0,290.5,123.0,282.0,123.0,274.0,123.5,266.0,124.0" stroke="black" stroke-width="2" fill="none" />
<polyline points="267.0,123.0,275.0,115.5,283.0,108.0" stroke="black" stroke-width="2" fill="none" />
<polyline points="284.5,112.0,277.0,112.5" stroke="black" stroke-width="2" fill="none" />
<polyline points="275.0,106.0,261.0,114.5,254.5,122.5,244.0,131.0,236.5,139.0,239.0,147.0,223.0,155.0,211.0,163.0,199.5,171.0,190.5,179.0,181.0,187.0,172.0,195.0,162.5,203.0,155.5,211.0,153.5,213.0,161.5,203.5,169.5,196.5,178.0,188.5,186.0,183.5,194.0,173.5,201.0,170.5,209.0,163.5,217.0,160.0,225.0,155.0,233.0,150.5" stroke="black" stroke-width="2" fill="none" />
<polyline points="228.0,148.0,235.5,148.0,243.5,148.0,251.5,147.5,259.0,147.0,267.0,147.0,274.5,147.0" stroke="black" stroke-width="2" fill="none" />
<polyline points="283.0,145.5,291.0,138.5,299.5,131.0,308.0,123.5" stroke="black" stroke-width="2" fill="none" />
<polyline points="305.5,132.5,297.5,140.0,290.0,147.5" stroke="black" stroke-width="2" fill="none" />
<polyline points="292.0,152.5,300.0,152.0,308.0,150.5,316.0,149.5,324.0,148.0,332.0,147.0,340.0,146.5,348.0,146.0,356.0,145.5,364.0,145.0" stroke="black" stroke-width="2" fill="none" />
<polyline points="346.5,121.0,338.5,116.0,331.0,117.5,323.0,121.5,314.5,127.5,307.5,139.5,297.0,146.5,295.0,142.5,287.0,143.5,279.5,146.5,271.5,149.5,263.0,150.5,255.0,154.0,247.0,154.5,240.0,161.5,248.0,153.5" stroke="black" stroke-width="2" fill="none" />
<polyline points="250.0,153.0,242.5,153.5" stroke="black" stroke-width="2" fill="none" />
<polyline points="243.5,146.0,251.0,145.5,259.0,145.0,267.0,144.5,274.5,144.5" stroke="black" stroke-width="2" fill="none" />
<polyline points="274.0,145.5,282.0,138.5,290.0,131.5,298.0,123.5" stroke="black" stroke-width="2" fill="none" />
<polyline points="291.5,124.5,283.5,131.5,275.0,138.5,267.0,145.5" stroke="black" stroke-width="2" fill="none" />
<polyline points="266.5,136.0,274.5,136.0,282.5,135.5,291.0,135.0,299.0,134.5" stroke="black" stroke-width="2" fill="none" />
<polyline points="300.5,153.0,308.0,152.0" stroke="black" stroke-width="2" fill="none" />
<polyline points="292.0,116.0,284.5,123.5,276.5,131.0,268.0,138.5,259.5,146.5,251.0,153.5,242.5,160.5,234.0,167.5" stroke="black" stroke-width="2" fill="none" />
<polyline points="228.0,160.5,236.0,160.0,244.0,159.0" stroke="black" stroke-width="2" fill="none" />
<polyline points="252.0,156.5,244.0,157.5,236.0,158.0,227.5,158.5,219.5,159.0" stroke="black" stroke-width="2" fill="none" />
<polyline points="227.5,156.0,219.5,163.0,211.5,170.5,204.0,178.0,196.0,185.5,188.0,193.0,180.0,200.0,172.0,207.0" stroke="black" stroke-width="2" fill="none" />
<polyline points="165.5,209.0,173.0,201.0,181.0,193.5,189.0,185.5,197.5,178.0" stroke="black" stroke-width="2" fill="none" />
<polyline points="196.5,174.5,204.5,173.5,212.0,172.5,219.5,171.5,227.0,170.5,234.5,169.5" stroke="black" stroke-width="2" fill="none" />
<polyline points="237.0,169.0,229.0,169.0,221.0,169.5,213.0,170.0" stroke="black" stroke-width="2" fill="none" />
<polyline points="204.5,165.5,212.5,165.0,220.5,164.5,228.5,164.0,236.0,164.0,244.0,164.0,252.0,163.5" stroke="black" stroke-width="2" fill="none" />
<polyline points="246.5,161.5,239.0,166.5,231.0,173.0,223.5,179.5,216.0,184.5,207.5,190.0,199.5,195.0,192.0,200.0,183.5,206.0,176.0,211.0,168.0,214.5,175.0,210.5,188.0,202.5,199.5,194.0,212.5,186.5,224.5,178.5,235.5,170.5,246.5,162.5,253.5,155.0" stroke="black" stroke-width="2" fill="none" />
<polyline points="243.5,142.0,251.0,141.5,259.0,141.0,267.0,140.5,274.5,140.5,283.0,139.5,291.0,139.0,299.5,137.5,307.5,137.0" stroke="black" stroke-width="2" fill="none" />
<polyline points="292.5,121.0,285.0,121.0,277.5,121.5" stroke="black" stroke-width="2" fill="none" />
<polyline points="282.5,127.0,274.5,127.0,266.5,127.0" stroke="black" stroke-width="2" fill="none" />
<polyline points="259.0,132.0,250.5,139.0,242.5,146.0,234.5,154.0,226.5,161.5,218.5,169.5,210.5,177.0,202.5,183.5,194.5,191.0,186.5,198.5" stroke="black" stroke-width="2" fill="none" />
<polyline points="188.5,194.5,196.5,194.0,204.0,193.0" stroke="black" stroke-width="2" fill="none" />
<polyline points="198.0,186.5,205.5,186.5,213.5,186.0" stroke="black" stroke-width="2" fill="none" />
<polyline points="210.0,181.5,218.0,174.0,226.5,166.5,235.5,159.5,244.0,152.0,252.0,145.0,260.5,137.5,268.5,130.5,276.0,123.0,284.0,115.0,292.0,107.5" stroke="black" stroke-width="2" fill="none" />
<polyline points="275.0,106.0,267.0,113.5" stroke="black" stroke-width="2" fill="none" />
<polyline points="267.5,116.5,275.5,116.0,283.5,116.0,291.5,116.0" stroke="black" stroke-width="2" fill="none" />
<polyline points="253.0,115.5,245.0,122.5,237.0,130.0" stroke="black" stroke-width="2" fill="none" />
<polyline points="236.5,133.0,244.5,132.5,252.5,131.5,260.0,131.0,267.5,130.5,275.0,130.5,283.0,129.5,291.0,129.0,299.5,129.0,307.5,128.5" stroke="black" stroke-width="2" fill="none" />
<polyline points="306.5,122.5,298.5,120.5,288.5,122.0,280.5,134.0,273.0,140.0,282.0,133.0,287.5,125.0,289.0,117.5,287.0,109.5,285.0,105.5,277.0,106.5,269.0,109.5,261.0,114.5,253.0,123.5,245.0,130.0,237.0,136.0" stroke="black" stroke-width="2" fill="none" />
<polyline points="243.5,137.0,251.5,136.0" stroke="black" stroke-width="2" fill="none" />
<polyline points="253.0,132.5,245.0,140.0" stroke="black" stroke-width="2" fill="none" />
<polyline points="245.0,131.0,253.0,123.0" stroke="black" stroke-width="2" fill="none" />
<polyline points="252.5,119.5,244.5,120.0,236.5,120.0,229.0,120.5,221.0,121.0,212.5,122.0" stroke="black" stroke-width="2" fill="none" />
<polyline points="203.0,124.0,194.5,131.5,186.5,138.5,178.5,145.5,171.0,152.5,163.5,160.0,156.0,167.5,148.5,175.5" stroke="black" stroke-width="2" fill="none" />
<polyline points="138.5,168.5,146.0,168.5,154.5,168.0,162.5,167.5" stroke="black" stroke-width="2" fill="none" />
<polyline points="170.5,158.0,178.5,151.0,186.5,143.5,194.5,136.5,203.0,129.0,211.5,122.0,220.0,114.5,228.0,106.0,236.0,98.5" stroke="black" stroke-width="2" fill="none" />
<polyline points="236.0,92.5,228.5,100.0,220.5,107.0" stroke="black" stroke-width="2" fill="none" />
<polyline points="218.5,104.5,226.5,104.0,234.0,103.5" stroke="black" stroke-width="2" fill="none" />
<polyline points="239.5,109.5,247.5,104.5,255.5,106.5" stroke="black" stroke-width="2" fill="none" />
<polyline points="253.0,106.5,245.0,114.5,236.5,121.5,228.5,129.0" stroke="black" stroke-width="2" fill="none" />
<polyline points="219.0,130.0,227.0,121.5,236.0,114.0,244.0,106.0" stroke="black" stroke-width="2" fill="none" />
<polyline points="244.5,97.5,236.0,105.0,228.0,113.0,220.0,121.0,212.0,129.0,204.0,136.5" stroke="black" stroke-width="2" fill="none" />
<polyline points="204.5,136.5,196.5,137.0" stroke="black" stroke-width="2" fill="none" />
<polyline points="195.0,129.0,203.5,128.5,211.5,128.0,219.5,127.5,228.0,127.0" stroke="black" stroke-width="2" fill="none" />
<polyline points="235.5,113.0,228.0,112.5,220.0,112.5" stroke="black" stroke-width="2" fill="none" />
<polyline points="211.0,110.0,219.0,109.5,227.5,109.5,235.0,109.0,243.5,108.0,251.5,107.5,259.5,106.5,268.5,106.0,277.0,105.5,285.5,104.5,293.5,104.5" stroke="black" stroke-width="2" fill="none" />
<polyline points="260.0,111.5,253.0,111.5,245.5,112.5,237.5,113.0,229.5,113.5,222.0,113.5,213.5,114.5,205.0,115.0,197.0,116.0,188.5,116.5,180.5,117.0,172.5,117.0,165.0,117.5,157.5,118.0,149.5,118.5,141.5,119.0" stroke="black" stroke-width="2" fill="none" />
<polyline points="145.5,115.5,153.5,115.0,162.0,115.0,170.5,114.5,179.5,114.0,188.5,113.0,197.0,112.5" stroke="black" stroke-width="2" fill="none" />
<polyline points="198.5,114.0,206.5,105.0,214.5,98.0,222.0,93.0,230.0,91.0,238.0,93.5,240.0,99.5,239.0,107.0,232.0,118.0,221.5,126.0,218.5,128.0,226.5,123.0,228.5,124.0" stroke="black" stroke-width="2" fill="none" />
<polyline points="227.5,130.5,219.5,131.5,211.5,132.0,204.0,132.5,196.0,132.5,188.0,132.5,179.5,133.5" stroke="black" stroke-width="2" fill="none" />
<polyline points="179.5,141.0,171.5,148.5,163.5,156.0,156.0,163.0,148.0,170.0,140.0,177.5,132.0,185.0" stroke="black" stroke-width="2" fill="none" />
<polyline points="132.0,179.0,140.0,178.5,148.0,178.0" stroke="black" stroke-width="2" fill="none" />
<polyline points="133.0,172.0,124.5,180.0,116.0,187.5,108.0,194.5" stroke="black" stroke-width="2" fill="none" />
<polyline points="105.5,196.5,113.5,190.5" stroke="black" stroke-width="2" fill="none" />
<polyline points="115.0,191.5,123.5,184.0,131.0,177.0,139.0,170.0,147.0,162.5,155.0,155.5,163.5,147.5" stroke="black" stroke-width="2" fill="none" />
<polyline points="165.5,141.5,173.5,141.0,181.0,140.5,188.5,140.0,196.0,139.5,203.5,138.5" stroke="black" stroke-width="2" fill="none" />
<polyline points="202.5,122.5,194.5,123.5" stroke="black" stroke-width="2" fill="none" />
<polyline points="195.0,123.0,203.0,116.0" stroke="black" stroke-width="2" fill="none" />
<polyline points="203.5,107.5,195.5,115.5,188.0,123.0" stroke="black" stroke-width="2" fill="none" />
<polyline points="187.0,128.0,195.0,127.0,204.0,126.0,212.5,124.5,221.0,124.0,229.0,122.5,237.0,122.5,244.0,122.5,251.5,122.5" stroke="black" stroke-width="2" fill="none" />
<polyline points="249.0,129.0,255.5,137.0,258.5,144.5" stroke="black" stroke-width="2" fill="none" />
<polyline points="252.0,130.0,260.0,133.0,265.5,120.0,262.5,128.0" stroke="black" stroke-width="2" fill="none" />
<polyline points="243.0,100.0,235.0,100.5,227.0,101.5,219.0,102.0" stroke="black" stroke-width="2" fill="none" />
<polyline points="211.0,99.0,203.5,100.0,195.5,101.0,188.0,102.0,180.0,102.5,172.0,103.0,164.0,103.0" stroke="black" stroke-width="2" fill="none" />
<polyline points="163.5,95.0,171.5,94.5,180.0,94.0,188.0,93.0,196.5,92.0,204.5,91.0,212.5,90.5,220.5,90.0,228.5,89.0,236.5,89.0,244.5,89.0" stroke="black" stroke-width="2" fill="none" />
<polyline points="225.0,91.5,212.0,99.5,202.5,107.5,198.5,115.5,205.5,117.5,213.5,109.5" stroke="black" stroke-width="2" fill="none" />
<polyline points="204.0,98.5,196.0,106.5,188.0,113.5" stroke="black" stroke-width="2" fill="none" />
<polyline points="190.5,118.0,186.5,126.0,182.5,134.0,165.0,142.0,154.0,150.0,143.0,158.0,133.0,166.0,121.0,174.0,113.0,182.0,104.0,190.0,102.0,198.5,107.5,188.5,115.5,180.0,121.5,174.0,129.5,169.5,138.0,163.5,146.0,156.5,154.0,151.5,162.0,145.5,170.0,140.5,178.0,136.5,186.0,132.5" stroke="black" stroke-width="2" fill="none" />
<polyline points="188.5,144.5,192.5,138.5,186.5,143.5,194.5,138.0,198.5,141.0,189.5,149.0,178.5,157.0,166.0,165.0,153.5,173.0,141.0,180.5,127.0,189.0,112.5,192.0,112.5,197.0,120.0,193.0,128.0,188.0,135.5,183.0,143.5,179.0,151.5,173.5,159.5,168.5,167.0,163.0,175.5,158.0,183.5,153.5,191.5,146.5,199.5,139.5,208.0,135.5,216.0,133.5,224.5,132.0,233.0,129.0,241.0,126.0" stroke="black" stroke-width="2" fill="none" />
<polyline points="195.0,98.5,187.5,106.0,179.5,113.5,171.5,121.5" stroke="black" stroke-width="2" fill="none" />
<polyline points="165.5,123.0,172.5,115.5,179.5,108.5,187.5,101.5,195.5,94.0" stroke="black" stroke-width="2" fill="none" />
<polyline points="193.0,94.5,201.0,91.5,209.0,93.5,214.0,103.5,212.0,111.5" stroke="black" stroke-width="2" fill="none" />
<polyline points="197.0,85.0,189.0,92.0,181.0,99.5,173.0,107.0,165.0,114.0,157.0,121.5,149.5,129.5,141.0,137.0" stroke="black" stroke-width="2" fill="none" />
<polyline points="147.5,147.0,155.5,147.0,164.0,146.5,172.0,146.0,180.5,146.0,188.5,146.0,196.0,146.0" stroke="black" stroke-width="2" fill="none" />
<polyline points="196.5,143.0,188.5,143.5,181.0,144.0,173.0,144.5" stroke="black" stroke-width="2" fill="none" />
<polyline points="164.5,154.0,172.5,153.5,180.5,153.0,188.5,152.5" stroke="black" stroke-width="2" fill="none" />
<polyline points="201.5,177.0,209.5,177.0,218.0,176.5,226.5,176.0" stroke="black" stroke-width="2" fill="none" />
<polyline points="236.5,204.5,245.0,204.0,252.5,203.5,260.0,203.0,268.0,202.0" stroke="black" stroke-width="2" fill="none" />
<polyline points="227.0,180.0,219.0,180.5,211.0,181.0,203.0,181.5,195.0,182.0,187.0,182.5" stroke="black" stroke-width="2" fill="none" />
<polyline points="179.0,191.5,187.0,191.0,195.5,190.0,204.0,189.0,212.0,188.5" stroke="black" stroke-width="2" fill="none" />
<polyline points="188.5,199.0,181.0,199.5,173.0,200.0" stroke="black" stroke-width="2" fill="none" />
<polyline points="164.5,199.0,172.5,198.5,180.5,198.0,188.5,197.0,196.5,196.0" stroke="black" stroke-width="2" fill="none" />
<polyline points="173.0,211.0,165.0,211.5" stroke="black" stroke-width="2" fill="none" />
<polyline points="170.0,213.0,162.0,213.0,154.5,214.0" stroke="black" stroke-width="2" fill="none" />
<polyline points="158.5,216.0,166.5,210.0,169.5,208.0" stroke="black" stroke-width="2" fill="none" />
<polyline points="156.5,207.5,164.5,207.0,172.0,206.5,180.0,205.5,188.0,204.5" stroke="black" stroke-width="2" fill="none" />
<polyline points="172.0,159.0,164.0,159.0,156.0,159.5,148.5,160.0" stroke="black" stroke-width="2" fill="none" />
<polyline points="139.5,158.5,147.5,158.0,155.5,157.5,163.5,156.5,171.0,156.0,179.0,155.5,187.0,155.0" stroke="black" stroke-width="2" fill="none" />
<polyline points="164.0,120.5,156.0,121.5,147.5,122.0" stroke="black" stroke-width="2" fill="none" />
<polyline points="140.0,125.0,132.0,132.5,123.5,140.0,115.5,147.5,107.0,154.5,98.5,162.0" stroke="black" stroke-width="2" fill="none" />
<polyline points="93.0,155.0,101.5,154.5,109.0,153.5,116.5,152.5" stroke="black" stroke-width="2" fill="none" />
<polyline points="109.5,145.0,117.0,144.0,125.0,143.5" stroke="black" stroke-width="2" fill="none" />
<polyline points="124.5,144.5,133.0,137.0,141.0,129.5,149.0,122.5,157.0,115.0,165.5,107.5,173.5,99.5,181.5,92.0,189.0,84.5" stroke="black" stroke-width="2" fill="none" />
<polyline points="186.5,87.5,178.5,88.0,171.0,88.5" stroke="black" stroke-width="2" fill="none" />
<polyline points="171.5,91.5,179.5,84.0" stroke="black" stroke-width="2" fill="none" />
<polyline points="184.0,79.5,172.0,80.5,161.0,88.5,151.0,96.5,143.0,104.5,140.5,112.5,136.0,120.5,119.0,128.5,107.0,136.5,94.0,144.5,84.0,153.0,74.0,161.0,63.0,168.5,54.0,176.5,57.0,184.5,58.0,173.5,66.0,166.5,74.0,160.5,82.0,153.5,90.5,147.0,99.0,141.0,107.0,137.0,114.5,131.0,122.5,126.0,130.5,123.5,138.5,119.5" stroke="black" stroke-width="2" fill="none" />
<polyline points="132.5,123.5,124.5,131.0,116.5,139.0,108.5,147.0,101.0,155.0,93.0,162.5,84.5,170.0" stroke="black" stroke-width="2" fill="none" />
<polyline points="85.0,169.5,77.0,170.0" stroke="black" stroke-width="2" fill="none" />
<polyline points="66.5,166.5,75.0,166.0,83.0,165.5,92.0,165.5,100.5,165.0" stroke="black" stroke-width="2" fill="none" />
<polyline points="101.0,162.0,93.0,162.0,85.0,162.0" stroke="black" stroke-width="2" fill="none" />
<polyline points="84.5,153.5,76.0,161.5,68.0,169.0,60.0,176.5" stroke="black" stroke-width="2" fill="none" />
<polyline points="61.0,178.5,68.5,178.0" stroke="black" stroke-width="2" fill="none" />
<polyline points="67.5,177.5,76.0,169.5,84.0,162.0,92.5,154.5,101.0,147.5,109.5,140.0" stroke="black" stroke-width="2" fill="none" />
<polyline points="107.0,135.0,115.0,134.5,123.5,133.5,132.0,132.5,140.0,132.0,148.5,131.5" stroke="black" stroke-width="2" fill="none" />
<polyline points="148.5,129.0,140.0,129.0,132.0,129.0" stroke="black" stroke-width="2" fill="none" />
<polyline points="125.0,125.5,133.0,124.5,140.5,124.0,148.0,124.0,155.5,123.5,163.5,123.5" stroke="black" stroke-width="2" fill="none" />
<polyline points="157.5,116.5,151.5,128.0,143.0,136.0,131.0,144.0,117.5,152.0,103.0,160.0,89.0,168.0,74.5,176.0,63.5,182.0,71.5,178.5,79.5,173.5,87.5,169.0,95.5,164.0,103.5,160.0,111.5,154.5,120.0,149.0,127.5,144.0,135.5,138.5,143.5,132.5,151.0,125.0,159.0,121.0,167.0,119.0,175.0,117.0,183.5,115.5,186.0,120.5" stroke="black" stroke-width="2" fill="none" />
<polyline points="172.5,105.0,180.5,104.0,188.0,103.5,196.0,102.5,203.5,102.0" stroke="black" stroke-width="2" fill="none" />
<polyline points="187.0,95.5,179.0,96.5,171.0,97.0" stroke="black" stroke-width="2" fill="none" />
<polyline points="162.0,85.5,170.0,84.5,178.5,84.0,186.5,83.5,194.0,83.5" stroke="black" stroke-width="2" fill="none" />
<polyline points="196.0,76.0,188.0,77.0,179.5,77.5,171.5,78.0" stroke="black" stroke-width="2" fill="none" />
<polyline points="154.0,100.0,146.0,107.5" stroke="black" stroke-width="2" fill="none" />
<polyline points="141.5,107.0,149.5,99.0,158.0,91.5,166.0,86.0,174.0,81.0,181.5,78.0,189.5,79.5,191.5,83.5,192.5,91.0,188.5,99.0,176.5,109.5,173.5,111.5,181.5,105.5" stroke="black" stroke-width="2" fill="none" />
<polyline points="152.5,106.5,144.5,113.5" stroke="black" stroke-width="2" fill="none" />
<polyline points="139.0,110.0,147.5,109.5,155.5,109.0,163.5,108.5,171.5,108.5,179.5,108.0,187.5,107.5,196.0,107.0,204.0,106.5" stroke="black" stroke-width="2" fill="none" />
<polyline points="155.0,94.5,147.0,95.0" stroke="black" stroke-width="2" fill="none" />
<polyline points="154.5,101.0,147.0,102.0,139.0,102.5" stroke="black" stroke-width="2" fill="none" />
<polyline points="139.5,134.0,131.5,134.5,124.0,135.5,116.0,136.0" stroke="black" stroke-width="2" fill="none" />
<polyline points="140.0,140.0,131.5,140.5,123.5,141.0,115.5,141.0,107.5,141.5,99.5,142.5,91.5,143.0" stroke="black" stroke-width="2" fill="none" />
<polyline points="84.5,151.0,92.0,150.0,100.0,149.5,108.0,148.5,116.0,148.0,124.0,147.0" stroke="black" stroke-width="2" fill="none" />
<polyline points="134.0,167.5,142.0,167.0,149.5,166.0,156.5,165.5,164.0,165.0,171.0,164.5" stroke="black" stroke-width="2" fill="none" />
<polyline points="132.0,184.0,124.5,184.5" stroke="black" stroke-width="2" fill="none" />
<polyline points="124.0,172.0,132.0,171.5,139.5,171.5,147.5,171.0,155.0,171.0" stroke="black" stroke-width="2" fill="none" />
<polyline points="131.5,186.0,124.0,186.5,116.0,187.5,108.0,188.5" stroke="black" stroke-width="2" fill="none" />
<polyline points="107.5,180.0,115.5,179.5,123.5,179.0,132.0,178.5,140.5,178.5,148.5,178.0" stroke="black" stroke-width="2" fill="none" />
<polyline points="117.0,156.0,108.5,156.5,100.0,157.0,91.5,157.5,83.0,158.5,75.0,159.0" stroke="black" stroke-width="2" fill="none" />
<polyline points="67.0,182.0,59.5,182.5" stroke="black" stroke-width="2" fill="none" />
<polyline points="53.0,174.5,61.0,174.0,68.0,173.5,76.0,173.0,83.5,172.0" stroke="black" stroke-width="2" fill="none" />
<polyline points="12.0,69.0,3.5,69.0" stroke="black" stroke-width="2" fill="none" />
<polyline points="3.0,61.0,11.0,60.5,19.0,60.5,27.5,60.0" stroke="black" stroke-width="2" fill="none" />
<polyline points="35.5,51.5,27.0,52.5,19.0,53.0,10.5,54.0,2.5,54.0" stroke="black" stroke-width="2" fill="none" />
<polyline points="4.0,45.0,12.0,45.0,20.0,44.5,27.5,44.0,35.0,43.5,43.0,42.5,51.0,42.0,59.0,41.5" stroke="black" stroke-width="2" fill="none" />
<polyline points="66.5,35.0,59.0,35.0,52.0,35.5,44.5,35.5,37.0,36.0,29.5,36.5,21.0,37.5,13.0,38.0,4.5,38.5" stroke="black" stroke-width="2" fill="none" />
<polyline points="5.0,29.5,13.0,29.5,20.5,29.5,27.5,29.0,34.5,29.0,42.0,28.5,50.0,28.5,58.0,27.5,66.5,27.0,74.5,26.5,83.0,26.0,91.0,25.5" stroke="black" stroke-width="2" fill="none" />
<polyline points="114.5,13.5,106.5,14.5,98.5,15.0,90.0,15.5,82.5,15.5,74.5,16.0,67.5,17.5,60.0,18.5,52.5,19.5,44.5,19.5,36.5,20.0,28.5,20.5,20.5,21.0,13.0,21.5,5.0,22.0" stroke="black" stroke-width="2" fill="none" />
<polyline points="3.5,14.0,11.5,13.5,19.5,13.0,27.5,12.5,35.5,12.5,43.0,12.0,51.0,11.0,59.0,10.5,67.0,10.0,75.0,10.0,83.5,9.5,91.5,9.0,99.5,8.5,107.5,7.5,115.0,7.0,123.0,6.5,131.0,6.0" stroke="black" stroke-width="2" fill="none" />
<polyline points="166.0,-3.5,157.5,-2.5,149.0,-2.0,141.0,-1.0,132.5,-0.5,124.5,0.0,116.5,0.0,109.0,0.5,101.5,1.0,93.5,1.5,85.5,2.0,77.5,2.5,69.5,3.0,61.0,3.0,52.5,3.0,44.5,2.5,35.5,3.0,26.5,3.0,18.0,3.5,9.5,4.0,1.5,4.5" stroke="black" stroke-width="2" fill="none" />
<polyline points="2.5,2.0,10.5,2.0,18.0,2.5,26.0,2.5,34.0,2.5,41.5,3.0,49.5,3.0,57.5,3.5,65.5,4.0,73.5,4.5,81.5,4.5,90.0,4.5,98.5,4.0,107.0,3.5,115.0,3.5,123.0,3.0,131.0,3.0,138.5,3.5,146.0,3.5,154.0,4.0,161.5,4.0,170.0,3.5,178.0,3.0,186.0,3.0,194.0,3.0,201.5,2.5,209.5,2.5,217.5,2.5,225.0,2.5,232.5,2.0,240.5,2.0,248.5,2.0,256.5,2.0,264.5,2.0,272.5,2.5,280.5,2.5,289.0,3.0,297.5,3.5,305.5,3.5,314.0,3.5,322.0,3.5,330.0,4.0,338.5,4.0,346.5,4.0,354.5,4.0,362.0,3.5,370.0,3.5,378.0,3.5,386.0,3.5,394.0,3.0,402.0,3.0,410.0,3.5,418.0,3.0,426.0,3.0,434.0,2.5,442.0,2.5,450.0,2.5,458.0,2.5,466.0,3.0,474.0,3.0,482.5,3.0,490.0,3.0,498.0,3.0,505.5,3.0,512.5,5.0,512.5,13.0,512.5,21.0,513.0,28.5,513.0,36.5,513.0,45.0,513.0,53.0,513.5,61.0,513.5,69.0,513.0,77.5,513.0,85.5,512.5,93.5,512.5,102.0,512.5,109.5,512.5,117.5,512.5,125.5,512.5,133.5,512.5,141.5,512.5,149.5,512.5,157.5,512.5,165.0,512.5,173.0,512.5,181.0,512.5,188.5,512.0,196.5,512.0,204.5,512.0,212.5,512.0,220.5,512.0,228.5,512.0,236.5,512.0,244.5,512.5,252.5,512.5,260.5,512.5,268.0,512.5,276.0,512.5,284.5,513.0,292.5,512.5,300.0,512.5,308.0,512.5,315.5,512.5,323.5,512.5,331.5,513.0,340.0" stroke="black" stroke-width="2" fill="none" />
<polyline points="321.5,128.0,316.0,144.5,308.5,147.5,306.5,157.5,306.0,148.5,306.0,140.5,311.0,132.5,318.0,124.5,332.5,117.0" stroke="black" stroke-width="2" fill="none" />
</svg>